<svg width="365" height="384" viewBox="0 0 365 384" fill="none" xmlns="http://www.w3.org/2000/svg">
<path d="M221.552 33.765V34.1925C221.552 38.7375 218.658 42.5625 214.708 43.755C213.881 44.01 213.004 44.1375 212.106 44.1375H152.901C151.995 44.1375 151.118 44.01 150.299 43.755C146.342 42.5625 143.448 38.7375 143.448 34.1925V33.765C143.448 28.275 147.682 23.835 152.901 23.835H212.106C217.325 23.835 221.552 28.275 221.552 33.765Z" fill="#526471"/>
<path opacity="0.2" d="M221.552 33.765V34.1925C221.552 35.025 221.452 35.8425 221.267 36.615C220.255 32.2875 216.54 29.085 212.106 29.085H152.901C148.467 29.085 144.745 32.2875 143.733 36.615C143.548 35.8425 143.448 35.025 143.448 34.1925V33.765C143.448 28.275 147.682 23.835 152.901 23.835H212.106C217.325 23.835 221.552 28.275 221.552 33.765Z" fill="white"/>
<path d="M298.031 222.825C297.454 230.962 296.113 238.867 294.096 246.473L307.926 254.872C314.442 258.832 316.695 267.675 312.93 274.537L297.881 301.942C294.132 308.797 285.719 311.167 279.204 307.207L265.345 298.793C260.034 304.508 254.181 309.69 247.879 314.22L253.347 330.03C255.921 337.47 252.249 345.772 245.184 348.48L216.911 359.31C209.832 362.01 201.955 358.133 199.381 350.7L193.906 334.89H193.899C190.149 335.272 186.35 335.475 182.507 335.475H182.5C178.65 335.475 174.851 335.272 171.094 334.89L165.619 350.7C163.052 358.133 155.161 362.01 148.089 359.31L119.823 348.48C112.751 345.772 109.079 337.47 111.653 330.03L117.121 314.22C110.826 309.69 104.973 304.507 99.655 298.8V298.793L85.7892 307.215C79.2734 311.167 70.8685 308.797 67.1115 301.942L52.0695 274.537C48.3055 267.675 50.5582 258.832 57.074 254.872L70.9041 246.473C68.8795 238.867 67.5535 230.962 66.9689 222.825L51.2141 219.9C43.8 218.535 38.8098 211.027 40.1215 203.242L45.3398 172.072C46.6444 164.272 53.7805 159.03 61.1874 160.395L76.9138 163.312V163.305C80.079 155.97 83.9144 149.017 88.3343 142.537L78.0615 129.645C73.2281 123.577 73.9909 114.457 79.7439 109.372L102.792 89.025C108.559 83.94 117.228 84.735 122.061 90.795L132.327 103.68C138.073 100.762 144.075 98.3475 150.299 96.465V111.607C110.883 125.715 82.5242 164.985 82.5242 211.215C82.5242 269.31 127.287 316.395 182.5 316.395H182.507C237.721 316.387 282.476 269.31 282.476 211.215C282.476 164.977 254.117 125.715 214.708 111.607V96.465C220.925 98.3475 226.934 100.762 232.673 103.68L242.939 90.795C247.765 84.735 256.441 83.94 262.201 89.0325L285.242 109.372C291.009 114.457 291.765 123.585 286.931 129.645L276.659 142.537C281.086 149.017 284.921 155.97 288.079 163.305L303.813 160.395C311.227 159.03 318.356 164.272 319.66 172.065L324.886 203.242C326.183 211.027 321.2 218.527 313.786 219.907L298.031 222.825Z" fill="#2D3E50"/>
<path d="M282.476 211.215C282.476 238.26 272.773 262.913 256.833 281.55C238.54 302.94 212.014 316.395 182.5 316.395C127.287 316.395 82.5242 269.31 82.5242 211.215C82.5242 208.215 82.6454 205.253 82.8806 202.32C86.2455 159.998 113.435 124.8 150.299 111.608V43.755C151.119 44.01 151.995 44.1375 152.901 44.1375H212.106C213.005 44.1375 213.881 44.01 214.708 43.755V111.608C244.685 122.34 268.275 147.63 277.842 179.483C280.095 186.975 281.57 194.835 282.169 202.95C282.376 205.673 282.476 208.433 282.476 211.215Z" fill="#ECEFF0"/>
<path d="M258.337 209.258C258.337 210.053 258.038 210.817 257.503 211.38L217.567 253.388C217.011 253.973 216.277 254.265 215.55 254.265C214.822 254.265 214.088 253.973 213.532 253.388C212.42 252.218 212.42 250.312 213.532 249.143L251.451 209.258L250.731 208.5L231.932 188.73L213.532 169.373C212.42 168.203 212.42 166.297 213.532 165.127C214.644 163.958 216.455 163.958 217.567 165.127L237.927 186.54L257.503 207.135C257.631 207.27 257.753 207.427 257.86 207.585C258.166 208.072 258.337 208.658 258.337 209.258Z" fill="#FF4F4F"/>
<path d="M201.577 167.925L187.533 204.21L168.699 252.862C168.249 254.025 167.187 254.73 166.061 254.73C165.704 254.73 165.341 254.662 164.984 254.505C163.53 253.882 162.824 252.135 163.423 250.597L182.172 202.155L196.295 165.66C196.893 164.122 198.554 163.387 200.016 164.017C201.47 164.64 202.176 166.387 201.577 167.925Z" fill="#FF4F4F"/>
<path d="M151.468 249.143C152.58 250.312 152.58 252.218 151.468 253.388C150.912 253.973 150.178 254.265 149.45 254.265C148.723 254.265 147.989 253.973 147.433 253.388L107.504 211.38C106.969 210.817 106.67 210.053 106.67 209.258C106.67 208.463 106.969 207.697 107.504 207.135L147.433 165.127C148.545 163.958 150.356 163.958 151.468 165.127C152.58 166.297 152.58 168.203 151.468 169.373L134.223 187.515L113.556 209.258L151.468 249.143Z" fill="#FF4F4F"/>
<path d="M282.476 211.215C282.476 211.95 282.469 212.685 282.454 213.412C282.447 213.622 282.447 213.825 282.44 214.027C282.419 214.77 282.397 215.52 282.362 216.255C282.333 216.997 282.29 217.74 282.24 218.475C282.226 218.7 282.212 218.917 282.198 219.142C282.148 219.87 282.084 220.59 282.019 221.303C281.948 222.105 281.87 222.907 281.777 223.702C281.699 224.445 281.606 225.188 281.506 225.923C281.385 226.815 281.257 227.7 281.121 228.577C280.993 229.387 280.857 230.19 280.708 230.992C280.579 231.72 280.444 232.448 280.294 233.168C280.259 233.348 280.223 233.52 280.187 233.692C280.045 234.382 279.895 235.072 279.738 235.755C279.61 236.34 279.467 236.925 279.325 237.503C279.268 237.75 279.204 237.997 279.139 238.237C278.968 238.927 278.79 239.625 278.605 240.307C278.569 240.42 278.541 240.525 278.512 240.63C278.341 241.252 278.163 241.882 277.977 242.497C277.92 242.692 277.863 242.88 277.806 243.067C277.621 243.697 277.421 244.327 277.222 244.95C277.215 244.98 277.2 245.002 277.193 245.032C276.951 245.782 276.701 246.525 276.445 247.267C276.438 247.305 276.423 247.342 276.409 247.38C276.16 248.1 275.896 248.82 275.632 249.532C275.354 250.275 275.069 251.01 274.777 251.745C274.513 252.412 274.242 253.072 273.971 253.732C273.921 253.852 273.871 253.972 273.821 254.085C273.265 255.39 272.681 256.688 272.082 257.963L271.953 258.232C271.633 258.907 271.305 259.567 270.977 260.227C270.955 260.265 270.934 260.302 270.92 260.34C270.57 261.045 270.207 261.735 269.843 262.425C269.836 262.44 269.829 262.455 269.822 262.47C269.487 263.1 269.145 263.73 268.795 264.352C268.738 264.457 268.681 264.562 268.617 264.668C268.275 265.283 267.919 265.89 267.562 266.497C267.284 266.97 267.006 267.442 266.721 267.907C266.507 268.267 266.286 268.62 266.065 268.972C265.751 269.475 265.438 269.962 265.117 270.457C264.696 271.102 264.268 271.747 263.834 272.385C263.434 272.977 263.028 273.562 262.615 274.147C262.543 274.237 262.479 274.335 262.408 274.432C261.994 275.01 261.574 275.588 261.146 276.15C261.146 276.158 261.146 276.157 261.146 276.157C260.697 276.757 260.248 277.342 259.792 277.927C259.235 278.64 258.665 279.352 258.095 280.05C257.674 280.552 257.254 281.055 256.833 281.55C238.54 302.94 212.014 316.395 182.5 316.395C127.287 316.395 82.5242 269.31 82.5242 211.215C82.5242 208.215 82.6454 205.253 82.8806 202.32C95.3705 196.538 110.277 190.972 125.155 188.565L107.504 207.135C106.969 207.697 106.67 208.462 106.67 209.257C106.67 210.052 106.969 210.817 107.504 211.38L147.433 253.387C147.989 253.972 148.723 254.265 149.45 254.265C150.177 254.265 150.912 253.972 151.468 253.387C152.58 252.217 152.58 250.312 151.468 249.142L113.556 209.257L134.223 187.515C147.54 186.615 160.422 188.767 171.094 196.125C174.501 198.472 178.208 200.475 182.172 202.155L163.423 250.597C162.824 252.135 163.53 253.882 164.984 254.505C165.341 254.662 165.704 254.73 166.061 254.73C167.187 254.73 168.249 254.025 168.698 252.862L187.533 204.21C191.518 205.567 195.71 206.655 200.051 207.503C208.62 209.175 217.774 209.895 227.106 209.895C228.082 209.895 229.052 209.887 230.035 209.872C230.035 209.872 230.035 209.872 230.043 209.872C230.827 209.857 231.611 209.842 232.395 209.82C232.438 209.82 232.481 209.82 232.523 209.812C232.937 209.805 233.343 209.79 233.757 209.775C234.52 209.753 235.282 209.722 236.045 209.677C237 209.64 237.956 209.587 238.911 209.527C239.823 209.475 240.729 209.415 241.641 209.347C242.932 209.257 244.222 209.145 245.505 209.032C246.261 208.965 247.009 208.89 247.758 208.815H247.801C248.777 208.718 249.754 208.612 250.731 208.5L251.451 209.257L213.532 249.142C212.42 250.312 212.42 252.217 213.532 253.387C214.088 253.972 214.822 254.265 215.55 254.265C216.277 254.265 217.011 253.972 217.567 253.387L257.503 211.38C258.038 210.817 258.337 210.052 258.337 209.257C258.337 208.657 258.166 208.072 257.86 207.585C258.765 207.457 259.663 207.322 260.561 207.187C260.861 207.142 261.153 207.097 261.445 207.052C265.359 206.437 269.209 205.74 272.966 204.982C274.106 204.75 275.24 204.51 276.366 204.27C277.243 204.082 278.12 203.887 278.983 203.692C279.075 203.67 279.175 203.647 279.268 203.625C280.244 203.407 281.207 203.182 282.169 202.95C282.376 205.672 282.476 208.432 282.476 211.215Z" fill="#71C5EE"/>
<path opacity="0.2" d="M282.476 211.215C282.476 211.95 282.469 212.685 282.454 213.412C282.447 213.622 282.447 213.825 282.44 214.027C282.419 214.77 282.397 215.52 282.362 216.255C282.333 216.997 282.29 217.74 282.24 218.475C282.226 218.7 282.212 218.918 282.198 219.143C282.148 219.87 282.084 220.59 282.019 221.303C281.948 222.105 281.87 222.907 281.777 223.702C281.699 224.445 281.606 225.188 281.506 225.923C281.385 226.815 281.257 227.7 281.121 228.577C280.993 229.387 280.857 230.19 280.708 230.992C280.579 231.72 280.444 232.448 280.294 233.168C280.259 233.348 280.223 233.52 280.187 233.692C280.045 234.382 279.895 235.072 279.738 235.755C279.61 236.34 279.467 236.925 279.325 237.503C279.268 237.75 279.204 237.997 279.139 238.237C278.968 238.927 278.79 239.625 278.605 240.307C278.569 240.42 278.541 240.525 278.512 240.63C278.341 241.252 278.163 241.882 277.977 242.497C277.92 242.692 277.863 242.88 277.806 243.067C277.621 243.697 277.421 244.328 277.222 244.95C277.215 244.98 277.2 245.002 277.193 245.032C276.951 245.782 276.701 246.525 276.445 247.267C276.438 247.305 276.423 247.342 276.409 247.38C276.16 248.1 275.896 248.82 275.632 249.532C275.354 250.275 275.069 251.01 274.777 251.745C274.513 252.412 274.242 253.072 273.971 253.732C273.921 253.852 273.871 253.972 273.821 254.085C273.265 255.39 272.681 256.688 272.082 257.963L271.953 258.232C271.633 258.907 271.305 259.567 270.977 260.227C270.955 260.265 270.934 260.302 270.92 260.34C270.57 261.045 270.207 261.735 269.843 262.425C269.836 262.44 269.829 262.455 269.822 262.47C269.487 263.1 269.145 263.73 268.795 264.352C268.738 264.457 268.681 264.563 268.617 264.668C268.275 265.283 267.919 265.89 267.562 266.497C267.284 266.97 267.006 267.442 266.721 267.907C266.507 268.267 266.286 268.62 266.065 268.972C265.751 269.475 265.438 269.962 265.117 270.457C264.696 271.102 264.268 271.747 263.834 272.385C263.434 272.977 263.028 273.562 262.615 274.147C262.543 274.237 262.479 274.335 262.408 274.432C261.994 275.01 261.574 275.588 261.146 276.15C261.146 276.158 261.146 276.157 261.146 276.157C260.697 276.757 260.248 277.342 259.792 277.927C259.236 278.64 258.665 279.352 258.095 280.05C257.674 280.552 257.254 281.055 256.833 281.55C238.54 302.94 212.014 316.395 182.5 316.395C127.287 316.395 82.5242 269.31 82.5242 211.215C82.5242 208.89 82.5955 206.587 82.738 204.3C86.1599 259.132 129.518 302.49 182.5 302.49C212.014 302.49 238.54 289.035 256.833 267.645C257.254 267.15 257.674 266.647 258.095 266.145C258.665 265.447 259.236 264.735 259.792 264.022C260.248 263.437 260.697 262.853 261.146 262.253C261.146 262.253 261.146 262.252 261.146 262.245C261.574 261.682 261.994 261.105 262.408 260.527C262.479 260.43 262.543 260.332 262.615 260.242C263.028 259.657 263.434 259.073 263.834 258.48C264.268 257.843 264.696 257.198 265.117 256.553C265.438 256.058 265.751 255.57 266.065 255.067C266.286 254.715 266.507 254.363 266.721 254.003C267.006 253.538 267.284 253.065 267.562 252.593C267.919 251.985 268.275 251.378 268.617 250.763C268.681 250.658 268.738 250.552 268.795 250.447C269.145 249.825 269.487 249.195 269.822 248.565C269.829 248.55 269.836 248.535 269.843 248.52C270.207 247.83 270.57 247.14 270.92 246.435C270.934 246.397 270.955 246.36 270.977 246.322C271.305 245.662 271.633 245.002 271.953 244.327L272.082 244.057C272.681 242.783 273.265 241.485 273.821 240.18C273.871 240.067 273.921 239.947 273.971 239.827C274.242 239.167 274.513 238.507 274.777 237.84C275.069 237.105 275.354 236.37 275.632 235.628C275.896 234.915 276.16 234.195 276.409 233.475C276.423 233.437 276.438 233.4 276.445 233.362C276.701 232.62 276.951 231.878 277.193 231.128C277.2 231.098 277.215 231.075 277.222 231.045C277.421 230.422 277.621 229.792 277.806 229.162C277.863 228.975 277.92 228.788 277.977 228.593C278.163 227.978 278.341 227.347 278.512 226.725C278.541 226.62 278.569 226.515 278.605 226.402C278.79 225.72 278.968 225.022 279.139 224.332C279.204 224.092 279.268 223.845 279.325 223.598C279.467 223.02 279.61 222.435 279.738 221.85C279.895 221.167 280.045 220.477 280.187 219.787C280.223 219.615 280.259 219.443 280.294 219.263C280.444 218.543 280.579 217.815 280.708 217.088C280.857 216.285 280.993 215.483 281.121 214.673C281.257 213.795 281.385 212.91 281.506 212.018C281.606 211.283 281.699 210.54 281.777 209.798C281.87 209.003 281.948 208.2 282.019 207.397C282.084 206.685 282.148 205.965 282.198 205.237C282.212 205.012 282.226 204.795 282.24 204.57C282.248 204.48 282.255 204.383 282.255 204.293C282.404 206.58 282.476 208.89 282.476 211.215Z" fill="black"/>
<path d="M272.082 257.963C272.681 256.688 273.265 255.39 273.821 254.085C273.265 255.39 272.688 256.688 272.082 257.963Z" fill="#526471"/>
<path d="M250.731 208.5C249.754 208.612 248.777 208.717 247.801 208.815H247.758C247.009 208.89 246.261 208.965 245.505 209.032C244.222 209.145 242.932 209.257 241.641 209.347C240.729 209.415 239.823 209.475 238.911 209.527C237.956 209.587 237 209.64 236.045 209.677C235.282 209.722 234.52 209.752 233.757 209.775C233.343 209.79 232.937 209.805 232.523 209.812C232.481 209.82 232.438 209.82 232.395 209.82C231.611 209.842 230.827 209.857 230.043 209.872C230.035 209.872 230.035 209.872 230.035 209.872C229.052 209.887 228.082 209.895 227.105 209.895C217.774 209.895 208.62 209.175 200.051 207.502C206.125 202.335 216.712 194.722 231.932 188.73L250.731 208.5Z" fill="white"/>
<path d="M282.169 202.95C281.214 203.175 280.244 203.407 279.268 203.625C279.175 203.647 279.075 203.67 278.983 203.692C278.12 203.887 277.243 204.082 276.366 204.27C275.24 204.51 274.106 204.75 272.966 204.982C269.209 205.74 265.359 206.437 261.446 207.052C261.153 207.097 260.861 207.142 260.562 207.187C259.663 207.322 258.765 207.457 257.86 207.585C257.753 207.427 257.632 207.27 257.503 207.135L237.927 186.54C249.077 182.782 262.365 180 277.842 179.482C280.095 186.975 281.57 194.835 282.169 202.95Z" fill="white"/>
<g opacity="0.2">
<path d="M140.962 282.45C148.876 282.45 155.291 275.701 155.291 267.375C155.291 259.049 148.876 252.3 140.962 252.3C133.048 252.3 126.633 259.049 126.633 267.375C126.633 275.701 133.048 282.45 140.962 282.45Z" fill="white"/>
<path d="M159.165 157.612C167.079 157.612 173.494 150.863 173.494 142.537C173.494 134.212 167.079 127.462 159.165 127.462C151.251 127.462 144.836 134.212 144.836 142.537C144.836 150.863 151.251 157.612 159.165 157.612Z" fill="white"/>
<path d="M225.391 261.547C233.305 261.547 239.72 254.798 239.72 246.472C239.72 238.147 233.305 231.397 225.391 231.397C217.477 231.397 211.062 238.147 211.062 246.472C211.062 254.798 217.477 261.547 225.391 261.547Z" fill="white"/>
<path d="M193.899 115.147C201.813 115.147 208.228 108.398 208.228 100.072C208.228 91.7468 201.813 84.9975 193.899 84.9975C185.985 84.9975 179.57 91.7468 179.57 100.072C179.57 108.398 185.985 115.147 193.899 115.147Z" fill="white"/>
<path d="M200.051 282.613C205.078 282.613 209.153 278.326 209.153 273.037C209.153 267.749 205.078 263.462 200.051 263.462C195.025 263.462 190.95 267.749 190.95 273.037C190.95 278.326 195.025 282.613 200.051 282.613Z" fill="white"/>
<path d="M166.287 297.125C168.735 297.125 170.719 295.038 170.719 292.462C170.719 289.887 168.735 287.8 166.287 287.8C163.839 287.8 161.855 289.887 161.855 292.462C161.855 295.038 163.839 297.125 166.287 297.125Z" fill="white"/>
<path d="M217.13 301.788C219.578 301.788 221.562 299.7 221.562 297.125C221.562 294.55 219.578 292.462 217.13 292.462C214.682 292.462 212.698 294.55 212.698 297.125C212.698 299.7 214.682 301.788 217.13 301.788Z" fill="white"/>
<path d="M175.526 268.125C177.974 268.125 179.958 266.037 179.958 263.462C179.958 260.887 177.974 258.799 175.526 258.799C173.078 258.799 171.094 260.887 171.094 263.462C171.094 266.037 173.078 268.125 175.526 268.125Z" fill="white"/>
<path d="M193.906 147.2C196.354 147.2 198.338 145.113 198.338 142.537C198.338 139.962 196.354 137.875 193.906 137.875C191.458 137.875 189.474 139.962 189.474 142.537C189.474 145.113 191.458 147.2 193.906 147.2Z" fill="white"/>
<path d="M166.287 81.8392C168.735 81.8392 170.719 79.7517 170.719 77.1765C170.719 74.6013 168.735 72.5137 166.287 72.5137C163.839 72.5137 161.855 74.6013 161.855 77.1765C161.855 79.7517 163.839 81.8392 166.287 81.8392Z" fill="white"/>
<path d="M166.287 108.343C168.735 108.343 170.719 106.255 170.719 103.68C170.719 101.105 168.735 99.0172 166.287 99.0172C163.839 99.0172 161.855 101.105 161.855 103.68C161.855 106.255 163.839 108.343 166.287 108.343Z" fill="white"/>
<path d="M217.13 151.863C219.578 151.863 221.562 149.775 221.562 147.2C221.562 144.625 219.578 142.537 217.13 142.537C214.682 142.537 212.698 144.625 212.698 147.2C212.698 149.775 214.682 151.863 217.13 151.863Z" fill="white"/>
<path d="M217.13 225.538C219.578 225.538 221.562 223.45 221.562 220.875C221.562 218.3 219.578 216.212 217.13 216.212C214.682 216.212 212.698 218.3 212.698 220.875C212.698 223.45 214.682 225.538 217.13 225.538Z" fill="white"/>
<path d="M256.612 247.276C259.06 247.276 261.044 245.188 261.044 242.613C261.044 240.038 259.06 237.95 256.612 237.95C254.164 237.95 252.18 240.038 252.18 242.613C252.18 245.188 254.164 247.276 256.612 247.276Z" fill="white"/>
<path d="M117.121 242.613C119.569 242.613 121.553 240.525 121.553 237.95C121.553 235.375 119.569 233.287 117.121 233.287C114.673 233.287 112.689 235.375 112.689 237.95C112.689 240.525 114.673 242.613 117.121 242.613Z" fill="white"/>
<path d="M150.063 222.922C155.09 222.922 159.165 218.636 159.165 213.347C159.165 208.059 155.09 203.772 150.063 203.772C145.037 203.772 140.962 208.059 140.962 213.347C140.962 218.636 145.037 222.922 150.063 222.922Z" fill="white"/>
<path d="M179.958 183.4C184.985 183.4 189.06 179.113 189.06 173.825C189.06 168.537 184.985 164.25 179.958 164.25C174.932 164.25 170.857 168.537 170.857 173.825C170.857 179.113 174.932 183.4 179.958 183.4Z" fill="white"/>
<path d="M190.95 237.95C195.976 237.95 200.051 233.663 200.051 228.375C200.051 223.087 195.976 218.8 190.95 218.8C185.923 218.8 181.848 223.087 181.848 228.375C181.848 233.663 185.923 237.95 190.95 237.95Z" fill="white"/>
</g>
<path opacity="0.2" d="M214.708 43.755V52.44H150.299V43.755C151.119 44.01 151.996 44.1375 152.901 44.1375H212.106C213.005 44.1375 213.882 44.01 214.708 43.755Z" fill="black"/>
<path opacity="0.2" d="M298.031 222.825C297.454 230.963 296.113 238.868 294.096 246.473L307.926 254.872C314.442 258.833 316.694 267.675 312.93 274.538L297.881 301.943C294.131 308.798 285.719 311.168 279.204 307.208L265.345 298.793C260.034 304.508 254.181 309.69 247.879 314.22L253.347 330.03C255.921 337.47 252.249 345.773 245.184 348.48L216.911 359.31C209.832 362.01 201.955 358.133 199.381 350.7L193.906 334.89H193.899C190.149 335.273 186.35 335.475 182.507 335.475V316.395C237.72 316.388 282.476 269.31 282.476 211.215C282.476 164.978 254.117 125.715 214.708 111.608V96.465C220.925 98.3475 226.934 100.763 232.673 103.68L242.939 90.795C247.765 84.735 256.441 83.94 262.201 89.0325L285.242 109.373C291.009 114.458 291.765 123.585 286.931 129.645L276.659 142.538C281.086 149.018 284.921 155.97 288.079 163.305L303.813 160.395C311.227 159.03 318.355 164.273 319.66 172.065L324.886 203.243C326.183 211.028 321.2 218.528 313.786 219.908L298.031 222.825Z" fill="url(#paint0_linear_47_124)"/>
<defs>
<linearGradient id="paint0_linear_47_124" x1="182.507" y1="222.923" x2="325.091" y2="222.923" gradientUnits="userSpaceOnUse">
<stop/>
<stop offset="1" stop-color="white" stop-opacity="0"/>
</linearGradient>
</defs>
</svg>
