<svg width="200" height="200" viewBox="0 0 200 200" fill="none" xmlns="http://www.w3.org/2000/svg">
<path d="M150 184.375C156.903 184.375 162.5 178.779 162.5 171.875C162.5 164.972 156.903 159.375 150 159.375C143.097 159.375 137.5 164.972 137.5 171.875C137.5 178.779 143.097 184.375 150 184.375Z" fill="#2C3649"/>
<path d="M175 118.75C178.452 118.75 181.25 115.952 181.25 112.5C181.25 109.049 178.452 106.25 175 106.25C171.548 106.25 168.75 109.049 168.75 112.5C168.75 115.952 171.548 118.75 175 118.75Z" fill="white"/>
<path d="M118.75 131.25H87.5L93.75 118.75H112.5L118.75 131.25Z" fill="white"/>
<path d="M131.25 118.75V90.6253L103.125 118.75H131.25Z" fill="#8AB4D6"/>
<path d="M75 81.2503V103.125L96.875 81.2503H75Z" fill="#8AB4D6"/>
<path d="M87.5 175C87.5 170.856 85.8538 166.882 82.9234 163.952C79.9931 161.022 76.0191 159.375 71.875 159.375C69.2788 159.389 66.7291 160.067 64.4688 161.344C65.52 159.415 66.9816 157.741 68.75 156.438C67.0394 153.421 64.72 150.794 61.9391 148.722C59.1581 146.65 55.9766 145.18 52.5969 144.404C49.2169 143.628 45.7128 143.563 42.3066 144.215C38.9006 144.867 35.6675 146.219 32.8125 148.188C32.3438 148.875 31.8438 149.563 31.4375 150.282C34.6075 150.833 37.5825 152.191 40.0759 154.225C42.5691 156.259 44.4972 158.9 45.6744 161.895C46.8516 164.889 47.2381 168.137 46.7972 171.324C46.3563 174.511 45.1022 177.532 43.1563 180.094C43.5928 178.433 43.7928 176.718 43.75 175C43.7438 171.081 42.5094 167.262 40.2203 164.08C37.9313 160.899 34.7028 158.514 30.9886 157.263C27.2744 156.011 23.2614 155.954 19.5135 157.101C15.7656 158.248 12.4713 160.541 10.0937 163.657C9.30697 166.443 9.17651 169.375 9.71257 172.221C10.2486 175.067 11.4366 177.75 13.1833 180.06C14.9301 182.37 17.1882 184.243 19.7805 185.534C22.3729 186.825 25.229 187.498 28.125 187.5C32.2928 187.492 36.3394 186.096 39.625 183.532C44.1219 186.417 49.4247 187.785 54.7563 187.436C60.0875 187.088 65.1672 185.04 69.25 181.594C71.8575 183.401 74.9528 184.371 78.125 184.375C80.7213 184.362 83.271 183.684 85.5313 182.407C86.8085 180.146 87.4863 177.597 87.5 175Z" fill="#8AB4D6"/>
<path d="M54.6875 56.2503C62.4541 56.2503 68.75 49.9544 68.75 42.1878C68.75 34.4212 62.4541 28.1254 54.6875 28.1254C46.9209 28.1254 40.625 34.4212 40.625 42.1878C40.625 49.9544 46.9209 56.2503 54.6875 56.2503Z" fill="white"/>
<path d="M28.125 103.125C31.5769 103.125 34.375 100.327 34.375 96.8753C34.375 93.4237 31.5769 90.6253 28.125 90.6253C24.6732 90.6253 21.875 93.4237 21.875 96.8753C21.875 100.327 24.6732 103.125 28.125 103.125Z" fill="#2C3649"/>
<path d="M184.375 50.0003C184.375 45.8562 182.729 41.8819 179.798 38.9519C176.868 36.0216 172.894 34.3753 168.75 34.3753C166.154 34.3891 163.604 35.0669 161.344 36.3441C162.395 34.4153 163.857 32.7406 165.625 31.4378C163.914 28.4212 161.595 25.7936 158.814 23.7219C156.033 21.6501 152.852 20.1795 149.472 19.4037C146.092 18.6278 142.588 18.5635 139.182 19.2149C135.776 19.8664 132.543 21.2193 129.688 23.1878C129.219 23.8753 128.719 24.5628 128.313 25.2815C131.483 25.833 134.458 27.191 136.951 29.2248C139.444 31.2587 141.372 33.9 142.549 36.8947C143.727 39.8894 144.113 43.1366 143.672 46.3241C143.231 49.5112 141.977 52.5316 140.031 55.0941C140.468 53.4325 140.668 51.7178 140.625 50.0003C140.619 46.0809 139.384 42.2619 137.095 39.0803C134.806 35.8988 131.578 33.5144 127.864 32.2625C124.149 31.0107 120.136 30.9542 116.388 32.1009C112.641 33.2481 109.346 35.5406 106.969 38.6566C106.182 41.4434 106.052 44.375 106.588 47.2209C107.124 50.0669 108.312 52.75 110.058 55.0597C111.805 57.3697 114.063 59.2434 116.656 60.5344C119.248 61.8253 122.104 62.4981 125 62.5003C129.168 62.4922 133.214 61.0959 136.5 58.5316C140.997 61.4166 146.3 62.785 151.631 62.4362C156.963 62.0878 162.042 60.0403 166.125 56.5941C168.733 58.4006 171.828 59.3706 175 59.3753C177.596 59.3616 180.146 58.6837 182.406 57.4066C183.683 55.1462 184.361 52.5966 184.375 50.0003Z" fill="#8AB4D6"/>
<path d="M78.3125 150C76.1219 145.579 72.8069 141.813 68.7003 139.078C64.5941 136.344 59.8403 134.738 54.9169 134.421C49.9934 134.105 45.0734 135.089 40.6506 137.275C36.2275 139.461 32.4575 142.772 29.7188 146.875H28.125C22.3234 146.875 16.7594 149.18 12.657 153.282C8.55469 157.384 6.25 162.948 6.25 168.75C6.25 174.552 8.55469 180.116 12.657 184.218C16.7594 188.32 22.3234 190.625 28.125 190.625C32.2534 190.639 36.2991 189.468 39.7812 187.25C44.4103 189.744 49.6456 190.89 54.8931 190.559C60.1406 190.227 65.1903 188.432 69.4688 185.375C72.1375 186.779 75.1094 187.509 78.125 187.5C83.0978 187.525 87.8769 185.573 91.4106 182.075C94.9447 178.576 96.9438 173.817 96.9688 168.844C96.9938 163.871 95.0419 159.092 91.5434 155.558C88.0447 152.024 83.2853 150.025 78.3125 150ZM78.125 181.25C75.59 181.247 73.1163 180.473 71.0312 179.031C70.4644 178.637 69.7828 178.442 69.0931 178.475C68.4034 178.509 67.7441 178.771 67.2188 179.219C63.6234 182.169 59.1938 183.919 54.5525 184.221C49.9113 184.524 45.2919 183.365 41.3438 180.906C40.8144 180.529 40.1809 180.327 39.5312 180.327C38.8816 180.327 38.2481 180.529 37.7188 180.906C35.7669 182.482 33.4641 183.565 31.0052 184.063C28.5464 184.561 26.0039 184.459 23.5926 183.767C21.1813 183.075 18.9721 181.812 17.1518 180.086C15.3316 178.359 13.9538 176.22 13.1349 173.849C12.316 171.477 12.0802 168.944 12.4472 166.462C12.8143 163.981 13.7736 161.624 15.2439 159.591C16.7142 157.558 18.6523 155.91 20.8944 154.784C23.1364 153.659 25.6166 153.09 28.125 153.125C29.0157 153.137 29.904 153.22 30.7813 153.375C31.3984 153.456 32.0256 153.35 32.5825 153.071C33.1394 152.793 33.6003 152.355 33.9063 151.812C35.9309 148.209 38.935 145.254 42.5706 143.287C46.2059 141.322 50.3241 140.425 54.4478 140.703C58.5716 140.981 62.5319 142.422 65.8706 144.858C69.2094 147.294 71.7897 150.627 73.3125 154.469C73.5694 155.108 74.0303 155.645 74.6238 155.996C75.2172 156.346 75.9097 156.49 76.5938 156.406H77.1563L78.125 156.25C81.4403 156.25 84.6197 157.567 86.9638 159.911C89.3081 162.255 90.625 165.435 90.625 168.75C90.625 172.065 89.3081 175.245 86.9638 177.589C84.6197 179.933 81.4403 181.25 78.125 181.25Z" fill="#526471"/>
<path d="M175.188 25.0001C172.997 20.5795 169.682 16.8129 165.575 14.0784C161.469 11.3439 156.715 9.73778 151.792 9.42116C146.868 9.10453 141.948 10.0886 137.526 12.2746C133.103 14.4605 129.332 17.7715 126.594 21.8751H125C119.198 21.8751 113.634 24.1797 109.532 28.2821C105.43 32.3844 103.125 37.9484 103.125 43.75C103.125 49.5516 105.43 55.1156 109.532 59.2181C113.634 63.3203 119.198 65.625 125 65.625C129.128 65.6391 133.174 64.4678 136.656 62.25C141.285 64.7438 146.521 65.89 151.768 65.5587C157.016 65.2272 162.065 63.4316 166.344 60.375C169.012 61.7794 171.984 62.5091 175 62.5C179.973 62.525 184.752 60.5734 188.286 57.0747C191.82 53.5759 193.819 48.8166 193.844 43.8437C193.869 38.8709 191.917 34.0919 188.418 30.5581C184.92 27.0242 180.16 25.0249 175.188 25.0001ZM175 56.25C172.465 56.2469 169.991 55.4731 167.906 54.0313C167.339 53.6369 166.658 53.4416 165.968 53.4753C165.278 53.5094 164.619 53.7706 164.094 54.2187C160.493 57.1719 156.058 58.9228 151.412 59.2253C146.765 59.5281 142.141 58.3672 138.188 55.9062C137.684 55.5816 137.099 55.4078 136.5 55.4062C135.81 55.4084 135.139 55.6394 134.594 56.0625C132.632 57.5956 130.332 58.6375 127.885 59.1016C125.439 59.5653 122.917 59.4378 120.53 58.7297C118.143 58.0216 115.96 56.7531 114.162 55.0303C112.364 53.3075 111.005 51.1797 110.196 48.8247C109.387 46.4697 109.153 43.9556 109.513 41.4919C109.873 39.0281 110.816 36.6859 112.265 34.6606C113.713 32.6353 115.625 30.9856 117.84 29.8487C120.055 28.7119 122.51 28.1209 125 28.1251C125.891 28.1379 126.779 28.2215 127.656 28.3751C128.273 28.4555 128.901 28.3497 129.457 28.0713C130.014 27.793 130.475 27.3546 130.781 26.8126C132.806 23.2094 135.81 20.2536 139.446 18.2875C143.081 16.3214 147.199 15.4254 151.323 15.7034C155.447 15.9814 159.407 17.4219 162.746 19.8581C166.084 22.2943 168.665 25.6266 170.187 29.4688C170.437 30.0806 170.873 30.5977 171.435 30.9458C171.996 31.2941 172.654 31.455 173.312 31.4063H173.875L175 31.25C178.315 31.25 181.495 32.5672 183.839 34.9113C186.183 37.2553 187.5 40.435 187.5 43.75C187.5 47.0653 186.183 50.2447 183.839 52.5887C181.495 54.9331 178.315 56.25 175 56.25Z" fill="#526471"/>
<path d="M150 156.25C146.91 156.25 143.889 157.166 141.319 158.883C138.75 160.6 136.747 163.041 135.564 165.896C134.382 168.751 134.072 171.892 134.675 174.923C135.278 177.954 136.766 180.738 138.952 182.923C141.137 185.109 143.921 186.597 146.952 187.2C149.983 187.803 153.124 187.493 155.979 186.311C158.835 185.128 161.275 183.125 162.992 180.556C164.709 177.986 165.625 174.965 165.625 171.875C165.625 167.731 163.979 163.757 161.048 160.827C158.118 157.896 154.144 156.25 150 156.25ZM150 181.25C148.146 181.25 146.333 180.7 144.792 179.67C143.25 178.64 142.048 177.176 141.339 175.462C140.629 173.75 140.443 171.865 140.805 170.046C141.167 168.227 142.06 166.557 143.371 165.246C144.682 163.935 146.353 163.042 148.171 162.68C149.99 162.318 151.875 162.504 153.588 163.214C155.301 163.923 156.765 165.125 157.795 166.667C158.825 168.208 159.375 170.021 159.375 171.875C159.375 174.361 158.387 176.746 156.629 178.504C154.871 180.262 152.487 181.25 150 181.25Z" fill="#526471"/>
<path d="M54.6875 59.375C58.0869 59.375 61.41 58.3669 64.2362 56.4784C67.0628 54.5897 69.2659 51.9056 70.5666 48.765C71.8675 45.6244 72.2078 42.1684 71.5447 38.8344C70.8816 35.5003 69.2447 32.4378 66.8409 30.0341C64.4372 27.6304 61.3747 25.9934 58.0406 25.3303C54.7066 24.6671 51.2506 25.0074 48.11 26.3083C44.9694 27.6092 42.2853 29.8122 40.3966 32.6387C38.5081 35.465 37.5 38.7881 37.5 42.1875C37.5081 46.7434 39.3219 51.1103 42.5431 54.3319C45.7647 57.5531 50.1316 59.3669 54.6875 59.375ZM54.6875 31.25C56.8506 31.25 58.9653 31.8916 60.7641 33.0934C62.5628 34.295 63.9647 36.0034 64.7925 38.0019C65.6203 40.0006 65.8369 42.1997 65.4147 44.3212C64.9928 46.4431 63.9512 48.3919 62.4216 49.9216C60.8919 51.4513 58.9428 52.4928 56.8213 52.915C54.6997 53.3369 52.5003 53.1203 50.5019 52.2925C48.5034 51.4647 46.795 50.0628 45.5934 48.2641C44.3916 46.4653 43.75 44.3506 43.75 42.1875C43.75 39.2866 44.9022 36.5047 46.9534 34.4534C49.0047 32.4025 51.7866 31.25 54.6875 31.25Z" fill="#526471"/>
<path d="M150 93.75C150.829 93.75 151.624 93.4206 152.21 92.8347C152.796 92.2487 153.125 91.4538 153.125 90.625V78.125C153.125 77.2963 152.796 76.5013 152.21 75.9153C151.624 75.3294 150.829 75 150 75C149.171 75 148.376 75.3294 147.79 75.9153C147.204 76.5013 146.875 77.2963 146.875 78.125V90.625C146.875 91.4538 147.204 92.2487 147.79 92.8347C148.376 93.4206 149.171 93.75 150 93.75Z" fill="#526471"/>
<path d="M146.875 118.75C146.875 119.579 147.204 120.374 147.79 120.96C148.376 121.546 149.171 121.875 150 121.875C150.829 121.875 151.624 121.546 152.21 120.96C152.796 120.374 153.125 119.579 153.125 118.75V106.25C153.125 105.421 152.796 104.626 152.21 104.04C151.624 103.454 150.829 103.125 150 103.125C149.171 103.125 148.376 103.454 147.79 104.04C147.204 104.626 146.875 105.421 146.875 106.25V118.75Z" fill="#526471"/>
<path d="M146.875 146.875C146.875 147.704 147.204 148.499 147.79 149.085C148.376 149.671 149.171 150 150 150C150.829 150 151.624 149.671 152.21 149.085C152.796 148.499 153.125 147.704 153.125 146.875V134.375C153.125 133.546 152.796 132.751 152.21 132.165C151.624 131.579 150.829 131.25 150 131.25C149.171 131.25 148.376 131.579 147.79 132.165C147.204 132.751 146.875 133.546 146.875 134.375V146.875Z" fill="#526471"/>
<path d="M56.25 68.75C56.25 67.9213 55.9206 67.1263 55.3347 66.5403C54.7487 65.9544 53.9537 65.625 53.125 65.625C52.2963 65.625 51.5013 65.9544 50.9153 66.5403C50.3294 67.1263 50 67.9213 50 68.75V81.25C50 82.0788 50.3294 82.8737 50.9153 83.4597C51.5013 84.0456 52.2963 84.375 53.125 84.375C53.9537 84.375 54.7487 84.0456 55.3347 83.4597C55.9206 82.8737 56.25 82.0788 56.25 81.25V68.75Z" fill="#526471"/>
<path d="M56.25 96.875C56.25 96.0463 55.9206 95.2513 55.3347 94.6653C54.7487 94.0794 53.9537 93.75 53.125 93.75C52.2963 93.75 51.5013 94.0794 50.9153 94.6653C50.3294 95.2513 50 96.0463 50 96.875V103.125C50 103.954 50.3294 104.749 50.9153 105.335C51.5013 105.921 52.2963 106.25 53.125 106.25C53.9537 106.25 54.7487 105.921 55.3347 105.335C55.9206 104.749 56.25 103.954 56.25 103.125V96.875Z" fill="#526471"/>
<path d="M53.125 115.625C52.2963 115.625 51.5013 115.954 50.9153 116.54C50.3294 117.126 50 117.921 50 118.75V125C50 125.829 50.3294 126.624 50.9153 127.21C51.5013 127.796 52.2963 128.125 53.125 128.125C53.9537 128.125 54.7487 127.796 55.3347 127.21C55.9206 126.624 56.25 125.829 56.25 125V118.75C56.25 117.921 55.9206 117.126 55.3347 116.54C54.7487 115.954 53.9537 115.625 53.125 115.625Z" fill="#526471"/>
<path d="M81.25 43.75H93.75C94.5788 43.75 95.3737 43.4206 95.9597 42.8347C96.5456 42.2487 96.875 41.4537 96.875 40.625C96.875 39.7963 96.5456 39.0013 95.9597 38.4153C95.3737 37.8294 94.5788 37.5 93.75 37.5H81.25C80.4213 37.5 79.6263 37.8294 79.0403 38.4153C78.4544 39.0013 78.125 39.7963 78.125 40.625C78.125 41.4537 78.4544 42.2487 79.0403 42.8347C79.6263 43.4206 80.4213 43.75 81.25 43.75Z" fill="#526471"/>
<path d="M112.5 168.75H106.25C105.421 168.75 104.626 169.079 104.04 169.665C103.454 170.251 103.125 171.046 103.125 171.875C103.125 172.704 103.454 173.499 104.04 174.085C104.626 174.671 105.421 175 106.25 175H112.5C113.329 175 114.124 174.671 114.71 174.085C115.296 173.499 115.625 172.704 115.625 171.875C115.625 171.046 115.296 170.251 114.71 169.665C114.124 169.079 113.329 168.75 112.5 168.75Z" fill="#526471"/>
<path d="M125 175C126.726 175 128.125 173.601 128.125 171.875C128.125 170.149 126.726 168.75 125 168.75C123.274 168.75 121.875 170.149 121.875 171.875C121.875 173.601 123.274 175 125 175Z" fill="#526471"/>
<path d="M9.375 43.75H15.625C16.4538 43.75 17.2487 43.4206 17.8347 42.8347C18.4207 42.2487 18.75 41.4537 18.75 40.625C18.75 39.7963 18.4207 39.0013 17.8347 38.4153C17.2487 37.8294 16.4538 37.5 15.625 37.5H9.375C8.54619 37.5 7.75134 37.8294 7.16528 38.4153C6.57925 39.0013 6.25 39.7963 6.25 40.625C6.25 41.4537 6.57925 42.2487 7.16528 42.8347C7.75134 43.4206 8.54619 43.75 9.375 43.75Z" fill="#526471"/>
<path d="M28.125 43.75C29.8509 43.75 31.25 42.3509 31.25 40.625C31.25 38.8991 29.8509 37.5 28.125 37.5C26.3991 37.5 25 38.8991 25 40.625C25 42.3509 26.3991 43.75 28.125 43.75Z" fill="#526471"/>
<path d="M175 103.125C173.146 103.125 171.333 103.675 169.792 104.705C168.25 105.735 167.048 107.199 166.339 108.913C165.629 110.625 165.443 112.51 165.805 114.329C166.167 116.148 167.06 117.818 168.371 119.129C169.682 120.44 171.353 121.333 173.171 121.695C174.99 122.057 176.875 121.871 178.588 121.161C180.301 120.452 181.765 119.25 182.795 117.708C183.825 116.167 184.375 114.354 184.375 112.5C184.375 110.014 183.387 107.629 181.629 105.871C179.871 104.113 177.487 103.125 175 103.125ZM175 115.625C174.382 115.625 173.778 115.442 173.264 115.098C172.75 114.755 172.349 114.267 172.113 113.696C171.876 113.125 171.814 112.497 171.935 111.89C172.056 111.284 172.353 110.727 172.79 110.29C173.227 109.853 173.784 109.556 174.39 109.435C174.997 109.314 175.625 109.376 176.196 109.613C176.767 109.849 177.255 110.25 177.598 110.764C177.942 111.278 178.125 111.882 178.125 112.5C178.125 113.329 177.796 114.124 177.21 114.71C176.624 115.296 175.829 115.625 175 115.625Z" fill="#526471"/>
<path d="M178.125 81.25V71.875C178.125 71.0463 177.796 70.2513 177.21 69.6653C176.624 69.0794 175.829 68.75 175 68.75C174.171 68.75 173.376 69.0794 172.79 69.6653C172.204 70.2513 171.875 71.0463 171.875 71.875V81.25C171.875 82.0787 172.204 82.8737 172.79 83.4597C173.376 84.0456 174.171 84.375 175 84.375C175.829 84.375 176.624 84.0456 177.21 83.4597C177.796 82.8737 178.125 82.0787 178.125 81.25Z" fill="#526471"/>
<path d="M175 96.875C176.726 96.875 178.125 95.4759 178.125 93.75C178.125 92.0241 176.726 90.625 175 90.625C173.274 90.625 171.875 92.0241 171.875 93.75C171.875 95.4759 173.274 96.875 175 96.875Z" fill="#526471"/>
<path d="M28.125 106.25C29.9792 106.25 31.7919 105.7 33.3334 104.67C34.8753 103.64 36.0769 102.176 36.7863 100.463C37.4959 98.7497 37.6816 96.8647 37.32 95.0459C36.9581 93.2275 36.0653 91.5569 34.7541 90.2459C33.4431 88.9347 31.7725 88.0419 29.954 87.68C28.1354 87.3184 26.2504 87.5041 24.5373 88.2138C22.8243 88.9231 21.3601 90.1247 20.33 91.6666C19.2998 93.2081 18.75 95.0209 18.75 96.875C18.75 99.3616 19.7377 101.746 21.4959 103.504C23.254 105.262 25.6386 106.25 28.125 106.25ZM28.125 93.75C28.7431 93.75 29.3472 93.9331 29.8612 94.2766C30.3751 94.62 30.7756 95.1081 31.0121 95.6791C31.2487 96.25 31.3106 96.8785 31.19 97.4847C31.0694 98.091 30.7718 98.6478 30.3347 99.0847C29.8977 99.5219 29.3408 99.8194 28.7347 99.94C28.1285 100.061 27.5001 99.9988 26.9291 99.7622C26.3581 99.5256 25.87 99.125 25.5267 98.6113C25.1833 98.0972 25 97.4931 25 96.875C25 96.0463 25.3292 95.2513 25.9153 94.6653C26.5013 94.0794 27.2962 93.75 28.125 93.75Z" fill="#526471"/>
<path d="M25 118.75V131.25C25 132.079 25.3292 132.874 25.9153 133.46C26.5013 134.046 27.2962 134.375 28.125 134.375C28.9538 134.375 29.7487 134.046 30.3347 133.46C30.9208 132.874 31.25 132.079 31.25 131.25V118.75C31.25 117.921 30.9208 117.126 30.3347 116.54C29.7487 115.954 28.9538 115.625 28.125 115.625C27.2962 115.625 26.5013 115.954 25.9153 116.54C25.3292 117.126 25 117.921 25 118.75Z" fill="#526471"/>
<path d="M38.125 63.75L28.75 76.25C28.2527 76.9131 28.0392 77.7466 28.1564 78.5669C28.2736 79.3875 28.712 80.1278 29.375 80.625C29.9159 81.0306 30.5739 81.25 31.25 81.25C31.735 81.25 32.2138 81.1372 32.6475 80.92C33.0816 80.7031 33.4591 80.3881 33.75 80L43.125 67.5C43.6222 66.8369 43.8359 66.0034 43.7188 65.1831C43.6013 64.3625 43.1631 63.6222 42.5 63.125C41.8369 62.6278 41.0034 62.4141 40.1831 62.5316C39.3625 62.6487 38.6222 63.0869 38.125 63.75Z" fill="#526471"/>
<path d="M134.375 81.25C134.375 80.4213 134.046 79.6263 133.46 79.0403C132.874 78.4544 132.079 78.125 131.25 78.125H75C74.1713 78.125 73.3763 78.4544 72.7903 79.0403C72.2044 79.6263 71.875 80.4213 71.875 81.25V118.75C71.875 119.579 72.2044 120.374 72.7903 120.96C73.3763 121.546 74.1713 121.875 75 121.875H88.6875L85.5625 128.125H81.25C80.4213 128.125 79.6263 128.454 79.0403 129.04C78.4544 129.626 78.125 130.421 78.125 131.25C78.125 132.079 78.4544 132.874 79.0403 133.46C79.6263 134.046 80.4213 134.375 81.25 134.375H125C125.829 134.375 126.624 134.046 127.21 133.46C127.796 132.874 128.125 132.079 128.125 131.25C128.125 130.421 127.796 129.626 127.21 129.04C126.624 128.454 125.829 128.125 125 128.125H120.687L117.562 121.875H131.25C132.079 121.875 132.874 121.546 133.46 120.96C134.046 120.374 134.375 119.579 134.375 118.75V81.25ZM113.688 128.125H92.5625L95.6875 121.875H110.563L113.688 128.125ZM128.125 115.625H110.656L120.969 105.344C121.26 105.052 121.491 104.707 121.649 104.326C121.807 103.945 121.888 103.537 121.888 103.125C121.888 102.713 121.807 102.305 121.649 101.924C121.491 101.543 121.26 101.198 120.969 100.906C120.677 100.615 120.332 100.384 119.951 100.226C119.57 100.068 119.162 99.9872 118.75 99.9872C118.338 99.9872 117.93 100.068 117.549 100.226C117.168 100.384 116.823 100.615 116.531 100.906L101.844 115.625H78.125V84.375H89.3438L85.2813 88.4063C84.9884 88.6969 84.7559 89.0425 84.5972 89.4231C84.4384 89.8041 84.3569 90.2125 84.3569 90.625C84.3569 91.0375 84.4384 91.4459 84.5972 91.8269C84.7559 92.2075 84.9884 92.5531 85.2813 92.8437C85.5719 93.1366 85.9175 93.3691 86.2981 93.5278C86.6791 93.6866 87.0875 93.7681 87.5 93.7681C87.9125 93.7681 88.3209 93.6866 88.7019 93.5278C89.0825 93.3691 89.4281 93.1366 89.7187 92.8437L98.1562 84.375H128.125V115.625Z" fill="#526471"/>
</svg>
