<svg width="306" height="324" viewBox="0 0 306 324" fill="none" xmlns="http://www.w3.org/2000/svg">
<path d="M10.92 28.224C8.97867 28.224 7.32667 27.8227 5.964 27.02C4.62 26.1987 3.59333 25.032 2.884 23.52C2.17467 22.008 1.82 20.2067 1.82 18.116C1.82 16.0253 2.17467 14.2333 2.884 12.74C3.59333 11.228 4.62 10.0707 5.964 9.268C7.32667 8.44667 8.97867 8.036 10.92 8.036C12.3387 8.036 13.5987 8.26 14.7 8.708C15.8013 9.13733 16.7627 9.78133 17.584 10.64L16.856 12.04C15.9413 11.2 15.0267 10.5933 14.112 10.22C13.1973 9.828 12.1333 9.632 10.92 9.632C8.54933 9.632 6.748 10.3787 5.516 11.872C4.284 13.3467 3.668 15.428 3.668 18.116C3.668 20.804 4.284 22.8947 5.516 24.388C6.748 25.8813 8.54933 26.628 10.92 26.628C12.1333 26.628 13.1973 26.4413 14.112 26.068C15.0267 25.676 15.9413 25.06 16.856 24.22L17.584 25.62C16.7627 26.4787 15.792 27.132 14.672 27.58C13.5707 28.0093 12.32 28.224 10.92 28.224ZM26.0243 28.224C24.6989 28.224 23.5509 27.9347 22.5803 27.356C21.6283 26.7773 20.8909 25.9467 20.3683 24.864C19.8456 23.7813 19.5843 22.484 19.5843 20.972C19.5843 19.4787 19.8456 18.1907 20.3683 17.108C20.8909 16.0253 21.6283 15.1947 22.5803 14.616C23.5509 14.0187 24.6989 13.72 26.0243 13.72C27.3309 13.72 28.4603 14.0187 29.4123 14.616C30.3829 15.1947 31.1296 16.0253 31.6523 17.108C32.1936 18.1907 32.4643 19.4787 32.4643 20.972C32.4643 22.484 32.1936 23.7813 31.6523 24.864C31.1296 25.9467 30.3829 26.7773 29.4123 27.356C28.4603 27.9347 27.3309 28.224 26.0243 28.224ZM26.0243 26.768C27.4429 26.768 28.5816 26.2733 29.4403 25.284C30.2989 24.2947 30.7283 22.8573 30.7283 20.972C30.7283 19.0867 30.2989 17.6493 29.4403 16.66C28.5816 15.6707 27.4429 15.176 26.0243 15.176C24.5869 15.176 23.4389 15.6707 22.5803 16.66C21.7403 17.6493 21.3203 19.0867 21.3203 20.972C21.3203 22.8573 21.7403 24.2947 22.5803 25.284C23.4389 26.2733 24.5869 26.768 26.0243 26.768ZM36.2029 28V17.108C36.2029 16.604 36.1842 16.0907 36.1469 15.568C36.1096 15.0453 36.0536 14.5133 35.9789 13.972H37.6589L37.9109 17.192H37.5749C37.9856 16.072 38.6482 15.2133 39.5629 14.616C40.4776 14.0187 41.5416 13.72 42.7549 13.72C44.4162 13.72 45.6669 14.1587 46.5069 15.036C47.3656 15.9133 47.7949 17.2853 47.7949 19.152V28H46.0869V19.292C46.0869 17.8547 45.7976 16.8187 45.2189 16.184C44.6402 15.5307 43.7442 15.204 42.5309 15.204C41.1122 15.204 39.9829 15.6333 39.1429 16.492C38.3216 17.3507 37.9109 18.508 37.9109 19.964V28H36.2029ZM56.9264 28.224C55.6757 28.224 54.7144 27.8507 54.0424 27.104C53.3891 26.3573 53.0624 25.2093 53.0624 23.66V15.344H50.2624V13.972H53.0624V10.052L54.7704 9.492V13.972H58.9144V15.344H54.7704V23.408C54.7704 24.584 54.9571 25.4333 55.3304 25.956C55.7037 26.4787 56.3011 26.74 57.1224 26.74C57.4957 26.74 57.8224 26.7027 58.1024 26.628C58.4011 26.5533 58.6531 26.4693 58.8584 26.376V27.888C58.6344 27.9813 58.3451 28.056 57.9904 28.112C57.6357 28.1867 57.2811 28.224 56.9264 28.224ZM67.144 28.224C65.8747 28.224 64.7733 27.9347 63.84 27.356C62.9067 26.7773 62.188 25.9467 61.684 24.864C61.18 23.7813 60.928 22.484 60.928 20.972C60.928 19.46 61.18 18.172 61.684 17.108C62.2067 16.0253 62.9347 15.1947 63.868 14.616C64.8013 14.0187 65.8933 13.72 67.144 13.72C68.432 13.72 69.5427 14.056 70.476 14.728C71.428 15.4 72.0533 16.3147 72.352 17.472H72.016L72.296 13.972H73.948C73.892 14.5133 73.836 15.0453 73.78 15.568C73.7427 16.0907 73.724 16.604 73.724 17.108V28H72.016V24.5H72.324C72.0253 25.6573 71.4 26.572 70.448 27.244C69.5147 27.8973 68.4133 28.224 67.144 28.224ZM67.368 26.768C68.8053 26.768 69.944 26.2733 70.784 25.284C71.624 24.2947 72.044 22.8573 72.044 20.972C72.044 19.0867 71.624 17.6493 70.784 16.66C69.944 15.6707 68.8053 15.176 67.368 15.176C65.9307 15.176 64.7827 15.6707 63.924 16.66C63.084 17.6493 62.664 19.0867 62.664 20.972C62.664 22.8573 63.084 24.2947 63.924 25.284C64.7827 26.2733 65.9307 26.768 67.368 26.768ZM84.023 28.224C82.6976 28.224 81.5403 27.9347 80.551 27.356C79.5616 26.7587 78.7963 25.9093 78.255 24.808C77.7323 23.7067 77.471 22.4 77.471 20.888C77.471 19.376 77.7416 18.088 78.283 17.024C78.8243 15.9413 79.5803 15.12 80.551 14.56C81.5403 14 82.6976 13.72 84.023 13.72C84.919 13.72 85.7776 13.888 86.599 14.224C87.439 14.56 88.1296 15.0267 88.671 15.624L87.971 16.884C87.3923 16.3053 86.767 15.8853 86.095 15.624C85.423 15.344 84.751 15.204 84.079 15.204C82.5483 15.204 81.3536 15.6893 80.495 16.66C79.6363 17.6307 79.207 19.0493 79.207 20.916C79.207 22.7827 79.6363 24.2293 80.495 25.256C81.3536 26.264 82.5483 26.768 84.079 26.768C84.7136 26.768 85.367 26.6373 86.039 26.376C86.7296 26.1147 87.3736 25.6853 87.971 25.088L88.671 26.348C88.111 26.9453 87.4016 27.412 86.543 27.748C85.703 28.0653 84.863 28.224 84.023 28.224ZM96.6569 28.224C95.4062 28.224 94.4449 27.8507 93.7729 27.104C93.1195 26.3573 92.7929 25.2093 92.7929 23.66V15.344H89.9929V13.972H92.7929V10.052L94.5009 9.492V13.972H98.6449V15.344H94.5009V23.408C94.5009 24.584 94.6875 25.4333 95.0609 25.956C95.4342 26.4787 96.0315 26.74 96.8529 26.74C97.2262 26.74 97.5529 26.7027 97.8329 26.628C98.1315 26.5533 98.3835 26.4693 98.5889 26.376V27.888C98.3649 27.9813 98.0755 28.056 97.7209 28.112C97.3662 28.1867 97.0115 28.224 96.6569 28.224ZM2.656 68V45.44H10.464C13.0027 45.44 15.1467 45.8773 16.896 46.752C18.6667 47.6267 20 48.9067 20.896 50.592C21.8133 52.256 22.272 54.2933 22.272 56.704C22.272 59.0933 21.8133 61.1307 20.896 62.816C20 64.5013 18.6667 65.792 16.896 66.688C15.1467 67.5627 13.0027 68 10.464 68H2.656ZM5.984 65.216H10.272C13.1733 65.216 15.328 64.512 16.736 63.104C18.1653 61.696 18.88 59.5627 18.88 56.704C18.88 53.8453 18.1653 51.7227 16.736 50.336C15.328 48.928 13.1733 48.224 10.272 48.224H5.984V65.216ZM26.493 68V51.872H29.725V68H26.493ZM26.237 48.512V45.152H29.981V48.512H26.237ZM34.3978 68V55.872C34.3978 55.2107 34.3764 54.5493 34.3338 53.888C34.3124 53.2053 34.2698 52.5333 34.2057 51.872H37.3418L37.6938 56.032H37.1818C37.3951 55.0293 37.7578 54.1973 38.2698 53.536C38.7818 52.8747 39.4004 52.384 40.1258 52.064C40.8724 51.744 41.6511 51.584 42.4618 51.584C42.8031 51.584 43.0911 51.6053 43.3258 51.648C43.5604 51.6693 43.7951 51.712 44.0298 51.776L43.9978 54.656C43.6351 54.5067 43.3151 54.4213 43.0378 54.4C42.7818 54.3573 42.4618 54.336 42.0778 54.336C41.1391 54.336 40.3391 54.5493 39.6778 54.976C39.0164 55.3813 38.5151 55.936 38.1738 56.64C37.8324 57.344 37.6618 58.1013 37.6618 58.912V68H34.3978ZM53.7615 68.288C51.1588 68.288 49.1108 67.552 47.6175 66.08C46.1242 64.608 45.3775 62.5707 45.3775 59.968C45.3775 58.2827 45.6975 56.8107 46.3375 55.552C46.9988 54.2933 47.9055 53.3227 49.0575 52.64C50.2308 51.936 51.5855 51.584 53.1215 51.584C54.6362 51.584 55.9055 51.904 56.9295 52.544C57.9535 53.184 58.7322 54.0907 59.2655 55.264C59.7988 56.416 60.0655 57.7813 60.0655 59.36V60.384H47.9055V58.528H57.8575L57.3135 58.944C57.3135 57.344 56.9508 56.1067 56.2255 55.232C55.5215 54.336 54.4975 53.888 53.1535 53.888C51.6602 53.888 50.5082 54.4107 49.6975 55.456C48.8868 56.48 48.4815 57.8987 48.4815 59.712V60.032C48.4815 61.9307 48.9402 63.36 49.8575 64.32C50.7962 65.28 52.1188 65.76 53.8255 65.76C54.7642 65.76 55.6388 65.632 56.4495 65.376C57.2815 65.0987 58.0708 64.6507 58.8175 64.032L59.8735 66.24C59.1268 66.9013 58.2202 67.4133 57.1535 67.776C56.0868 68.1173 54.9562 68.288 53.7615 68.288ZM70.8463 68.288C69.2249 68.288 67.8063 67.9573 66.5903 67.296C65.3956 66.6133 64.4676 65.6427 63.8063 64.384C63.1663 63.104 62.8463 61.5893 62.8463 59.84C62.8463 58.112 63.1769 56.6293 63.8383 55.392C64.4996 54.1547 65.4276 53.216 66.6223 52.576C67.8169 51.9147 69.2249 51.584 70.8463 51.584C71.8916 51.584 72.9049 51.7653 73.8863 52.128C74.8676 52.4693 75.6783 52.96 76.3183 53.6L75.2623 55.872C74.6649 55.296 73.9929 54.8693 73.2463 54.592C72.4996 54.2933 71.7743 54.144 71.0703 54.144C69.5343 54.144 68.3289 54.6347 67.4543 55.616C66.5796 56.5973 66.1423 58.016 66.1423 59.872C66.1423 61.7493 66.5796 63.1893 67.4543 64.192C68.3289 65.1947 69.5343 65.696 71.0703 65.696C71.7529 65.696 72.4676 65.568 73.2143 65.312C73.9609 65.0347 74.6436 64.5973 75.2623 64L76.3183 66.272C75.6569 66.912 74.8249 67.4133 73.8223 67.776C72.8409 68.1173 71.8489 68.288 70.8463 68.288ZM86.0463 68.288C84.2969 68.288 82.9743 67.8187 82.0783 66.88C81.1823 65.92 80.7343 64.4907 80.7343 62.592V54.368H77.5983V51.872H80.7343V47.616L83.9663 46.752V51.872H88.4463V54.368H83.9663V62.304C83.9663 63.4987 84.1796 64.352 84.6063 64.864C85.0329 65.376 85.6516 65.632 86.4623 65.632C86.8676 65.632 87.2196 65.6 87.5183 65.536C87.8383 65.4507 88.1263 65.3547 88.3823 65.248V67.872C88.0623 68 87.6889 68.096 87.2623 68.16C86.8356 68.2453 86.4303 68.288 86.0463 68.288ZM91.3993 68V44.448H94.6313V68H91.3993ZM98.888 75.264L98.12 72.64C99.1227 72.4267 99.9547 72.1707 100.616 71.872C101.299 71.5733 101.864 71.1787 102.312 70.688C102.76 70.2187 103.144 69.6107 103.464 68.864L104.264 66.976L104.2 68.288L97.192 51.872H100.648L106.088 65.312H105.224L110.664 51.872H113.992L106.6 69.152C106.131 70.2187 105.629 71.1147 105.096 71.84C104.563 72.5653 103.987 73.152 103.368 73.6C102.749 74.048 102.067 74.4 101.32 74.656C100.573 74.912 99.7627 75.1147 98.888 75.264Z" fill="black"/>
<path d="M28 155.596C28 156.028 27.9039 156.472 27.6995 156.904C27.4952 157.336 27.2308 157.744 26.8823 158.128C26.2934 158.776 25.6445 159.244 24.9114 159.544C24.1903 159.844 23.4091 160 22.5679 160C21.342 160 20.032 159.712 18.65 159.124C17.2679 158.536 15.8858 157.744 14.5158 156.748C13.1337 155.74 11.8237 154.624 10.5739 153.388C9.336 152.14 8.21833 150.832 7.22083 149.464C6.23535 148.096 5.44216 146.728 4.8653 145.372C4.28843 144.004 4 142.696 4 141.448C4 140.632 4.14422 139.852 4.43265 139.132C4.72108 138.4 5.17777 137.728 5.81472 137.128C6.58388 136.372 7.42514 136 8.31447 136C8.65098 136 8.98748 136.072 9.28793 136.216C9.6004 136.36 9.87682 136.576 10.0931 136.888L12.8813 140.812C13.0976 141.112 13.2539 141.388 13.362 141.652C13.4702 141.904 13.5303 142.156 13.5303 142.384C13.5303 142.672 13.4462 142.96 13.2779 143.236C13.1217 143.512 12.8933 143.8 12.6049 144.088L11.6915 145.036C11.5593 145.168 11.4992 145.324 11.4992 145.516C11.4992 145.612 11.5113 145.696 11.5353 145.792C11.5714 145.888 11.6074 145.96 11.6314 146.032C11.8478 146.428 12.2203 146.944 12.7491 147.568C13.2899 148.192 13.8668 148.828 14.4917 149.464C15.1407 150.1 15.7656 150.688 16.4026 151.228C17.0275 151.756 17.5443 152.116 17.9529 152.332C18.013 152.356 18.0851 152.392 18.1693 152.428C18.2654 152.464 18.3615 152.476 18.4697 152.476C18.674 152.476 18.8302 152.404 18.9624 152.272L19.8758 151.372C20.1763 151.072 20.4647 150.844 20.7411 150.7C21.0175 150.532 21.2939 150.448 21.5944 150.448C21.8227 150.448 22.0631 150.496 22.3275 150.604C22.5919 150.712 22.8683 150.868 23.1688 151.072L27.1467 153.892C27.4592 154.108 27.6755 154.36 27.8077 154.66C27.9279 154.96 28 155.26 28 155.596Z" stroke="#89B3D4" stroke-width="2" stroke-miterlimit="10"/>
<path d="M53.0312 155.68C52.2846 155.68 51.5379 155.533 50.7913 155.24C50.0446 154.933 49.4179 154.533 48.9113 154.04L49.6513 152.46C50.1446 152.94 50.6846 153.307 51.2713 153.56C51.8579 153.8 52.4513 153.92 53.0513 153.92C54.3313 153.92 55.3113 153.473 55.9913 152.58C56.6846 151.673 57.0313 150.327 57.0313 148.54V146.84H57.2313C57.1513 147.547 56.9246 148.167 56.5513 148.7C56.1779 149.233 55.7046 149.64 55.1313 149.92C54.5713 150.2 53.9379 150.34 53.2313 150.34C52.4046 150.34 51.6579 150.147 50.9913 149.76C50.3379 149.373 49.8246 148.84 49.4513 148.16C49.0913 147.48 48.9113 146.713 48.9113 145.86C48.9113 144.953 49.1113 144.153 49.5113 143.46C49.9113 142.753 50.4579 142.207 51.1513 141.82C51.8446 141.42 52.6446 141.22 53.5513 141.22C55.3113 141.22 56.6579 141.827 57.5913 143.04C58.5379 144.24 59.0113 145.94 59.0113 148.14C59.0113 149.753 58.7713 151.12 58.2913 152.24C57.8246 153.36 57.1446 154.213 56.2513 154.8C55.3579 155.387 54.2846 155.68 53.0312 155.68ZM53.6913 148.64C54.2513 148.64 54.7446 148.52 55.1713 148.28C55.5979 148.04 55.9313 147.707 56.1713 147.28C56.4113 146.84 56.5313 146.34 56.5313 145.78C56.5313 145.207 56.4113 144.707 56.1713 144.28C55.9313 143.84 55.5979 143.5 55.1713 143.26C54.7446 143.007 54.2513 142.88 53.6913 142.88C53.1313 142.88 52.6379 143.007 52.2113 143.26C51.7979 143.5 51.4713 143.84 51.2313 144.28C50.9913 144.707 50.8713 145.207 50.8713 145.78C50.8713 146.34 50.9913 146.84 51.2313 147.28C51.4713 147.707 51.7979 148.04 52.2113 148.28C52.6379 148.52 53.1313 148.64 53.6913 148.64ZM61.6834 155.5V153.96L66.5234 148.9C67.1501 148.247 67.6168 147.633 67.9234 147.06C68.2301 146.487 68.3834 145.893 68.3834 145.28C68.3834 144.52 68.1434 143.947 67.6634 143.56C67.1968 143.173 66.5168 142.98 65.6234 142.98C64.9168 142.98 64.2501 143.107 63.6234 143.36C63.0101 143.613 62.4168 144 61.8434 144.52L61.1234 142.94C61.6834 142.42 62.3768 142.007 63.2034 141.7C64.0434 141.38 64.9301 141.22 65.8634 141.22C67.3301 141.22 68.4568 141.553 69.2434 142.22C70.0434 142.887 70.4434 143.84 70.4434 145.08C70.4434 145.96 70.2301 146.807 69.8034 147.62C69.3768 148.42 68.7368 149.247 67.8834 150.1L63.7034 154.32V153.76H71.0234V155.5H61.6834ZM78.0156 155.68C76.389 155.68 75.1356 155.06 74.2556 153.82C73.389 152.567 72.9556 150.773 72.9556 148.44C72.9556 146.067 73.389 144.273 74.2556 143.06C75.1356 141.833 76.389 141.22 78.0156 141.22C79.6556 141.22 80.909 141.833 81.7756 143.06C82.6423 144.273 83.0756 146.06 83.0756 148.42C83.0756 150.767 82.6356 152.567 81.7556 153.82C80.889 155.06 79.6423 155.68 78.0156 155.68ZM78.0156 153.94C79.0423 153.94 79.8023 153.493 80.2956 152.6C80.8023 151.707 81.0556 150.313 81.0556 148.42C81.0556 146.513 80.8023 145.127 80.2956 144.26C79.8023 143.38 79.0423 142.94 78.0156 142.94C77.0023 142.94 76.2423 143.38 75.7356 144.26C75.229 145.127 74.9756 146.507 74.9756 148.4C74.9756 150.307 75.229 151.707 75.7356 152.6C76.2556 153.493 77.0156 153.94 78.0156 153.94ZM90.0078 155.68C88.3811 155.68 87.1278 155.06 86.2478 153.82C85.3811 152.567 84.9478 150.773 84.9478 148.44C84.9478 146.067 85.3811 144.273 86.2478 143.06C87.1278 141.833 88.3811 141.22 90.0078 141.22C91.6478 141.22 92.9011 141.833 93.7678 143.06C94.6345 144.273 95.0678 146.06 95.0678 148.42C95.0678 150.767 94.6278 152.567 93.7478 153.82C92.8811 155.06 91.6345 155.68 90.0078 155.68ZM90.0078 153.94C91.0345 153.94 91.7945 153.493 92.2878 152.6C92.7945 151.707 93.0478 150.313 93.0478 148.42C93.0478 146.513 92.7945 145.127 92.2878 144.26C91.7945 143.38 91.0345 142.94 90.0078 142.94C88.9945 142.94 88.2345 143.38 87.7278 144.26C87.2211 145.127 86.9678 146.507 86.9678 148.4C86.9678 150.307 87.2211 151.707 87.7278 152.6C88.2478 153.493 89.0078 153.94 90.0078 153.94ZM98 155.5L104.92 142.36V143.16H97.2V141.4H106.8V142.94L100.28 155.5H98ZM109.652 155.5V153.96L114.492 148.9C115.119 148.247 115.586 147.633 115.892 147.06C116.199 146.487 116.352 145.893 116.352 145.28C116.352 144.52 116.112 143.947 115.632 143.56C115.166 143.173 114.486 142.98 113.592 142.98C112.886 142.98 112.219 143.107 111.592 143.36C110.979 143.613 110.386 144 109.812 144.52L109.092 142.94C109.652 142.42 110.346 142.007 111.172 141.7C112.012 141.38 112.899 141.22 113.832 141.22C115.299 141.22 116.426 141.553 117.212 142.22C118.012 142.887 118.412 143.84 118.412 145.08C118.412 145.96 118.199 146.807 117.772 147.62C117.346 148.42 116.706 149.247 115.852 150.1L111.672 154.32V153.76H118.992V155.5H109.652ZM125.984 155.68C124.358 155.68 123.104 155.06 122.224 153.82C121.358 152.567 120.924 150.773 120.924 148.44C120.924 146.067 121.358 144.273 122.224 143.06C123.104 141.833 124.358 141.22 125.984 141.22C127.624 141.22 128.878 141.833 129.744 143.06C130.611 144.273 131.044 146.06 131.044 148.42C131.044 150.767 130.604 152.567 129.724 153.82C128.858 155.06 127.611 155.68 125.984 155.68ZM125.984 153.94C127.011 153.94 127.771 153.493 128.264 152.6C128.771 151.707 129.024 150.313 129.024 148.42C129.024 146.513 128.771 145.127 128.264 144.26C127.771 143.38 127.011 142.94 125.984 142.94C124.971 142.94 124.211 143.38 123.704 144.26C123.198 145.127 122.944 146.507 122.944 148.4C122.944 150.307 123.198 151.707 123.704 152.6C124.224 153.493 124.984 153.94 125.984 153.94ZM137.837 155.68C136.877 155.68 135.957 155.54 135.077 155.26C134.197 154.967 133.463 154.553 132.877 154.02L133.597 152.44C134.25 152.947 134.917 153.32 135.597 153.56C136.277 153.8 137.003 153.92 137.777 153.92C138.763 153.92 139.51 153.713 140.017 153.3C140.537 152.887 140.797 152.293 140.797 151.52C140.797 150.76 140.537 150.187 140.017 149.8C139.51 149.4 138.757 149.2 137.757 149.2H135.577V147.52H137.597C138.45 147.52 139.13 147.307 139.637 146.88C140.143 146.44 140.397 145.847 140.397 145.1C140.397 144.42 140.163 143.9 139.697 143.54C139.23 143.167 138.563 142.98 137.697 142.98C136.23 142.98 134.943 143.493 133.837 144.52L133.137 142.94C133.683 142.393 134.377 141.973 135.217 141.68C136.057 141.373 136.937 141.22 137.857 141.22C139.27 141.22 140.383 141.547 141.197 142.2C142.01 142.84 142.417 143.733 142.417 144.88C142.417 145.747 142.17 146.487 141.677 147.1C141.197 147.713 140.537 148.12 139.697 148.32V148.1C140.697 148.26 141.463 148.66 141.997 149.3C142.543 149.927 142.817 150.713 142.817 151.66C142.817 152.913 142.37 153.9 141.477 154.62C140.597 155.327 139.383 155.68 137.837 155.68Z" fill="#4F4F4F"/>
<path d="M15.9999 229.907C18.2974 229.907 20.1599 228.044 20.1599 225.747C20.1599 223.449 18.2974 221.587 15.9999 221.587C13.7024 221.587 11.8399 223.449 11.8399 225.747C11.8399 228.044 13.7024 229.907 15.9999 229.907Z" stroke="#8AB4D6" stroke-width="2"/>
<path d="M4.8266 223.32C7.45327 211.773 24.5599 211.787 27.1733 223.333C28.7066 230.107 24.4933 235.84 20.7999 239.387C18.1199 241.973 13.8799 241.973 11.1866 239.387C7.5066 235.84 3.29327 230.093 4.8266 223.32Z" stroke="#8AB4D6" stroke-width="2"/>
<path d="M49.8338 235.5V221.4H55.7938C57.3005 221.4 58.4672 221.76 59.2938 222.48C60.1205 223.187 60.5338 224.18 60.5338 225.46C60.5338 226.3 60.3472 227.02 59.9738 227.62C59.6005 228.22 59.0738 228.68 58.3938 229C57.7138 229.307 56.9138 229.46 55.9938 229.46L56.3138 229.14H56.8538C57.4005 229.14 57.8872 229.28 58.3138 229.56C58.7538 229.84 59.1138 230.287 59.3938 230.9L61.4138 235.5H59.1338L57.1338 230.88C56.9338 230.333 56.6205 229.98 56.1938 229.82C55.7805 229.66 55.2672 229.58 54.6538 229.58H51.9138V235.5H49.8338ZM51.9138 228H55.4538C56.4538 228 57.2072 227.787 57.7138 227.36C58.2338 226.933 58.4938 226.32 58.4938 225.52C58.4938 224.707 58.2338 224.093 57.7138 223.68C57.2072 223.267 56.4538 223.06 55.4538 223.06H51.9138V228ZM63.5991 235.5V225.42H65.6191V235.5H63.5991ZM63.4391 223.32V221.22H65.7791V223.32H63.4391ZM68.2796 240.04L67.7996 238.4C68.4263 238.267 68.9463 238.107 69.3596 237.92C69.7863 237.733 70.1396 237.487 70.4196 237.18C70.6996 236.887 70.9396 236.507 71.1396 236.04L71.6396 234.86L71.5996 235.68L67.2196 225.42H69.3796L72.7796 233.82H72.2396L75.6396 225.42H77.7196L73.0996 236.22C72.8063 236.887 72.4929 237.447 72.1596 237.9C71.8263 238.353 71.4663 238.72 71.0796 239C70.6929 239.28 70.2663 239.5 69.7996 239.66C69.3329 239.82 68.8263 239.947 68.2796 240.04ZM82.967 235.68C82.0736 235.68 81.2936 235.473 80.627 235.06C79.9603 234.647 79.4403 234.047 79.067 233.26C78.707 232.473 78.527 231.54 78.527 230.46C78.527 229.367 78.707 228.433 79.067 227.66C79.4403 226.887 79.9603 226.293 80.627 225.88C81.2936 225.453 82.0736 225.24 82.967 225.24C83.847 225.24 84.6136 225.46 85.267 225.9C85.9203 226.34 86.3536 226.94 86.567 227.7H86.347L86.547 225.42H88.507C88.467 225.833 88.427 226.247 88.387 226.66C88.3603 227.06 88.347 227.453 88.347 227.84V235.5H86.327V233.26H86.547C86.3336 234.007 85.8936 234.6 85.227 235.04C84.5736 235.467 83.8203 235.68 82.967 235.68ZM83.467 234.1C84.3336 234.1 85.027 233.793 85.547 233.18C86.0803 232.567 86.347 231.66 86.347 230.46C86.347 229.26 86.0803 228.36 85.547 227.76C85.027 227.147 84.3336 226.84 83.467 226.84C82.587 226.84 81.8803 227.147 81.347 227.76C80.827 228.36 80.567 229.26 80.567 230.46C80.567 231.66 80.827 232.567 81.347 233.18C81.867 233.793 82.5736 234.1 83.467 234.1ZM95.1545 235.68C94.2745 235.68 93.4945 235.473 92.8145 235.06C92.1478 234.647 91.6278 234.047 91.2545 233.26C90.8945 232.473 90.7145 231.54 90.7145 230.46C90.7145 229.367 90.8945 228.433 91.2545 227.66C91.6278 226.887 92.1478 226.293 92.8145 225.88C93.4945 225.453 94.2745 225.24 95.1545 225.24C96.0211 225.24 96.7811 225.46 97.4345 225.9C98.1011 226.327 98.5411 226.913 98.7545 227.66H98.5145V220.78H100.534V235.5H98.5345V233.22H98.7745C98.5478 233.98 98.1078 234.58 97.4545 235.02C96.8011 235.46 96.0345 235.68 95.1545 235.68ZM95.6545 234.1C96.5211 234.1 97.2211 233.793 97.7545 233.18C98.2878 232.567 98.5545 231.66 98.5545 230.46C98.5545 229.26 98.2878 228.36 97.7545 227.76C97.2211 227.147 96.5211 226.84 95.6545 226.84C94.7745 226.84 94.0678 227.147 93.5345 227.76C93.0145 228.36 92.7545 229.26 92.7545 230.46C92.7545 231.66 93.0145 232.567 93.5345 233.18C94.0678 233.793 94.7745 234.1 95.6545 234.1ZM103.482 235.5V220.78H105.502V227.56H105.222C105.515 226.8 105.989 226.227 106.642 225.84C107.295 225.44 108.049 225.24 108.902 225.24C110.102 225.24 110.995 225.573 111.582 226.24C112.169 226.893 112.462 227.887 112.462 229.22V235.5H110.442V229.34C110.442 228.473 110.269 227.847 109.922 227.46C109.589 227.06 109.055 226.86 108.322 226.86C107.469 226.86 106.782 227.127 106.262 227.66C105.755 228.18 105.502 228.873 105.502 229.74V235.5H103.482ZM116.057 237.96L115.177 237.28C115.564 236.867 115.824 236.487 115.957 236.14C116.104 235.793 116.177 235.433 116.177 235.06L116.617 235.5H115.037V233.12H117.417V234.74C117.417 235.34 117.317 235.893 117.117 236.4C116.917 236.92 116.564 237.44 116.057 237.96ZM130.356 235.68C129.222 235.68 128.196 235.54 127.276 235.26C126.356 234.967 125.556 234.553 124.876 234.02L125.576 232.38C126.029 232.727 126.496 233.013 126.976 233.24C127.469 233.467 127.989 233.64 128.536 233.76C129.096 233.867 129.702 233.92 130.356 233.92C131.476 233.92 132.296 233.72 132.816 233.32C133.349 232.92 133.616 232.393 133.616 231.74C133.616 231.18 133.429 230.747 133.056 230.44C132.696 230.133 132.056 229.887 131.136 229.7L128.956 229.26C127.662 228.993 126.696 228.56 126.056 227.96C125.429 227.347 125.116 226.513 125.116 225.46C125.116 224.607 125.342 223.86 125.796 223.22C126.249 222.58 126.876 222.087 127.676 221.74C128.489 221.393 129.436 221.22 130.516 221.22C131.516 221.22 132.436 221.367 133.276 221.66C134.116 221.94 134.822 222.36 135.396 222.92L134.716 224.5C134.116 223.98 133.476 223.6 132.796 223.36C132.116 223.107 131.342 222.98 130.476 222.98C129.449 222.98 128.642 223.193 128.056 223.62C127.482 224.047 127.196 224.627 127.196 225.36C127.196 225.947 127.376 226.407 127.736 226.74C128.109 227.073 128.722 227.327 129.576 227.5L131.756 227.92C133.102 228.2 134.096 228.633 134.736 229.22C135.376 229.793 135.696 230.587 135.696 231.6C135.696 232.413 135.476 233.127 135.036 233.74C134.609 234.353 133.996 234.833 133.196 235.18C132.396 235.513 131.449 235.68 130.356 235.68ZM141.932 235.68C141.038 235.68 140.258 235.473 139.592 235.06C138.925 234.647 138.405 234.047 138.032 233.26C137.672 232.473 137.492 231.54 137.492 230.46C137.492 229.367 137.672 228.433 138.032 227.66C138.405 226.887 138.925 226.293 139.592 225.88C140.258 225.453 141.038 225.24 141.932 225.24C142.812 225.24 143.578 225.46 144.232 225.9C144.885 226.34 145.318 226.94 145.532 227.7H145.312L145.512 225.42H147.472C147.432 225.833 147.392 226.247 147.352 226.66C147.325 227.06 147.312 227.453 147.312 227.84V235.5H145.292V233.26H145.512C145.298 234.007 144.858 234.6 144.192 235.04C143.538 235.467 142.785 235.68 141.932 235.68ZM142.432 234.1C143.298 234.1 143.992 233.793 144.512 233.18C145.045 232.567 145.312 231.66 145.312 230.46C145.312 229.26 145.045 228.36 144.512 227.76C143.992 227.147 143.298 226.84 142.432 226.84C141.552 226.84 140.845 227.147 140.312 227.76C139.792 228.36 139.532 229.26 139.532 230.46C139.532 231.66 139.792 232.567 140.312 233.18C140.832 233.793 141.538 234.1 142.432 234.1ZM153.839 235.68C152.626 235.68 151.713 235.353 151.099 234.7C150.499 234.033 150.199 233.013 150.199 231.64V225.42H152.219V231.6C152.219 232.44 152.393 233.06 152.739 233.46C153.086 233.86 153.613 234.06 154.319 234.06C155.119 234.06 155.766 233.793 156.259 233.26C156.753 232.727 156.999 232.02 156.999 231.14V225.42H159.019V235.5H157.059V233.34H157.319C157.039 234.087 156.593 234.667 155.979 235.08C155.366 235.48 154.653 235.68 153.839 235.68ZM165.838 235.68C164.958 235.68 164.178 235.473 163.498 235.06C162.831 234.647 162.311 234.047 161.938 233.26C161.578 232.473 161.398 231.54 161.398 230.46C161.398 229.367 161.578 228.433 161.938 227.66C162.311 226.887 162.831 226.293 163.498 225.88C164.178 225.453 164.958 225.24 165.838 225.24C166.705 225.24 167.465 225.46 168.118 225.9C168.785 226.327 169.225 226.913 169.438 227.66H169.198V220.78H171.218V235.5H169.218V233.22H169.458C169.231 233.98 168.791 234.58 168.138 235.02C167.485 235.46 166.718 235.68 165.838 235.68ZM166.338 234.1C167.205 234.1 167.905 233.793 168.438 233.18C168.971 232.567 169.238 231.66 169.238 230.46C169.238 229.26 168.971 228.36 168.438 227.76C167.905 227.147 167.205 226.84 166.338 226.84C165.458 226.84 164.751 227.147 164.218 227.76C163.698 228.36 163.438 229.26 163.438 230.46C163.438 231.66 163.698 232.567 164.218 233.18C164.751 233.793 165.458 234.1 166.338 234.1ZM174.166 235.5V225.42H176.186V235.5H174.166ZM174.006 223.32V221.22H176.346V223.32H174.006ZM183.198 235.5L189.478 221.4H191.258L197.638 235.5H195.498L193.758 231.5L194.638 232.06H186.098L187.038 231.5L185.298 235.5H183.198ZM190.338 223.68L187.298 230.86L186.818 230.4H193.918L193.518 230.86L190.418 223.68H190.338ZM199.282 235.5V227.92C199.282 227.507 199.268 227.093 199.242 226.68C199.228 226.253 199.202 225.833 199.162 225.42H201.122L201.342 228.02H201.022C201.155 227.393 201.382 226.873 201.702 226.46C202.022 226.047 202.408 225.74 202.862 225.54C203.328 225.34 203.815 225.24 204.322 225.24C204.535 225.24 204.715 225.253 204.862 225.28C205.008 225.293 205.155 225.32 205.302 225.36L205.282 227.16C205.055 227.067 204.855 227.013 204.682 227C204.522 226.973 204.322 226.96 204.082 226.96C203.495 226.96 202.995 227.093 202.582 227.36C202.168 227.613 201.855 227.96 201.642 228.4C201.428 228.84 201.322 229.313 201.322 229.82V235.5H199.282ZM210.623 235.68C209.73 235.68 208.95 235.473 208.283 235.06C207.617 234.647 207.097 234.047 206.723 233.26C206.363 232.473 206.183 231.54 206.183 230.46C206.183 229.367 206.363 228.433 206.723 227.66C207.097 226.887 207.617 226.293 208.283 225.88C208.95 225.453 209.73 225.24 210.623 225.24C211.503 225.24 212.27 225.46 212.923 225.9C213.577 226.34 214.01 226.94 214.223 227.7H214.003L214.203 225.42H216.163C216.123 225.833 216.083 226.247 216.043 226.66C216.017 227.06 216.003 227.453 216.003 227.84V235.5H213.983V233.26H214.203C213.99 234.007 213.55 234.6 212.883 235.04C212.23 235.467 211.477 235.68 210.623 235.68ZM211.123 234.1C211.99 234.1 212.683 233.793 213.203 233.18C213.737 232.567 214.003 231.66 214.003 230.46C214.003 229.26 213.737 228.36 213.203 227.76C212.683 227.147 211.99 226.84 211.123 226.84C210.243 226.84 209.537 227.147 209.003 227.76C208.483 228.36 208.223 229.26 208.223 230.46C208.223 231.66 208.483 232.567 209.003 233.18C209.523 233.793 210.23 234.1 211.123 234.1ZM224.331 235.68C223.451 235.68 222.684 235.46 222.031 235.02C221.377 234.58 220.944 233.98 220.731 233.22H220.951V235.5H218.951V220.78H220.971V227.66H220.731C220.957 226.913 221.391 226.327 222.031 225.9C222.684 225.46 223.451 225.24 224.331 225.24C225.224 225.24 226.004 225.453 226.671 225.88C227.337 226.293 227.851 226.893 228.211 227.68C228.584 228.453 228.771 229.387 228.771 230.48C228.771 231.56 228.584 232.493 228.211 233.28C227.851 234.053 227.331 234.647 226.651 235.06C225.984 235.473 225.211 235.68 224.331 235.68ZM223.831 234.1C224.697 234.1 225.397 233.8 225.931 233.2C226.464 232.587 226.731 231.68 226.731 230.48C226.731 229.267 226.464 228.36 225.931 227.76C225.397 227.147 224.697 226.84 223.831 226.84C222.951 226.84 222.244 227.147 221.711 227.76C221.191 228.36 220.931 229.26 220.931 230.46C220.931 231.66 221.191 232.567 221.711 233.18C222.244 233.793 222.951 234.1 223.831 234.1ZM231.138 235.5V225.42H233.158V235.5H231.138ZM230.978 223.32V221.22H233.318V223.32H230.978ZM239.979 235.68C239.085 235.68 238.305 235.473 237.639 235.06C236.972 234.647 236.452 234.047 236.079 233.26C235.719 232.473 235.539 231.54 235.539 230.46C235.539 229.367 235.719 228.433 236.079 227.66C236.452 226.887 236.972 226.293 237.639 225.88C238.305 225.453 239.085 225.24 239.979 225.24C240.859 225.24 241.625 225.46 242.279 225.9C242.932 226.34 243.365 226.94 243.579 227.7H243.359L243.559 225.42H245.519C245.479 225.833 245.439 226.247 245.399 226.66C245.372 227.06 245.359 227.453 245.359 227.84V235.5H243.339V233.26H243.559C243.345 234.007 242.905 234.6 242.239 235.04C241.585 235.467 240.832 235.68 239.979 235.68ZM240.479 234.1C241.345 234.1 242.039 233.793 242.559 233.18C243.092 232.567 243.359 231.66 243.359 230.46C243.359 229.26 243.092 228.36 242.559 227.76C242.039 227.147 241.345 226.84 240.479 226.84C239.599 226.84 238.892 227.147 238.359 227.76C237.839 228.36 237.579 229.26 237.579 230.46C237.579 231.66 237.839 232.567 238.359 233.18C238.879 233.793 239.585 234.1 240.479 234.1Z" fill="#4F4F4F"/>
<path d="M10.6665 296H11.9998C9.39984 303.787 9.39984 312.213 11.9998 320H10.6665M19.9998 296C22.5998 303.787 22.5998 312.213 19.9998 320M3.99984 313.333V312C11.7865 314.6 20.2132 314.6 27.9998 312V313.333M3.99984 304C11.7865 301.4 20.2132 301.4 27.9998 304M29.3332 308C29.3332 315.364 23.3636 321.333 15.9998 321.333C8.63604 321.333 2.6665 315.364 2.6665 308C2.6665 300.636 8.63604 294.667 15.9998 294.667C23.3636 294.667 29.3332 300.636 29.3332 308Z" stroke="#8AB4D6" stroke-width="2" stroke-linecap="round" stroke-linejoin="round"/>
<path d="M52.22 315.5L48.4 305.42H50.5L53.48 313.82H52.96L56.02 305.42H57.58L60.62 313.82H60.12L63.1 305.42H65.12L61.28 315.5H59.44L56.28 306.94H57.22L54.1 315.5H52.22ZM70.0716 315.5L66.2516 305.42H68.3516L71.3316 313.82H70.8116L73.8716 305.42H75.4316L78.4716 313.82H77.9716L80.9516 305.42H82.9716L79.1316 315.5H77.2916L74.1316 306.94H75.0716L71.9516 315.5H70.0716ZM87.9231 315.5L84.1031 305.42H86.2031L89.1831 313.82H88.6631L91.7231 305.42H93.2831L96.3231 313.82H95.8231L98.8031 305.42H100.823L96.9831 315.5H95.1431L91.9831 306.94H92.9231L89.8031 315.5H87.9231ZM101.407 315.5V313.12H103.787V315.5H101.407ZM106.662 315.5V306.98H104.702V305.42H107.222L106.662 305.94V304.34C106.662 303.153 106.955 302.253 107.542 301.64C108.142 301.013 109.009 300.7 110.142 300.7C110.409 300.7 110.695 300.72 111.002 300.76C111.309 300.8 111.569 300.867 111.782 300.96V302.6C111.622 302.533 111.422 302.48 111.182 302.44C110.942 302.387 110.709 302.36 110.482 302.36C109.895 302.36 109.442 302.533 109.122 302.88C108.815 303.213 108.662 303.74 108.662 304.46V305.82L108.362 305.42H115.062V315.5H113.042V306.98H108.682V315.5H106.662ZM112.882 303.32V301.22H115.222V303.32H112.882ZM121.935 315.68C120.842 315.68 120.015 315.387 119.455 314.8C118.895 314.2 118.615 313.307 118.615 312.12V306.98H116.655V305.42H118.615V302.76L120.635 302.22V305.42H123.435V306.98H120.635V311.94C120.635 312.687 120.768 313.22 121.035 313.54C121.302 313.86 121.688 314.02 122.195 314.02C122.448 314.02 122.668 314 122.855 313.96C123.055 313.907 123.235 313.847 123.395 313.78V315.42C123.195 315.5 122.962 315.56 122.695 315.6C122.428 315.653 122.175 315.68 121.935 315.68ZM125.293 315.5V313.12H127.673V315.5H125.293ZM134.349 315.68C133.336 315.68 132.449 315.473 131.689 315.06C130.943 314.633 130.363 314.027 129.949 313.24C129.549 312.44 129.349 311.493 129.349 310.4C129.349 309.32 129.556 308.393 129.969 307.62C130.383 306.847 130.963 306.26 131.709 305.86C132.456 305.447 133.336 305.24 134.349 305.24C135.003 305.24 135.636 305.353 136.249 305.58C136.863 305.793 137.369 306.1 137.769 306.5L137.109 307.92C136.736 307.56 136.316 307.293 135.849 307.12C135.383 306.933 134.929 306.84 134.489 306.84C133.529 306.84 132.776 307.147 132.229 307.76C131.683 308.373 131.409 309.26 131.409 310.42C131.409 311.593 131.683 312.493 132.229 313.12C132.776 313.747 133.529 314.06 134.489 314.06C134.916 314.06 135.363 313.98 135.829 313.82C136.296 313.647 136.723 313.373 137.109 313L137.769 314.42C137.356 314.82 136.836 315.133 136.209 315.36C135.596 315.573 134.976 315.68 134.349 315.68ZM144.034 315.68C143.034 315.68 142.168 315.473 141.434 315.06C140.701 314.633 140.134 314.033 139.734 313.26C139.334 312.473 139.134 311.54 139.134 310.46C139.134 309.38 139.334 308.453 139.734 307.68C140.134 306.893 140.701 306.293 141.434 305.88C142.168 305.453 143.034 305.24 144.034 305.24C145.034 305.24 145.901 305.453 146.634 305.88C147.381 306.293 147.954 306.893 148.354 307.68C148.768 308.453 148.974 309.38 148.974 310.46C148.974 311.54 148.768 312.473 148.354 313.26C147.954 314.033 147.381 314.633 146.634 315.06C145.901 315.473 145.034 315.68 144.034 315.68ZM144.034 314.1C144.914 314.1 145.614 313.793 146.134 313.18C146.654 312.567 146.914 311.66 146.914 310.46C146.914 309.26 146.654 308.36 146.134 307.76C145.614 307.147 144.914 306.84 144.034 306.84C143.168 306.84 142.474 307.147 141.954 307.76C141.434 308.36 141.174 309.26 141.174 310.46C141.174 311.66 141.428 312.567 141.934 313.18C142.454 313.793 143.154 314.1 144.034 314.1ZM151.335 315.5V307.84C151.335 307.453 151.315 307.06 151.275 306.66C151.249 306.247 151.215 305.833 151.175 305.42H153.135L153.315 307.54H153.075C153.355 306.807 153.782 306.24 154.355 305.84C154.942 305.44 155.642 305.24 156.455 305.24C157.282 305.24 157.955 305.44 158.475 305.84C159.009 306.227 159.375 306.827 159.575 307.64H159.255C159.522 306.907 159.975 306.327 160.615 305.9C161.255 305.46 161.995 305.24 162.835 305.24C163.955 305.24 164.795 305.567 165.355 306.22C165.915 306.873 166.195 307.887 166.195 309.26V315.5H164.175V309.36C164.175 308.48 164.022 307.847 163.715 307.46C163.422 307.06 162.942 306.86 162.275 306.86C161.502 306.86 160.889 307.127 160.435 307.66C159.982 308.193 159.755 308.913 159.755 309.82V315.5H157.735V309.36C157.735 308.48 157.582 307.847 157.275 307.46C156.982 307.06 156.502 306.86 155.835 306.86C155.062 306.86 154.455 307.127 154.015 307.66C153.575 308.193 153.355 308.913 153.355 309.82V315.5H151.335ZM168.789 315.5V313.12H171.169V315.5H168.789ZM177.374 315.68C176.534 315.68 175.76 315.573 175.054 315.36C174.347 315.147 173.76 314.847 173.294 314.46L173.914 313.08C174.407 313.453 174.954 313.733 175.554 313.92C176.154 314.107 176.767 314.2 177.394 314.2C178.127 314.2 178.68 314.073 179.054 313.82C179.427 313.553 179.614 313.193 179.614 312.74C179.614 312.393 179.494 312.113 179.254 311.9C179.027 311.687 178.647 311.527 178.114 311.42L176.194 311.04C175.34 310.853 174.694 310.533 174.254 310.08C173.814 309.627 173.594 309.047 173.594 308.34C173.594 307.74 173.754 307.207 174.074 306.74C174.407 306.273 174.874 305.907 175.474 305.64C176.087 305.373 176.8 305.24 177.614 305.24C178.36 305.24 179.054 305.347 179.694 305.56C180.334 305.773 180.867 306.08 181.294 306.48L180.654 307.82C180.24 307.473 179.774 307.207 179.254 307.02C178.734 306.82 178.207 306.72 177.674 306.72C176.927 306.72 176.374 306.86 176.014 307.14C175.654 307.42 175.474 307.787 175.474 308.24C175.474 308.587 175.58 308.873 175.794 309.1C176.02 309.313 176.374 309.48 176.854 309.6L178.774 309.98C179.68 310.167 180.36 310.473 180.814 310.9C181.267 311.327 181.494 311.9 181.494 312.62C181.494 313.247 181.32 313.793 180.974 314.26C180.627 314.727 180.147 315.08 179.534 315.32C178.92 315.56 178.2 315.68 177.374 315.68ZM187.735 315.68C186.841 315.68 186.061 315.473 185.395 315.06C184.728 314.647 184.208 314.047 183.835 313.26C183.475 312.473 183.295 311.54 183.295 310.46C183.295 309.367 183.475 308.433 183.835 307.66C184.208 306.887 184.728 306.293 185.395 305.88C186.061 305.453 186.841 305.24 187.735 305.24C188.615 305.24 189.381 305.46 190.035 305.9C190.688 306.34 191.121 306.94 191.335 307.7H191.115L191.315 305.42H193.275C193.235 305.833 193.195 306.247 193.155 306.66C193.128 307.06 193.115 307.453 193.115 307.84V315.5H191.095V313.26H191.315C191.101 314.007 190.661 314.6 189.995 315.04C189.341 315.467 188.588 315.68 187.735 315.68ZM188.235 314.1C189.101 314.1 189.795 313.793 190.315 313.18C190.848 312.567 191.115 311.66 191.115 310.46C191.115 309.26 190.848 308.36 190.315 307.76C189.795 307.147 189.101 306.84 188.235 306.84C187.355 306.84 186.648 307.147 186.115 307.76C185.595 308.36 185.335 309.26 185.335 310.46C185.335 311.66 185.595 312.567 186.115 313.18C186.635 313.793 187.341 314.1 188.235 314.1Z" fill="#4F4F4F"/>
</svg>
