<svg width="50" height="44" viewBox="0 0 50 44" fill="none" xmlns="http://www.w3.org/2000/svg">
<path d="M48.8625 21.8292L48.5524 21.5203C43.5832 16.6568 36.8285 13.4862 29.4706 12.5635C22.1127 11.6408 14.6205 13.0249 8.3053 16.4733C5.75756 17.8652 3.44662 19.5675 1.44129 21.5296L1.15244 21.8179C0.744787 22.2117 0.518314 22.7249 0.51714 23.2576C0.515966 23.7904 0.740175 24.3044 1.14609 24.6996L1.45085 25.0001C3.45382 26.9599 5.76116 28.6611 8.30458 30.0533C8.63079 30.2317 9.02417 30.2887 9.39818 30.2119C9.77219 30.135 10.0962 29.9306 10.2989 29.6435C10.5016 29.3565 10.5665 29.0103 10.4791 28.6812C10.3918 28.352 10.1595 28.0669 9.8333 27.8885C7.52308 26.624 5.42714 25.0789 3.60742 23.2991L3.56818 23.2604L3.60177 23.2271C5.42279 21.4466 7.52073 19.9017 9.8333 18.6383C15.5692 15.5066 22.3736 14.2492 29.0565 15.086C35.7393 15.9229 41.8751 18.8008 46.3905 23.2162L46.4351 23.2604L46.3994 23.2955C45.7231 23.9554 45.0086 24.5842 44.2587 25.1793C42.9895 26.1863 41.6207 27.0915 40.1685 27.8842C39.842 28.0621 39.6091 28.3468 39.5212 28.6758C39.4333 29.0048 39.4974 29.3511 39.6996 29.6384C39.9017 29.9258 40.2253 30.1307 40.5992 30.2081C40.973 30.2855 41.3665 30.229 41.693 30.0511C43.2928 29.178 44.8008 28.1808 46.1989 27.0715C47.025 26.4159 47.812 25.7231 48.5567 24.9959L48.8554 24.7015C49.2581 24.3074 49.4816 23.7965 49.4829 23.2665C49.4842 22.7366 49.2633 22.2248 48.8625 21.8292Z" fill="#2D3E50"/>
<path d="M30.6679 24.5807C30.026 24.5809 29.3904 24.4699 28.7973 24.2538C28.2042 24.0377 27.6653 23.7209 27.2114 23.3215C26.7576 22.9221 26.3976 22.4479 26.152 21.926C25.9065 21.4041 25.7803 20.8447 25.7805 20.2799C25.7786 19.6187 25.9522 18.9664 26.2874 18.3747C25.863 18.3094 25.433 18.2764 25.0022 18.276C23.4951 18.2757 22.0219 18.6686 20.7687 19.4052C19.5155 20.1418 18.5387 21.1889 17.9618 22.4141C17.3849 23.6393 17.2339 24.9875 17.5278 26.2882C17.8217 27.5889 18.5474 28.7837 19.613 29.7214C20.6787 30.6592 22.0364 31.2978 23.5145 31.5564C24.9925 31.815 26.5246 31.6821 27.9168 31.1745C29.3091 30.6668 30.4989 29.8072 31.336 28.7044C32.173 27.6016 32.6196 26.3051 32.6192 24.979C32.62 24.733 32.6043 24.4873 32.5721 24.243C31.9695 24.4666 31.3219 24.5814 30.6679 24.5807Z" fill="white"/>
</svg>
