<svg width="48" height="48" viewBox="0 0 48 48" fill="none" xmlns="http://www.w3.org/2000/svg">
<path d="M24 46C36.1503 46 46 36.1503 46 24C46 11.8497 36.1503 2 24 2C11.8497 2 2 11.8497 2 24C2 36.1503 11.8497 46 24 46Z" fill="url(#paint0_angular_14_355)"/>
<path d="M23.75 18.25C25.8211 18.25 27.5 16.5711 27.5 14.5C27.5 12.4289 25.8211 10.75 23.75 10.75C21.6789 10.75 20 12.4289 20 14.5C20 16.5711 21.6789 18.25 23.75 18.25Z" fill="url(#paint1_linear_14_355)"/>
<path d="M29 37H19V36C19.601 35.6995 20.1064 35.2376 20.4596 34.6661C20.8129 34.0945 21 33.4359 21 32.764V25.236C21 24.5641 20.8129 23.9055 20.4596 23.3339C20.1064 22.7624 19.601 22.3005 19 22V21H27V32.866C26.9998 33.5247 27.188 34.1698 27.5424 34.725C27.8967 35.2803 28.4025 35.7227 29 36V37Z" fill="url(#paint2_linear_14_355)"/>
<defs>
<radialGradient id="paint0_angular_14_355" cx="0" cy="0" r="1" gradientUnits="userSpaceOnUse" gradientTransform="translate(18.018 19.839) rotate(31.3744) scale(44.4867)">
<stop stop-color="white"/>
<stop offset="1" stop-color="#C6CBCC"/>
</radialGradient>
<linearGradient id="paint1_linear_14_355" x1="21.098" y1="11.848" x2="26.402" y2="17.152" gradientUnits="userSpaceOnUse">
<stop stop-color="#4793EB"/>
<stop offset="1" stop-color="#2367EC"/>
</linearGradient>
<linearGradient id="paint2_linear_14_355" x1="19.097" y1="24.922" x2="26.275" y2="32.422" gradientUnits="userSpaceOnUse">
<stop stop-color="#4793EB"/>
<stop offset="1" stop-color="#2367EC"/>
</linearGradient>
</defs>
</svg>
