<svg width="50" height="44" viewBox="0 0 50 44" fill="none" xmlns="http://www.w3.org/2000/svg">
<path d="M13.7695 15.9844C11.6084 15.9844 9.5957 16.5464 7.91016 17.5141C4.9707 19.2002 3.02734 22.1195 3.02734 25.4375C3.02734 28.7555 4.9707 31.6748 7.91016 33.3609C9.5957 34.3286 11.6084 34.8906 13.7695 34.8906C19.7021 34.8906 24.5117 30.6582 24.5117 25.4375C24.5117 20.2168 19.7021 15.9844 13.7695 15.9844Z" fill="#3D4966"/>
<path d="M45.5078 28.875C46.3174 28.875 46.9727 29.4525 46.9727 30.1641C46.9727 30.8756 46.3174 31.4531 45.5078 31.4531C44.6992 31.4531 44.043 30.8756 44.043 30.1641C44.043 29.4525 44.6992 28.875 45.5078 28.875Z" fill="#30C9B0"/>
<path d="M4.98047 2.23438C6.05957 2.23438 6.93359 3.00352 6.93359 3.95312C6.93359 4.90273 6.05957 5.67188 4.98047 5.67188C3.90234 5.67188 3.02734 4.90273 3.02734 3.95312C3.02734 3.00352 3.90234 2.23438 4.98047 2.23438Z" fill="#30C9B0"/>
<path d="M15.7227 25.4375V30.5938C15.7227 31.0681 15.5039 31.4978 15.1504 31.8089C14.7979 32.12 14.3096 32.3125 13.7695 32.3125C12.6914 32.3125 11.8164 31.5434 11.8164 30.5938V25.4375C11.8164 24.4879 12.6914 23.7188 13.7695 23.7188C14.8486 23.7188 15.7227 24.4879 15.7227 25.4375Z" fill="#FBC640"/>
<path d="M15.1504 19.0661C15.5039 19.3772 15.7227 19.8069 15.7227 20.2812C15.7227 20.7556 15.5039 21.1853 15.1504 21.4964C14.7979 21.8075 14.3096 22 13.7695 22C13.2305 22 12.7422 21.8075 12.3887 21.4964C12.0352 21.1853 11.8164 20.7556 11.8164 20.2812C11.8164 19.3316 12.6914 18.5625 13.7695 18.5625C14.3096 18.5625 14.7979 18.755 15.1504 19.0661Z" fill="#FBC640"/>
<path d="M37.207 7.39062V38.3281H13.7695H7.91016V33.3609C9.5957 34.3286 11.6084 34.8906 13.7695 34.8906C19.7021 34.8906 24.5117 30.6582 24.5117 25.4375C24.5117 20.2168 19.7021 15.9844 13.7695 15.9844C11.6084 15.9844 9.5957 16.5464 7.91016 17.5141V8.25H13.7695V3.09375H37.207V7.39062Z" fill="#ECF0F1"/>
<path d="M45.0195 10.8281C45.5586 10.8281 45.9961 11.2131 45.9961 11.6875C45.9961 12.1619 45.5586 12.5469 45.0195 12.5469C44.4805 12.5469 44.043 12.1619 44.043 11.6875C44.043 11.2131 44.4805 10.8281 45.0195 10.8281Z" fill="#FF4F4F"/>
<path d="M44.043 19.4219C44.582 19.4219 45.0195 19.8069 45.0195 20.2812C45.0195 20.7556 44.582 21.1406 44.043 21.1406C43.5039 21.1406 43.0664 20.7556 43.0664 20.2812C43.0664 19.8069 43.5039 19.4219 44.043 19.4219Z" fill="#FF4F4F"/>
<path d="M44.043 35.75C44.582 35.75 45.0195 36.135 45.0195 36.6094C45.0195 37.0838 44.582 37.4688 44.043 37.4688C43.5039 37.4688 43.0664 37.0838 43.0664 36.6094C43.0664 36.135 43.5039 35.75 44.043 35.75Z" fill="#FF4F4F"/>
<path d="M42.0898 3.09375C42.6289 3.09375 43.0664 3.47875 43.0664 3.95312C43.0664 4.4275 42.6289 4.8125 42.0898 4.8125C41.5508 4.8125 41.1133 4.4275 41.1133 3.95312C41.1133 3.47875 41.5508 3.09375 42.0898 3.09375Z" fill="#FF4F4F"/>
<path d="M4.00391 12.5469C4.54297 12.5469 4.98047 12.9319 4.98047 13.4062C4.98047 13.8806 4.54297 14.2656 4.00391 14.2656C3.46484 14.2656 3.02734 13.8806 3.02734 13.4062C3.02734 12.9319 3.46484 12.5469 4.00391 12.5469Z" fill="#FF4F4F"/>
<path d="M4.00391 34.8906C4.54297 34.8906 4.98047 35.2756 4.98047 35.75C4.98047 36.2244 4.54297 36.6094 4.00391 36.6094C3.46484 36.6094 3.02734 36.2244 3.02734 35.75C3.02734 35.2756 3.46484 34.8906 4.00391 34.8906Z" fill="#FF4F4F"/>
<path d="M9.62597 20.5759C9.24463 20.2404 8.62627 20.2404 8.24492 20.576C5.1998 23.2567 5.1998 27.6183 8.24492 30.2989C8.43564 30.4668 8.68555 30.5508 8.93555 30.5508C9.18545 30.5508 9.43525 30.4669 9.62597 30.2992C10.0074 29.9637 10.0075 29.4195 9.62617 29.0838C7.34219 27.0732 7.34219 23.8017 9.62617 21.7911C10.0075 21.4555 10.0074 20.9114 9.62597 20.5759Z" fill="#2C3649"/>
<path d="M19.294 20.5759C18.9127 20.2403 18.2943 20.2403 17.9129 20.5759C17.5315 20.9115 17.5315 21.4557 17.9129 21.7913C20.1977 23.8019 20.1977 27.0732 17.9129 29.0837C17.5315 29.4193 17.5315 29.9635 17.9129 30.2991C18.1036 30.4669 18.3535 30.5508 18.6034 30.5508C18.8533 30.5508 19.1033 30.4669 19.2939 30.2991C22.3403 27.6184 22.3403 23.2566 19.294 20.5759Z" fill="#2C3649"/>
<path d="M13.7695 3.09375C11.958 4.68789 9.72168 6.65586 7.91016 8.25H13.7695V3.09375Z" fill="#BFC1C1"/>
<path d="M37.207 7.39062V38.3281H13.7695V41.7656H41.1133V7.39062H37.207Z" fill="#BFC1C1"/>
<path d="M16.6992 10.8281H33.3008C33.8401 10.8281 34.2773 10.4434 34.2773 9.96875C34.2773 9.49412 33.8401 9.10938 33.3008 9.10938H16.6992C16.1599 9.10938 15.7227 9.49412 15.7227 9.96875C15.7227 10.4434 16.1599 10.8281 16.6992 10.8281Z" fill="#BFC1C1"/>
<path d="M16.6992 13.4062H33.3008C33.8401 13.4062 34.2773 13.0215 34.2773 12.5469C34.2773 12.0722 33.8401 11.6875 33.3008 11.6875H16.6992C16.1599 11.6875 15.7227 12.0722 15.7227 12.5469C15.7227 13.0215 16.1599 13.4062 16.6992 13.4062Z" fill="#BFC1C1"/>
<path d="M33.3008 14.2656H22.5586C22.0192 14.2656 21.582 14.6504 21.582 15.125C21.582 15.5996 22.0192 15.9844 22.5586 15.9844H33.3008C33.8401 15.9844 34.2773 15.5996 34.2773 15.125C34.2773 14.6504 33.8401 14.2656 33.3008 14.2656Z" fill="#BFC1C1"/>
<path d="M33.3008 16.8438H25.4883C24.9489 16.8438 24.5117 17.2285 24.5117 17.7031C24.5117 18.1778 24.9489 18.5625 25.4883 18.5625H33.3008C33.8401 18.5625 34.2773 18.1778 34.2773 17.7031C34.2773 17.2285 33.8401 16.8438 33.3008 16.8438Z" fill="#BFC1C1"/>
<path d="M33.3008 19.4219H27.4414C26.9021 19.4219 26.4648 19.8066 26.4648 20.2812C26.4648 20.7559 26.9021 21.1406 27.4414 21.1406H33.3008C33.8401 21.1406 34.2773 20.7559 34.2773 20.2812C34.2773 19.8066 33.8401 19.4219 33.3008 19.4219Z" fill="#BFC1C1"/>
<path d="M33.3008 22H28.418C27.8786 22 27.4414 22.3848 27.4414 22.8594C27.4414 23.3339 27.8786 23.7188 28.418 23.7188H33.3008C33.8401 23.7188 34.2773 23.3339 34.2773 22.8594C34.2773 22.3848 33.8401 22 33.3008 22Z" fill="#BFC1C1"/>
<path d="M33.3008 24.5781H28.418C27.8786 24.5781 27.4414 24.963 27.4414 25.4375C27.4414 25.912 27.8786 26.2969 28.418 26.2969H33.3008C33.8401 26.2969 34.2773 25.912 34.2773 25.4375C34.2773 24.963 33.8401 24.5781 33.3008 24.5781Z" fill="#BFC1C1"/>
<path d="M33.3008 27.1562H27.4414C26.9021 27.1562 26.4648 27.5411 26.4648 28.0156C26.4648 28.4902 26.9021 28.875 27.4414 28.875H33.3008C33.8401 28.875 34.2773 28.4902 34.2773 28.0156C34.2773 27.5411 33.8401 27.1562 33.3008 27.1562Z" fill="#BFC1C1"/>
<path d="M33.3008 29.7344H26.4648C25.9255 29.7344 25.4883 30.1192 25.4883 30.5938C25.4883 31.0683 25.9255 31.4531 26.4648 31.4531H33.3008C33.8401 31.4531 34.2773 31.0683 34.2773 30.5938C34.2773 30.1192 33.8401 29.7344 33.3008 29.7344Z" fill="#BFC1C1"/>
<path d="M33.3008 32.3125H24.5117C23.9724 32.3125 23.5352 32.6973 23.5352 33.1719C23.5352 33.6464 23.9724 34.0312 24.5117 34.0312H33.3008C33.8401 34.0312 34.2773 33.6464 34.2773 33.1719C34.2773 32.6973 33.8401 32.3125 33.3008 32.3125Z" fill="#BFC1C1"/>
</svg>
