<svg width="49" height="44" viewBox="0 0 49 44" fill="none" xmlns="http://www.w3.org/2000/svg">
<path d="M45.9375 22C45.9375 25.8073 44.6802 29.5291 42.3246 32.6947C39.9691 35.8604 36.621 38.3277 32.7038 39.7847C28.7866 41.2417 24.4762 41.6229 20.3178 40.8801C16.1593 40.1374 12.3395 38.304 9.3414 35.6118C6.34331 32.9196 4.30159 29.4896 3.47442 25.7555C2.64725 22.0214 3.07178 18.1508 4.69433 14.6333C6.31689 11.1159 9.06459 8.10943 12.59 5.99421C16.1153 3.87899 20.2601 2.75 24.5 2.75C30.1856 2.75 35.6383 4.77812 39.6586 8.38819C43.6789 11.9983 45.9375 16.8946 45.9375 22Z" fill="white"/>
<path d="M41.137 22C41.137 24.9547 40.1613 27.8431 38.3332 30.2999C36.5051 32.7566 33.9067 34.6715 30.8667 35.8022C27.8267 36.9329 24.4815 37.2288 21.2543 36.6523C18.027 36.0759 15.0626 34.653 12.7358 32.5637C10.4091 30.4744 8.82459 27.8125 8.18264 24.9145C7.5407 22.0166 7.87017 19.0128 9.12939 16.2829C10.3886 13.5531 12.521 11.2199 15.257 9.57836C17.9929 7.9368 21.2095 7.06063 24.5 7.06063C28.9124 7.06063 33.1441 8.63459 36.2642 11.4363C39.3842 14.2379 41.137 18.0378 41.137 22Z" fill="#8AB4D6"/>
<path d="M36.505 22C36.505 24.1321 35.8009 26.2163 34.4818 27.989C33.1627 29.7618 31.2877 31.1435 29.0941 31.9594C26.9005 32.7753 24.4867 32.9888 22.1579 32.5729C19.8292 32.1569 17.6901 31.1302 16.0112 29.6226C14.3323 28.115 13.1889 26.1942 12.7257 24.1031C12.2625 22.012 12.5002 19.8445 13.4088 17.8747C14.3175 15.9049 15.8562 14.2213 17.8304 13.0368C19.8046 11.8522 22.1256 11.22 24.5 11.22C27.6839 11.22 30.7374 12.3557 32.9888 14.3774C35.2402 16.399 36.505 19.141 36.505 22Z" fill="white"/>
<path d="M31.7045 22C31.7045 23.2795 31.282 24.5303 30.4904 25.5942C29.6987 26.6581 28.5735 27.4873 27.2571 27.9769C25.9406 28.4666 24.492 28.5947 23.0945 28.3451C21.6969 28.0954 20.4132 27.4793 19.4056 26.5745C18.3981 25.6698 17.7119 24.517 17.4339 23.2621C17.1559 22.0072 17.2986 20.7064 17.8439 19.5243C18.3892 18.3422 19.3126 17.3318 20.4974 16.6209C21.6822 15.91 23.0751 15.5306 24.5 15.5306C26.4108 15.5306 28.2433 16.2122 29.5944 17.4255C30.9455 18.6387 31.7045 20.2842 31.7045 22Z" fill="#8AB4D6"/>
<path d="M27.3634 22C27.3634 22.5085 27.1955 23.0057 26.8809 23.4285C26.5662 23.8513 26.119 24.1809 25.5958 24.3755C25.0726 24.5701 24.4968 24.6211 23.9414 24.5218C23.3859 24.4226 22.8757 24.1777 22.4752 23.8181C22.0748 23.4586 21.8021 23.0004 21.6916 22.5016C21.5811 22.0029 21.6378 21.4859 21.8545 21.016C22.0713 20.5462 22.4383 20.1446 22.9092 19.8621C23.3801 19.5796 23.9337 19.4287 24.5 19.4287C25.2594 19.4287 25.9878 19.6996 26.5248 20.1819C27.0618 20.6641 27.3634 21.3181 27.3634 22Z" fill="white"/>
<path d="M45.9375 5.90563C46.1406 5.90563 46.3353 5.83319 46.4789 5.70426C46.6225 5.57533 46.7031 5.40046 46.7031 5.21813C46.7031 5.03579 46.6225 4.86092 46.4789 4.73199C46.3353 4.60306 46.1406 4.53063 45.9375 4.53063H43.9545V2.75C43.9545 2.56766 43.8739 2.3928 43.7303 2.26386C43.5867 2.13493 43.392 2.0625 43.1889 2.0625C42.9859 2.0625 42.7911 2.13493 42.6475 2.26386C42.5039 2.3928 42.4233 2.56766 42.4233 2.75V4.93625L41.8108 5.48625V2.75C41.8108 2.56766 41.7301 2.3928 41.5865 2.26386C41.443 2.13493 41.2482 2.0625 41.0452 2.0625C40.8421 2.0625 40.6474 2.13493 40.5038 2.26386C40.3602 2.3928 40.2795 2.56766 40.2795 2.75V6.875L39.6364 7.44562C35.3795 3.87911 29.7329 1.95669 23.9128 2.09246C18.0927 2.22823 12.5649 4.41133 8.51997 8.17151C4.47505 11.9317 2.23674 16.9681 2.28714 22.1958C2.33755 27.4236 4.67264 32.4244 8.78945 36.1212C12.9063 39.8179 18.4754 41.9147 24.2972 41.96C30.119 42.0053 35.7277 39.9953 39.9152 36.3632C44.1027 32.731 46.5339 27.7672 46.6851 22.541C46.8363 17.3148 44.6954 12.2444 40.7236 8.42188L41.3667 7.84437H45.9605C46.1635 7.84437 46.3583 7.77194 46.5018 7.64301C46.6454 7.51408 46.7261 7.33921 46.7261 7.15687C46.7261 6.97454 46.6454 6.79967 46.5018 6.67074C46.3583 6.54181 46.1635 6.46937 45.9605 6.46937H42.875L43.4798 5.91937L45.9375 5.90563ZM45.1719 22C45.1766 26.2653 43.5453 30.402 40.5524 33.7142C37.5595 37.0264 33.3876 39.312 28.7385 40.1865C24.0894 41.0611 19.2467 40.4712 15.025 38.5162C10.8033 36.5611 7.4602 33.3602 5.55802 29.4518C3.65585 25.5434 3.31067 21.166 4.58054 17.0559C5.85041 12.9458 8.65785 9.35381 12.5306 6.8841C16.4034 4.41439 21.1052 3.21767 25.8452 3.49523C30.5852 3.77279 35.0741 5.50769 38.5569 8.40812L36.26 10.4706C32.9016 7.71013 28.473 6.24016 23.9226 6.37551C19.3721 6.51087 15.0616 8.24077 11.914 11.1948C8.76643 14.1488 7.03207 18.0921 7.08233 22.1802C7.13258 26.2683 8.96345 30.1762 12.1829 33.0672C15.4023 35.9581 19.7543 37.6021 24.307 37.6472C28.8597 37.6924 33.251 36.135 36.5407 33.3086C39.8304 30.4822 41.7569 26.6115 41.9077 22.5254C42.0584 18.4393 40.4214 14.4626 37.3472 11.4469L39.6441 9.38437C43.1979 12.81 45.1733 17.3182 45.1719 22ZM26.5978 22C26.5978 22.3726 26.4748 22.7368 26.2443 23.0466C26.0138 23.3563 25.6861 23.5978 25.3028 23.7404C24.9195 23.8829 24.4977 23.9202 24.0907 23.8476C23.6838 23.7749 23.31 23.5955 23.0166 23.332C22.7232 23.0686 22.5234 22.7329 22.4425 22.3675C22.3616 22.0021 22.4031 21.6233 22.5619 21.2791C22.7207 20.9349 22.9895 20.6407 23.3345 20.4337C23.6795 20.2267 24.0851 20.1163 24.5 20.1163C24.7881 20.117 25.0727 20.1733 25.3345 20.2812L23.9564 21.5119C23.8846 21.5758 23.8277 21.6518 23.7888 21.7356C23.7499 21.8194 23.7299 21.9092 23.7299 22C23.7299 22.0908 23.7499 22.1806 23.7888 22.2644C23.8277 22.3482 23.8846 22.4242 23.9564 22.4881C24.0276 22.5526 24.1123 22.6037 24.2056 22.6386C24.2989 22.6735 24.3989 22.6915 24.5 22.6915C24.6011 22.6915 24.7011 22.6735 24.7944 22.6386C24.8877 22.6037 24.9724 22.5526 25.0436 22.4881L26.4217 21.2506C26.5357 21.4873 26.5956 21.7421 26.5978 22ZM26.46 19.25C25.7004 18.8121 24.7873 18.6417 23.8962 18.7716C23.0051 18.9016 22.199 19.3227 21.6327 19.954C21.0665 20.5853 20.78 21.3822 20.8284 22.1917C20.8769 23.0011 21.2567 23.7659 21.8951 24.3391C22.5334 24.9123 23.3851 25.2534 24.2866 25.2969C25.188 25.3404 26.0755 25.0832 26.7785 24.5747C27.4816 24.0662 27.9505 23.3423 28.0952 22.5422C28.2399 21.7421 28.0502 20.9221 27.5625 20.24L29.5761 18.4319C30.5953 19.5943 31.0816 21.0624 30.9355 22.5361C30.7894 24.0097 30.0219 25.3776 28.79 26.36C27.558 27.3424 25.9547 27.8652 24.3078 27.8214C22.6609 27.7776 21.0949 27.1706 19.9299 26.1244C18.7648 25.0783 18.0888 23.672 18.04 22.1932C17.9913 20.7143 18.5734 19.2746 19.6675 18.1684C20.7616 17.0622 22.2849 16.373 23.926 16.2418C25.5671 16.1106 27.2021 16.5473 28.4966 17.4625L26.46 19.25ZM29.5684 16.5C27.9886 15.3253 25.9657 14.7422 23.9197 14.8716C21.8736 15.0011 19.9617 15.8332 18.5809 17.1951C17.2002 18.5571 16.4566 20.3443 16.5047 22.1856C16.5528 24.0269 17.3888 25.7808 18.8392 27.0832C20.2895 28.3855 22.2428 29.1363 24.2933 29.1794C26.3439 29.2226 28.3341 28.5549 29.8509 27.3151C31.3676 26.0752 32.2943 24.3584 32.4384 22.5211C32.5826 20.6839 31.9332 18.8673 30.625 17.4487L32.9219 15.3862C34.8176 17.3598 35.7848 19.9177 35.6193 22.5197C35.4538 25.1217 34.1684 27.564 32.0347 29.3308C29.901 31.0976 27.0861 32.0505 24.1845 31.9883C21.283 31.926 18.5219 30.8535 16.4847 28.9972C14.4474 27.1409 13.2934 24.6462 13.2664 22.0401C13.2395 19.434 14.3416 16.9205 16.3402 15.0305C18.3387 13.1405 21.077 12.0221 23.9768 11.9115C26.8766 11.8008 29.7108 12.7066 31.8806 14.4375L29.5684 16.5ZM32.9602 13.4544C30.4822 11.4534 27.2337 10.3977 23.9035 10.5113C20.5734 10.6249 17.4234 11.8988 15.1217 14.0629C12.8199 16.227 11.5474 19.111 11.5739 22.1034C11.6005 25.0959 12.924 27.9613 15.2638 30.0922C17.6036 32.2231 20.7758 33.4518 24.1075 33.5177C27.4393 33.5837 30.6687 32.4818 33.1108 30.4456C35.553 28.4094 37.0159 25.5991 37.1893 22.6106C37.3627 19.6222 36.233 16.6906 34.0397 14.4375L36.237 12.4712C39.0311 15.2351 40.511 18.8704 40.3604 22.6008C40.2099 26.3311 38.441 29.8608 35.4314 32.4358C32.4219 35.0108 28.4103 36.427 24.2536 36.3819C20.0969 36.3369 16.1247 34.8341 13.1852 32.1946C10.2458 29.5551 8.57224 25.9881 8.52205 22.2556C8.47187 18.5231 10.049 14.9209 12.9166 12.2184C15.7842 9.51597 19.715 7.92751 23.8692 7.79234C28.0235 7.65717 32.0719 8.986 35.1498 11.495L32.9602 13.4544Z" fill="#18181F"/>
</svg>
