<svg width="200" height="200" viewBox="0 0 200 200" fill="none" xmlns="http://www.w3.org/2000/svg">
<path d="M152.532 44.2819C151.217 37.9519 147.762 32.2678 142.748 28.1868C137.733 24.1058 131.466 21.8771 125.001 21.8756C121.893 21.8758 118.807 22.4042 115.876 23.4381C111.485 16.6409 105.014 11.4462 97.4278 8.62978C89.8419 5.81337 81.5484 5.52631 73.7859 7.8115C66.0234 10.0967 59.2081 14.8315 54.3581 21.3088C49.5081 27.7862 46.8834 35.6587 46.8759 43.7506C46.8759 43.9694 46.8759 44.1569 46.8759 44.3756C39.2812 45.9178 32.5306 50.2269 27.9341 56.4666C23.3378 62.7059 21.2239 70.4306 22.0028 78.1412C22.7816 85.8516 26.3976 92.9978 32.1487 98.1922C37.9 103.386 45.3762 106.258 53.1259 106.251H146.876C154.658 106.231 162.153 103.307 167.894 98.0531C173.635 92.7987 177.208 85.5912 177.916 77.8412C178.623 70.0912 176.413 62.3559 171.719 56.1491C167.024 49.9425 160.182 45.7106 152.532 44.2819Z" fill="#3D4966"/>
<path d="M7.8125 180.343L26.5625 191.062V163.531L7.8125 155.499V180.343Z" fill="white"/>
<path d="M29.6875 191.062L48.4375 180.343V155.499L29.6875 163.531V191.062Z" fill="#3D4966"/>
<path d="M28.1235 145.438L10.2173 153.125L28.1235 160.812L46.0297 153.125L28.1235 145.438Z" fill="#FF4F4F" fill-opacity="0.52"/>
<path d="M173.438 191.062L192.188 180.343V155.499L173.438 163.531V191.062Z" fill="white"/>
<path d="M171.873 145.438L153.967 153.125L171.873 160.812L189.78 153.125L171.873 145.438Z" fill="#FF4F4F" fill-opacity="0.52"/>
<path d="M151.562 180.343L170.312 191.062V163.531L151.562 155.499V180.343Z" fill="#3D4966"/>
<path d="M63.376 126.562C66.8885 131.405 71.3263 135.503 76.4329 138.62C81.5391 141.736 87.2132 143.809 93.126 144.719C89.22 139.338 86.6204 133.122 85.5322 126.562H63.376Z" fill="#8AB4D6"/>
<path d="M82.8431 101.562H54.7181C54.955 109.294 57.1947 116.831 61.2181 123.438H84.8119C83.5516 116.213 82.8931 108.896 82.8431 101.562Z" fill="#FF4F4F" fill-opacity="0.52"/>
<path d="M84.876 76.5625H61.2822C57.2588 83.1688 55.0191 90.7063 54.7822 98.4375H82.9072C82.9572 91.1041 83.6157 83.7872 84.876 76.5625Z" fill="#8AB4D6"/>
<path d="M111.251 73.4375C108.47 61.7812 104.095 54.6875 100.001 54.6875C95.9075 54.6875 91.5325 61.7812 88.7512 73.4375H111.251Z" fill="#8AB4D6"/>
<path d="M88.0944 123.438H111.907C113.281 116.226 113.992 108.904 114.032 101.562H85.9069C85.9675 108.906 86.6997 116.228 88.0944 123.438Z" fill="#8AB4D6"/>
<path d="M111.906 76.5625H88.0931C86.7194 83.7741 86.0081 91.0962 85.9681 98.4375H114.093C114.033 91.0944 113.3 83.7722 111.906 76.5625Z" fill="#FF4F4F" fill-opacity="0.52"/>
<path d="M93.126 55.2809C87.2132 56.1906 81.5391 58.2634 76.4329 61.38C71.3263 64.4966 66.8885 68.5947 63.376 73.4372H85.5322C86.6204 66.8781 89.22 60.6619 93.126 55.2809Z" fill="#FF4F4F" fill-opacity="0.52"/>
<path d="M106.876 55.2809C110.782 60.6619 113.381 66.8781 114.469 73.4372H136.626C133.113 68.5947 128.675 64.4966 123.569 61.38C118.462 58.2634 112.788 56.1906 106.876 55.2809Z" fill="#FF4F4F" fill-opacity="0.52"/>
<path d="M117.156 98.4375H145.281C145.044 90.7063 142.804 83.1688 138.781 76.5625H115.124C116.406 83.7853 117.085 91.1022 117.156 98.4375Z" fill="#8AB4D6"/>
<path d="M115.124 123.438H138.718C142.742 116.831 144.981 109.294 145.218 101.562H117.093C117.043 108.896 116.385 116.213 115.124 123.438Z" fill="#FF4F4F" fill-opacity="0.52"/>
<path d="M106.876 144.719C112.788 143.809 118.462 141.736 123.569 138.62C128.675 135.503 133.113 131.405 136.626 126.562H114.469C113.381 133.122 110.782 139.338 106.876 144.719Z" fill="#8AB4D6"/>
<path d="M88.7512 126.562C91.5325 138.219 95.9075 145.312 100.001 145.312C104.095 145.312 108.47 138.219 111.251 126.562H88.7512Z" fill="#FF4F4F" fill-opacity="0.52"/>
<path d="M84.375 21.875V15.625C76.9159 15.625 69.7622 18.5882 64.4875 23.8626C59.2131 29.1371 56.25 36.2909 56.25 43.75H62.5C62.5 37.9484 64.8047 32.3844 68.9072 28.282C73.0094 24.1797 78.5734 21.875 84.375 21.875Z" fill="black"/>
<path d="M4.68752 183.969L26.5625 196.469C27.0376 196.743 27.5765 196.888 28.125 196.888C28.6736 196.888 29.2125 196.743 29.6875 196.469L51.5625 183.969C52.0394 183.694 52.435 183.297 52.7094 182.82C52.9837 182.342 53.1272 181.801 53.125 181.251V153.126C53.1244 152.512 52.9434 151.912 52.6044 151.401C52.2656 150.89 51.7837 150.49 51.2187 150.251L29.3438 140.876C28.9582 140.712 28.5437 140.628 28.125 140.628C27.7063 140.628 27.2918 140.712 26.9063 140.876L5.03127 150.251C4.46643 150.49 3.98449 150.89 3.64552 151.401C3.30652 151.912 3.12552 152.512 3.12502 153.126V181.251C3.12283 181.801 3.26618 182.342 3.54059 182.82C3.81496 183.297 4.21062 183.694 4.68752 183.969ZM46.875 179.438L31.25 188.376V164.563L46.875 157.876V179.438ZM28.125 147.157L42.0625 153.126L28.125 159.094L14.1875 153.126L28.125 147.157ZM9.37502 157.876L25 164.563V188.376L9.37502 179.438V157.876Z" fill="black"/>
<path d="M194.969 150.251L173.094 140.876C172.708 140.712 172.294 140.628 171.875 140.628C171.456 140.628 171.042 140.712 170.656 140.876L148.781 150.251C148.217 150.49 147.734 150.89 147.396 151.401C147.057 151.912 146.876 152.512 146.875 153.126V181.251C146.873 181.801 147.016 182.342 147.291 182.82C147.565 183.297 147.961 183.694 148.438 183.969L170.313 196.469C170.788 196.743 171.327 196.888 171.875 196.888C172.423 196.888 172.963 196.743 173.438 196.469L195.313 183.969C195.789 183.694 196.185 183.297 196.459 182.82C196.734 182.342 196.877 181.801 196.875 181.251V153.126C196.874 152.512 196.693 151.912 196.355 151.401C196.016 150.89 195.534 150.49 194.969 150.251ZM168.75 188.376L153.125 179.438V157.876L168.75 164.563V188.376ZM171.875 159.094L157.938 153.126L171.875 147.157L185.813 153.126L171.875 159.094ZM190.625 179.438L175 188.376V164.563L190.625 157.876V179.438Z" fill="black"/>
<path d="M149.095 109.375C157.234 108.783 164.897 105.315 170.714 99.5903C176.53 93.8656 180.12 86.2587 180.842 78.1297C181.563 70.0009 179.369 61.8803 174.652 55.2209C169.935 48.5616 163.002 43.7975 155.095 41.7813C153.294 35.1756 149.374 29.3444 143.937 25.1834C138.5 21.0225 131.847 18.7622 125.001 18.7498C122.352 18.748 119.715 19.0948 117.157 19.7811C112.197 12.9803 105.246 7.88825 97.2663 5.20891C89.2863 2.52957 80.6713 2.3952 72.6116 4.82438C64.5522 7.25356 57.4463 12.1263 52.2759 18.7692C47.1059 25.412 44.1269 33.4969 43.7509 41.9063C35.8875 44.0647 29.0474 48.9484 24.4525 55.6847C19.8576 62.4212 17.8071 70.5719 18.6672 78.6806C19.5273 86.7894 23.2419 94.3284 29.1477 99.9509C35.0534 105.574 42.7659 108.914 50.9072 109.375C53.3934 122.377 60.9341 133.862 71.8759 141.313V165.625H59.3759V171.875H75.0009C75.8297 171.875 76.6244 171.546 77.2106 170.96C77.7966 170.373 78.1259 169.579 78.1259 168.75V144.906C84.9312 148.256 92.4153 149.998 100.001 149.998C107.586 149.998 115.07 148.256 121.876 144.906V168.75C121.876 169.579 122.205 170.373 122.791 170.96C123.377 171.546 124.172 171.875 125.001 171.875H140.626V165.625H128.126V141.313C139.068 133.862 146.608 122.377 149.095 109.375ZM137.845 121.875H117.001C118.043 115.676 118.628 109.409 118.751 103.125H143.751C143.22 109.74 141.201 116.15 137.845 121.875ZM66.5322 71.875C72.5197 64.7569 80.62 59.7325 89.6572 57.5312C87.1938 62.0234 85.4137 66.8578 84.3759 71.875H66.5322ZM83.0009 78.125C81.9584 84.3234 81.3734 90.5903 81.2509 96.875H56.2509C56.7334 90.2722 58.6991 83.8631 62.0009 78.125H83.0009ZM87.5009 96.875C87.6128 90.5884 88.2081 84.32 89.2822 78.125H110.595C111.71 84.3166 112.348 90.5853 112.501 96.875H87.5009ZM112.501 103.125C112.389 109.411 111.793 115.68 110.72 121.875H89.3447C88.2497 115.682 87.6334 109.413 87.5009 103.125H112.501ZM90.6259 71.875C93.2197 61.9375 96.8759 56.25 100.001 56.25C103.126 56.25 106.657 61.9375 109.376 71.875H90.6259ZM110.22 57.5312C119.302 59.7081 127.449 64.7344 133.47 71.875H115.626C114.588 66.8578 112.808 62.0234 110.345 57.5312H110.22ZM118.751 96.875C118.649 90.5919 118.085 84.325 117.063 78.125H137.907C141.242 83.8553 143.239 90.2647 143.751 96.875H118.751ZM50.1572 103.125C43.4781 102.416 37.2731 99.3403 32.6647 94.4544C28.0562 89.5681 25.3485 83.1941 25.0314 76.485C24.7142 69.7759 26.8085 63.1747 30.9355 57.8756C35.0625 52.5766 40.9497 48.9294 47.5322 47.5938C48.2484 47.4475 48.8913 47.0547 49.3478 46.4838C49.8047 45.9128 50.0469 45.1997 50.0322 44.4688C50.0463 44.2606 50.0463 44.0516 50.0322 43.8438C50.0009 36.4159 52.3763 29.1778 56.8031 23.2132C61.2297 17.2485 67.4691 12.8781 74.5875 10.7564C81.7056 8.6346 89.3197 8.8756 96.2897 11.4433C103.26 14.011 109.21 18.7672 113.251 24.9998C113.632 25.588 114.199 26.031 114.863 26.2577C115.526 26.4844 116.246 26.4816 116.907 26.2498C119.517 25.3866 122.252 24.9642 125.001 24.9998C130.746 25.0014 136.315 26.9814 140.771 30.6068C145.227 34.2322 148.299 39.2819 149.47 44.9063C149.596 45.515 149.902 46.0722 150.347 46.5066C150.793 46.9409 151.357 47.2322 151.97 47.3438C158.738 48.4328 164.875 51.9569 169.228 57.2528C173.581 62.5487 175.85 69.2522 175.608 76.1031C175.366 82.9544 172.63 89.4812 167.915 94.4572C163.199 99.4331 156.829 102.515 150.001 103.125C150.001 102.125 150.001 101.156 150.001 100C150.001 86.7391 144.733 74.0212 135.356 64.6444C125.979 55.2678 113.262 50 100.001 50C86.74 50 74.0222 55.2678 64.6456 64.6444C55.2688 74.0212 50.0009 86.7391 50.0009 100C50.0009 101 50.0009 101.969 50.1572 103.125ZM62.1572 121.875C58.8553 116.137 56.8897 109.727 56.4072 103.125H81.4072C81.5091 109.408 82.0731 115.675 83.0947 121.875H62.1572ZM66.5322 128.125H84.3759C85.4434 133.147 87.255 137.982 89.7509 142.469C80.6797 140.285 72.5441 135.26 66.5322 128.125ZM100.001 143.75C97.0634 143.75 93.3447 138.063 90.6259 128.125H109.376C106.657 138.063 102.938 143.75 100.001 143.75ZM110.345 142.469C112.808 137.976 114.588 133.142 115.626 128.125H133.376C127.413 135.226 119.348 140.249 110.345 142.469Z" fill="black"/>
</svg>
