<svg width="250" height="250" viewBox="0 0 250 250" fill="none" xmlns="http://www.w3.org/2000/svg">
<path d="M230.469 11.7188H19.5312C17.4611 11.7249 15.4776 12.55 14.0138 14.0138C12.55 15.4776 11.7249 17.4611 11.7188 19.5312V128.906H27.3438V113.281C27.3499 111.211 28.175 109.228 29.6388 107.764C31.1026 106.3 33.0861 105.475 35.1562 105.469H152.344V191.406C152.35 193.476 153.175 195.46 154.639 196.924C156.103 198.387 158.086 199.213 160.156 199.219H214.844C216.914 199.213 218.897 198.387 220.361 196.924C221.825 195.46 222.65 193.476 222.656 191.406V128.906H238.281V19.5312C238.275 17.4611 237.45 15.4776 235.986 14.0138C234.522 12.55 232.539 11.7249 230.469 11.7188ZM207.031 78.125C207.025 80.1951 206.2 82.1787 204.736 83.6424C203.272 85.1062 201.289 85.9313 199.219 85.9375H175.781C173.711 85.9313 171.728 85.1062 170.264 83.6424C168.8 82.1787 167.975 80.1951 167.969 78.125V74.2188H207.031V78.125Z" fill="#2C3649"/>
<path d="M29.2969 238.281H205.078C206.769 238.281 208.413 237.733 209.766 236.719C211.118 235.705 212.105 234.279 212.578 232.656L214.375 226.562H128.906V230.469H105.469V226.562H20L21.7969 232.656C22.2702 234.279 23.2571 235.705 24.6094 236.719C25.9617 237.733 27.6065 238.281 29.2969 238.281Z" fill="#2C3649"/>
<path d="M230.469 7.8125H19.5312C16.4232 7.8125 13.4425 9.04715 11.2448 11.2448C9.04715 13.4425 7.8125 16.4232 7.8125 19.5312V144.531C7.8125 147.639 9.04715 150.62 11.2448 152.818C13.4425 155.015 16.4232 156.25 19.5312 156.25H23.4375V207.031C23.4375 210.139 24.6722 213.12 26.8698 215.318C29.0675 217.515 32.0482 218.75 35.1562 218.75H199.219C202.327 218.75 205.307 217.515 207.505 215.318C209.703 213.12 210.938 210.139 210.938 207.031V203.125H214.844C217.952 203.125 220.932 201.89 223.13 199.693C225.328 197.495 226.562 194.514 226.562 191.406V156.25H230.469C233.577 156.25 236.557 155.015 238.755 152.818C240.953 150.62 242.188 147.639 242.188 144.531V19.5312C242.188 16.4232 240.953 13.4425 238.755 11.2448C236.557 9.04715 233.577 7.8125 230.469 7.8125ZM19.5312 15.625H230.469C231.505 15.625 232.498 16.0366 233.231 16.7691C233.963 17.5017 234.375 18.4952 234.375 19.5312V125H226.562V82.0312C226.562 78.9232 225.328 75.9425 223.13 73.7448C220.932 71.5471 217.952 70.3125 214.844 70.3125H160.156C157.048 70.3125 154.068 71.5471 151.87 73.7448C149.672 75.9425 148.438 78.9232 148.438 82.0312V101.562H35.1562C32.0482 101.562 29.0675 102.797 26.8698 104.995C24.6722 107.193 23.4375 110.173 23.4375 113.281V125H15.625V19.5312C15.625 18.4952 16.0366 17.5017 16.7691 16.7691C17.5017 16.0366 18.4952 15.625 19.5312 15.625ZM203.125 78.125C203.125 79.161 202.713 80.1546 201.981 80.8871C201.248 81.6197 200.255 82.0312 199.219 82.0312H175.781C174.745 82.0312 173.752 81.6197 173.019 80.8871C172.287 80.1546 171.875 79.161 171.875 78.125H203.125ZM19.5312 148.438C18.4952 148.438 17.5017 148.026 16.7691 147.293C16.0366 146.561 15.625 145.567 15.625 144.531V132.812H23.4375V148.438H19.5312ZM203.125 207.031C203.125 208.067 202.713 209.061 201.981 209.793C201.248 210.526 200.255 210.938 199.219 210.938H35.1562C34.1202 210.938 33.1267 210.526 32.3941 209.793C31.6616 209.061 31.25 208.067 31.25 207.031V113.281C31.25 112.245 31.6616 111.252 32.3941 110.519C33.1267 109.787 34.1202 109.375 35.1562 109.375H148.438V191.406C148.438 194.514 149.672 197.495 151.87 199.693C154.068 201.89 157.048 203.125 160.156 203.125H203.125V207.031ZM218.75 191.406C218.75 192.442 218.338 193.436 217.606 194.168C216.873 194.901 215.88 195.312 214.844 195.312H160.156C159.12 195.312 158.127 194.901 157.394 194.168C156.662 193.436 156.25 192.442 156.25 191.406V82.0312C156.25 80.9952 156.662 80.0017 157.394 79.2691C158.127 78.5365 159.12 78.125 160.156 78.125H164.062C164.062 81.233 165.297 84.2137 167.495 86.4114C169.693 88.6091 172.673 89.8438 175.781 89.8438H199.219C202.327 89.8438 205.307 88.6091 207.505 86.4114C209.703 84.2137 210.938 81.233 210.938 78.125H214.844C215.88 78.125 216.873 78.5365 217.606 79.2691C218.338 80.0017 218.75 80.9952 218.75 82.0312V191.406ZM230.469 148.438H226.562V132.812H234.375V144.531C234.375 145.567 233.963 146.561 233.231 147.293C232.498 148.026 231.505 148.438 230.469 148.438Z" fill="#D9D9D9"/>
<path d="M214.355 222.656H128.906C127.87 222.656 126.877 223.068 126.144 223.8C125.412 224.533 125 225.526 125 226.562H109.375C109.375 225.526 108.963 224.533 108.231 223.8C107.498 223.068 106.505 222.656 105.469 222.656H20.0195C19.4131 222.656 18.815 222.797 18.2726 223.069C17.7302 223.34 17.2584 223.734 16.8945 224.219C16.5307 224.704 16.2848 225.267 16.1763 225.864C16.0678 226.46 16.0997 227.074 16.2695 227.656L18.0469 233.75C18.7664 236.179 20.2491 238.311 22.2755 239.831C24.3019 241.35 26.764 242.177 29.2969 242.188H205.078C207.611 242.177 210.073 241.35 212.099 239.831C214.126 238.311 215.609 236.179 216.328 233.75L218.105 227.656C218.275 227.074 218.307 226.46 218.199 225.864C218.09 225.267 217.844 224.704 217.48 224.219C217.117 223.734 216.645 223.34 216.102 223.069C215.56 222.797 214.962 222.656 214.355 222.656ZM29.2969 234.375C28.4521 234.371 27.6312 234.095 26.9557 233.588C26.2802 233.08 25.7862 232.369 25.5469 231.559L25.2305 230.469H101.562C101.562 231.505 101.974 232.498 102.707 233.231C103.439 233.963 104.433 234.375 105.469 234.375H29.2969ZM208.828 231.559C208.589 232.369 208.095 233.08 207.419 233.588C206.744 234.095 205.923 234.371 205.078 234.375H128.906C129.942 234.375 130.936 233.963 131.668 233.231C132.401 232.498 132.812 231.505 132.812 230.469H209.145L208.828 231.559Z" fill="#D9D9D9"/>
</svg>
