<svg width="524" height="640" viewBox="0 0 524 640" fill="none" xmlns="http://www.w3.org/2000/svg">
<g clip-path="url(#clip0_312_2601)">
<path d="M26.8951 623.714C26.953 617.857 21.8806 612.97 15.3043 612.24L16.2672 514.694L72.7696 466.884L74.009 341.34C79.7424 340.739 84.2039 336.557 84.2544 331.439C84.3095 325.863 79.1174 321.284 72.6512 321.221C66.185 321.157 60.9036 325.626 60.8485 331.208C60.7979 336.326 65.176 340.595 70.8965 341.31L69.6681 465.738L13.1658 513.548L12.1918 612.209C5.60229 612.809 0.434488 617.595 0.376665 623.452C0.314333 629.767 6.20854 634.957 13.5229 635.029C20.8373 635.102 26.8328 630.028 26.8951 623.714Z" fill="url(#paint0_linear_312_2601)"/>
<path d="M28.566 454.443C28.6239 448.585 23.5515 443.699 16.9752 442.969L18.4613 292.424C24.1948 291.822 28.6563 287.641 28.7068 282.522C28.7618 276.947 23.5698 272.368 17.1036 272.304C10.6373 272.241 5.35594 276.709 5.30084 282.291C5.25031 287.41 9.62834 291.679 15.3488 292.393L13.8627 442.938C7.28097 443.538 2.10539 448.324 2.04756 454.181C1.9853 460.488 7.87944 465.686 15.1938 465.758C22.5082 465.83 28.5037 460.757 28.566 454.443Z" fill="url(#paint1_linear_312_2601)"/>
<path d="M141.046 11.5604C140.995 16.6789 145.373 20.9476 151.094 21.6624L150.761 55.4093L129.572 73.3382L129.024 128.862L184.572 177.778L182.673 370.117L126.17 417.927L125.216 514.654L68.7132 562.464L68.2167 612.762C61.635 613.362 56.4594 618.148 56.4016 624.005C56.3393 630.313 62.2334 635.51 69.5478 635.582C76.8622 635.654 82.8577 630.581 82.92 624.267C82.9779 618.41 77.9055 613.523 71.3292 612.793L71.8147 563.61L128.317 515.8L129.272 419.073L185.774 371.263L187.695 176.694L132.148 127.778L132.674 74.484L153.862 56.5551L154.206 21.6932C159.94 21.0914 164.401 16.91 164.452 11.7915C164.507 6.21634 159.315 1.63727 152.848 1.57344C146.382 1.50961 141.101 5.97856 141.046 11.5604Z" fill="url(#paint2_linear_312_2601)"/>
<path d="M129.98 347.347L130.989 245.166C136.722 244.565 141.184 240.383 141.234 235.265C141.289 229.69 136.097 225.111 129.631 225.047C123.165 224.983 117.883 229.452 117.828 235.034C117.778 240.152 122.156 244.421 127.876 245.136L126.868 347.317C120.286 347.917 115.11 352.703 115.052 358.56C114.99 364.867 120.884 370.065 128.199 370.137C135.513 370.209 141.509 365.136 141.571 358.822C141.629 352.964 136.549 348.077 129.98 347.347Z" fill="#4F9FC9"/>
<path d="M181.598 636.689C188.904 636.761 194.908 631.688 194.97 625.374C195.028 619.516 189.948 614.63 183.379 613.9L184.352 515.326L156.638 484.822L156.972 450.988C162.706 450.386 167.167 446.205 167.218 441.086C167.273 435.511 162.081 430.932 155.614 430.868C149.148 430.804 143.867 435.273 143.812 440.855C143.761 445.974 148.139 450.242 153.86 450.957L153.516 485.732L181.23 516.235L180.267 613.869C173.685 614.469 168.509 619.255 168.452 625.112C168.389 631.419 174.283 636.617 181.598 636.689V636.689Z" fill="url(#paint3_linear_312_2601)"/>
<path d="M253.095 12.6672C253.045 17.7856 257.423 22.0543 263.143 22.7692L257.301 614.629C250.719 615.229 245.543 620.015 245.486 625.872C245.423 632.18 251.317 637.377 258.632 637.449C265.946 637.521 271.942 632.448 272.004 626.134C272.062 620.277 266.982 615.39 260.413 614.66L266.256 22.7999C271.989 22.1981 276.451 18.0167 276.501 12.8982C276.556 7.32305 271.364 2.74399 264.898 2.68015C258.432 2.61632 253.151 7.08528 253.095 12.6672Z" fill="url(#paint4_linear_312_2601)"/>
<path d="M236.989 625.789C237.046 619.931 231.966 615.044 225.398 614.314L226.728 479.569L206.017 449.134L206.367 413.681L227.615 389.707L228.495 300.544C234.229 299.942 238.69 295.76 238.741 290.642C238.796 285.067 233.604 280.488 227.137 280.424C220.671 280.36 215.39 284.829 215.335 290.411C215.284 295.529 219.662 299.798 225.383 300.513L224.511 388.776L203.263 412.75L202.897 449.842L223.608 480.277L222.285 614.284C215.704 614.884 210.528 619.669 210.47 625.527C210.408 631.834 216.302 637.031 223.616 637.104C230.931 637.176 236.926 632.103 236.989 625.789Z" fill="url(#paint5_linear_312_2601)"/>
<path d="M31.4924 309.367C31.4301 315.675 37.3243 320.872 44.6386 320.944C51.953 321.017 57.9485 315.943 58.0109 309.629C58.0687 303.772 52.9964 298.885 46.42 298.155L47.4415 194.678L75.633 176.818L76.5404 84.9074L48.7666 60.4492L49.1594 20.6568C54.8929 20.0551 59.3544 15.8736 59.4049 10.7552C59.4599 5.17998 54.2679 0.600945 47.8017 0.537111C41.3354 0.473277 36.054 4.9422 35.9989 10.5241C35.9484 15.6426 40.3264 19.9113 46.0469 20.6261L45.6431 61.5335L73.4168 85.9917L72.5338 175.444L44.3423 193.303L43.3075 298.124C36.7258 298.724 31.5502 303.51 31.4924 309.367Z" fill="url(#paint6_linear_312_2601)"/>
<path d="M439.017 334.941C438.966 340.059 443.344 344.328 449.065 345.043L447.825 470.586L503.373 519.503L502.41 617.049C495.828 617.649 490.653 622.435 490.595 628.292C490.533 634.599 496.427 639.797 503.741 639.869C511.055 639.941 517.051 634.868 517.113 628.554C517.171 622.696 512.091 617.809 505.522 617.079L506.496 518.418L450.949 469.502L452.177 345.074C457.911 344.472 462.372 340.29 462.423 335.172C462.478 329.597 457.286 325.018 450.819 324.954C444.353 324.89 439.072 329.359 439.017 334.941Z" fill="url(#paint7_linear_312_2601)"/>
<path d="M396.098 349.974L397.107 247.793C402.84 247.192 407.302 243.01 407.352 237.892C407.407 232.316 402.215 227.737 395.749 227.674C389.283 227.61 384.002 232.079 383.946 237.661C383.896 242.779 388.274 247.048 393.994 247.763L392.986 349.944C386.404 350.544 381.228 355.329 381.171 361.187C381.108 367.494 387.002 372.691 394.317 372.764C401.631 372.836 407.627 367.763 407.689 361.449C407.747 355.591 402.667 350.704 396.098 349.974Z" fill="#4F9FC9"/>
<path d="M349.039 626.894C349.097 621.037 344.016 616.15 337.448 615.42L338.412 517.786L366.723 487.836L367.066 453.061C372.799 452.459 377.261 448.278 377.311 443.159C377.366 437.584 372.174 433.005 365.708 432.941C359.242 432.877 353.96 437.346 353.905 442.928C353.855 448.047 358.233 452.315 363.953 453.03L363.619 486.865L335.308 516.815L334.335 615.389C327.754 615.989 322.578 620.775 322.52 626.632C322.458 632.94 328.352 638.137 335.666 638.209C342.981 638.281 348.976 633.208 349.039 626.894Z" fill="url(#paint8_linear_312_2601)"/>
<path d="M293.647 637.795C300.954 637.867 306.957 632.794 307.02 626.48C307.077 620.623 301.997 615.736 295.429 615.006L296.752 480.999L318.059 450.979L318.426 413.887L297.655 389.498L298.526 301.235C304.26 300.633 308.721 296.452 308.772 291.333C308.827 285.758 303.635 281.179 297.169 281.115C290.702 281.051 285.421 285.52 285.366 291.102C285.315 296.221 289.693 300.489 295.414 301.204L294.534 390.367L315.304 414.757L314.954 450.21L293.646 480.229L292.316 614.975C285.735 615.575 280.559 620.361 280.501 626.218C280.439 632.525 286.333 637.723 293.647 637.795V637.795Z" fill="url(#paint9_linear_312_2601)"/>
<path d="M-5 381C-5 456.111 55.8893 517 131 517L359 517C434.111 517 495 456.111 495 381L495 303C495 227.889 434.111 167 359 167L131 167C55.8893 167 -5 227.889 -5 303L-5 381Z" fill="#1E1E1E" fill-opacity="0.22"/>
<path d="M64.7542 306.342C62.6009 306.342 60.6502 306.076 58.9022 305.544C57.1542 304.987 55.6342 304.201 54.3422 303.188L55.6722 300.072C56.5336 300.731 57.4202 301.275 58.3322 301.706C59.2696 302.137 60.2576 302.466 61.2962 302.694C62.3602 302.897 63.5129 302.998 64.7542 302.998C66.8822 302.998 68.4402 302.618 69.4282 301.858C70.4416 301.098 70.9482 300.097 70.9482 298.856C70.9482 297.792 70.5936 296.969 69.8842 296.386C69.2002 295.803 67.9842 295.335 66.2362 294.98L62.0942 294.144C59.6369 293.637 57.8002 292.814 56.5842 291.674C55.3936 290.509 54.7982 288.925 54.7982 286.924C54.7982 285.303 55.2289 283.884 56.0902 282.668C56.9516 281.452 58.1422 280.515 59.6622 279.856C61.2076 279.197 63.0062 278.868 65.0582 278.868C66.9582 278.868 68.7062 279.147 70.3022 279.704C71.8982 280.236 73.2409 281.034 74.3302 282.098L73.0382 285.1C71.8982 284.112 70.6822 283.39 69.3902 282.934C68.0982 282.453 66.6289 282.212 64.9822 282.212C63.0316 282.212 61.4989 282.617 60.3842 283.428C59.2949 284.239 58.7502 285.341 58.7502 286.734C58.7502 287.849 59.0922 288.723 59.7762 289.356C60.4856 289.989 61.6509 290.471 63.2722 290.8L67.4142 291.598C69.9729 292.13 71.8602 292.953 73.0762 294.068C74.2922 295.157 74.9002 296.665 74.9002 298.59C74.9002 300.135 74.4822 301.491 73.6462 302.656C72.8356 303.821 71.6702 304.733 70.1502 305.392C68.6302 306.025 66.8316 306.342 64.7542 306.342ZM88.0131 306.342C86.0878 306.342 84.4031 305.949 82.9591 305.164C81.5405 304.353 80.4385 303.201 79.6531 301.706C78.8931 300.186 78.5131 298.387 78.5131 296.31C78.5131 294.258 78.9058 292.497 79.6911 291.028C80.4765 289.559 81.5785 288.444 82.9971 287.684C84.4158 286.899 86.0878 286.506 88.0131 286.506C89.2545 286.506 90.4578 286.721 91.6231 287.152C92.7885 287.557 93.7511 288.14 94.5111 288.9L93.2571 291.598C92.5478 290.914 91.7498 290.407 90.8631 290.078C89.9765 289.723 89.1151 289.546 88.2791 289.546C86.4551 289.546 85.0238 290.129 83.9851 291.294C82.9465 292.459 82.4271 294.144 82.4271 296.348C82.4271 298.577 82.9465 300.287 83.9851 301.478C85.0238 302.669 86.4551 303.264 88.2791 303.264C89.0898 303.264 89.9385 303.112 90.8251 302.808C91.7118 302.479 92.5225 301.959 93.2571 301.25L94.5111 303.948C93.7258 304.708 92.7378 305.303 91.5471 305.734C90.3818 306.139 89.2038 306.342 88.0131 306.342ZM98.778 306L98.778 278.032L102.616 278.032L102.616 290.914L102.084 290.914C102.641 289.47 103.541 288.381 104.782 287.646C106.023 286.886 107.455 286.506 109.076 286.506C111.356 286.506 113.053 287.139 114.168 288.406C115.283 289.647 115.84 291.535 115.84 294.068L115.84 306L112.002 306L112.002 294.296C112.002 292.649 111.673 291.459 111.014 290.724C110.381 289.964 109.367 289.584 107.974 289.584C106.353 289.584 105.048 290.091 104.06 291.104C103.097 292.092 102.616 293.409 102.616 295.056L102.616 306L98.778 306ZM130.357 306.342C127.267 306.342 124.835 305.468 123.061 303.72C121.288 301.972 120.401 299.553 120.401 296.462C120.401 294.461 120.781 292.713 121.541 291.218C122.327 289.723 123.403 288.571 124.771 287.76C126.165 286.924 127.773 286.506 129.597 286.506C131.396 286.506 132.903 286.886 134.119 287.646C135.335 288.406 136.26 289.483 136.893 290.876C137.527 292.244 137.843 293.865 137.843 295.74L137.843 296.956L123.403 296.956L123.403 294.752L135.221 294.752L134.575 295.246C134.575 293.346 134.145 291.877 133.283 290.838C132.447 289.774 131.231 289.242 129.635 289.242C127.862 289.242 126.494 289.863 125.531 291.104C124.569 292.32 124.087 294.005 124.087 296.158L124.087 296.538C124.087 298.793 124.632 300.49 125.721 301.63C126.836 302.77 128.407 303.34 130.433 303.34C131.548 303.34 132.587 303.188 133.549 302.884C134.537 302.555 135.475 302.023 136.361 301.288L137.615 303.91C136.729 304.695 135.652 305.303 134.385 305.734C133.119 306.139 131.776 306.342 130.357 306.342ZM149.782 306.342C148.11 306.342 146.628 305.949 145.336 305.164C144.069 304.379 143.081 303.239 142.372 301.744C141.688 300.249 141.346 298.476 141.346 296.424C141.346 294.347 141.688 292.573 142.372 291.104C143.081 289.635 144.069 288.507 145.336 287.722C146.628 286.911 148.11 286.506 149.782 286.506C151.428 286.506 152.872 286.924 154.114 287.76C155.38 288.571 156.216 289.685 156.622 291.104L156.166 291.104L156.166 278.032L160.004 278.032L160.004 306L156.204 306L156.204 301.668L156.66 301.668C156.229 303.112 155.393 304.252 154.152 305.088C152.91 305.924 151.454 306.342 149.782 306.342ZM150.732 303.34C152.378 303.34 153.708 302.757 154.722 301.592C155.735 300.427 156.242 298.704 156.242 296.424C156.242 294.144 155.735 292.434 154.722 291.294C153.708 290.129 152.378 289.546 150.732 289.546C149.06 289.546 147.717 290.129 146.704 291.294C145.716 292.434 145.222 294.144 145.222 296.424C145.222 298.704 145.716 300.427 146.704 301.592C147.717 302.757 149.06 303.34 150.732 303.34ZM172.606 306.342C170.3 306.342 168.565 305.721 167.4 304.48C166.26 303.213 165.69 301.275 165.69 298.666L165.69 286.848L169.528 286.848L169.528 298.59C169.528 300.186 169.857 301.364 170.516 302.124C171.174 302.884 172.175 303.264 173.518 303.264C175.038 303.264 176.266 302.757 177.204 301.744C178.141 300.731 178.61 299.388 178.61 297.716L178.61 286.848L182.448 286.848L182.448 306L178.724 306L178.724 301.896L179.218 301.896C178.686 303.315 177.837 304.417 176.672 305.202C175.506 305.962 174.151 306.342 172.606 306.342ZM188.269 306L188.269 278.032L192.107 278.032L192.107 306L188.269 306ZM206.786 306.342C203.696 306.342 201.264 305.468 199.49 303.72C197.717 301.972 196.83 299.553 196.83 296.462C196.83 294.461 197.21 292.713 197.97 291.218C198.756 289.723 199.832 288.571 201.2 287.76C202.594 286.924 204.202 286.506 206.026 286.506C207.825 286.506 209.332 286.886 210.548 287.646C211.764 288.406 212.689 289.483 213.322 290.876C213.956 292.244 214.272 293.865 214.272 295.74L214.272 296.956L199.832 296.956L199.832 294.752L211.65 294.752L211.004 295.246C211.004 293.346 210.574 291.877 209.712 290.838C208.876 289.774 207.66 289.242 206.064 289.242C204.291 289.242 202.923 289.863 201.96 291.104C200.998 292.32 200.516 294.005 200.516 296.158L200.516 296.538C200.516 298.793 201.061 300.49 202.15 301.63C203.265 302.77 204.836 303.34 206.862 303.34C207.977 303.34 209.016 303.188 209.978 302.884C210.966 302.555 211.904 302.023 212.79 301.288L214.044 303.91C213.158 304.695 212.081 305.303 210.814 305.734C209.548 306.139 208.205 306.342 206.786 306.342ZM236.123 306L236.123 293.422L236.997 295.93L225.711 279.21L230.271 279.21L238.669 292.016L237.719 292.016L246.117 279.21L250.525 279.21L239.277 295.93L240.075 293.422L240.075 306L236.123 306ZM257.988 306.342C256.088 306.342 254.442 305.949 253.048 305.164C251.655 304.353 250.578 303.213 249.818 301.744C249.058 300.249 248.678 298.476 248.678 296.424C248.678 294.372 249.058 292.611 249.818 291.142C250.578 289.647 251.655 288.507 253.048 287.722C254.442 286.911 256.088 286.506 257.988 286.506C259.888 286.506 261.535 286.911 262.928 287.722C264.347 288.507 265.436 289.647 266.196 291.142C266.982 292.611 267.374 294.372 267.374 296.424C267.374 298.476 266.982 300.249 266.196 301.744C265.436 303.213 264.347 304.353 262.928 305.164C261.535 305.949 259.888 306.342 257.988 306.342ZM257.988 303.34C259.66 303.34 260.99 302.757 261.978 301.592C262.966 300.427 263.46 298.704 263.46 296.424C263.46 294.144 262.966 292.434 261.978 291.294C260.99 290.129 259.66 289.546 257.988 289.546C256.342 289.546 255.024 290.129 254.036 291.294C253.048 292.434 252.554 294.144 252.554 296.424C252.554 298.704 253.036 300.427 253.998 301.592C254.986 302.757 256.316 303.34 257.988 303.34ZM278.862 306.342C276.557 306.342 274.822 305.721 273.656 304.48C272.516 303.213 271.946 301.275 271.946 298.666L271.946 286.848L275.784 286.848L275.784 298.59C275.784 300.186 276.114 301.364 276.772 302.124C277.431 302.884 278.432 303.264 279.774 303.264C281.294 303.264 282.523 302.757 283.46 301.744C284.398 300.731 284.866 299.388 284.866 297.716L284.866 286.848L288.704 286.848L288.704 306L284.98 306L284.98 301.896L285.474 301.896C284.942 303.315 284.094 304.417 282.928 305.202C281.763 305.962 280.408 306.342 278.862 306.342ZM294.45 306L294.45 291.598C294.45 290.813 294.425 290.027 294.374 289.242C294.349 288.431 294.298 287.633 294.222 286.848L297.946 286.848L298.364 291.788L297.756 291.788C298.009 290.597 298.44 289.609 299.048 288.824C299.656 288.039 300.391 287.456 301.252 287.076C302.139 286.696 303.063 286.506 304.026 286.506C304.431 286.506 304.773 286.531 305.052 286.582C305.331 286.607 305.609 286.658 305.888 286.734L305.85 290.154C305.419 289.977 305.039 289.875 304.71 289.85C304.406 289.799 304.026 289.774 303.57 289.774C302.455 289.774 301.505 290.027 300.72 290.534C299.935 291.015 299.339 291.674 298.934 292.51C298.529 293.346 298.326 294.245 298.326 295.208L298.326 306L294.45 306ZM328.767 306.342C326.614 306.342 324.663 306.076 322.915 305.544C321.167 304.987 319.647 304.201 318.355 303.188L319.685 300.072C320.546 300.731 321.433 301.275 322.345 301.706C323.282 302.137 324.27 302.466 325.309 302.694C326.373 302.897 327.526 302.998 328.767 302.998C330.895 302.998 332.453 302.618 333.441 301.858C334.454 301.098 334.961 300.097 334.961 298.856C334.961 297.792 334.606 296.969 333.897 296.386C333.213 295.803 331.997 295.335 330.249 294.98L326.107 294.144C323.65 293.637 321.813 292.814 320.597 291.674C319.406 290.509 318.811 288.925 318.811 286.924C318.811 285.303 319.242 283.884 320.103 282.668C320.964 281.452 322.155 280.515 323.675 279.856C325.22 279.197 327.019 278.868 329.071 278.868C330.971 278.868 332.719 279.147 334.315 279.704C335.911 280.236 337.254 281.034 338.343 282.098L337.051 285.1C335.911 284.112 334.695 283.39 333.403 282.934C332.111 282.453 330.642 282.212 328.995 282.212C327.044 282.212 325.512 282.617 324.397 283.428C323.308 284.239 322.763 285.341 322.763 286.734C322.763 287.849 323.105 288.723 323.789 289.356C324.498 289.989 325.664 290.471 327.285 290.8L331.427 291.598C333.986 292.13 335.873 292.953 337.089 294.068C338.305 295.157 338.913 296.665 338.913 298.59C338.913 300.135 338.495 301.491 337.659 302.656C336.848 303.821 335.683 304.733 334.163 305.392C332.643 306.025 330.844 306.342 328.767 306.342ZM352.482 306.342C349.391 306.342 346.959 305.468 345.186 303.72C343.413 301.972 342.526 299.553 342.526 296.462C342.526 294.461 342.906 292.713 343.666 291.218C344.451 289.723 345.528 288.571 346.896 287.76C348.289 286.924 349.898 286.506 351.722 286.506C353.521 286.506 355.028 286.886 356.244 287.646C357.46 288.406 358.385 289.483 359.018 290.876C359.651 292.244 359.968 293.865 359.968 295.74L359.968 296.956L345.528 296.956L345.528 294.752L357.346 294.752L356.7 295.246C356.7 293.346 356.269 291.877 355.408 290.838C354.572 289.774 353.356 289.242 351.76 289.242C349.987 289.242 348.619 289.863 347.656 291.104C346.693 292.32 346.212 294.005 346.212 296.158L346.212 296.538C346.212 298.793 346.757 300.49 347.846 301.63C348.961 302.77 350.531 303.34 352.558 303.34C353.673 303.34 354.711 303.188 355.674 302.884C356.662 302.555 357.599 302.023 358.486 301.288L359.74 303.91C358.853 304.695 357.777 305.303 356.51 305.734C355.243 306.139 353.901 306.342 352.482 306.342ZM364.496 306L364.496 291.598C364.496 290.813 364.471 290.027 364.42 289.242C364.395 288.431 364.344 287.633 364.268 286.848L367.992 286.848L368.41 291.788L367.802 291.788C368.055 290.597 368.486 289.609 369.094 288.824C369.702 288.039 370.437 287.456 371.298 287.076C372.185 286.696 373.109 286.506 374.072 286.506C374.477 286.506 374.819 286.531 375.098 286.582C375.377 286.607 375.655 286.658 375.934 286.734L375.896 290.154C375.465 289.977 375.085 289.875 374.756 289.85C374.452 289.799 374.072 289.774 373.616 289.774C372.501 289.774 371.551 290.027 370.766 290.534C369.981 291.015 369.385 291.674 368.98 292.51C368.575 293.346 368.372 294.245 368.372 295.208L368.372 306L364.496 306ZM385.871 306L377.663 286.848L381.767 286.848L388.227 302.846L387.125 302.846L393.699 286.848L397.613 286.848L389.367 306L385.871 306ZM400.857 306L400.857 286.848L404.695 286.848L404.695 306L400.857 306ZM400.553 282.858L400.553 278.868L404.999 278.868L404.999 282.858L400.553 282.858ZM418.918 306.342C416.992 306.342 415.308 305.949 413.864 305.164C412.445 304.353 411.343 303.201 410.558 301.706C409.798 300.186 409.418 298.387 409.418 296.31C409.418 294.258 409.81 292.497 410.596 291.028C411.381 289.559 412.483 288.444 413.902 287.684C415.32 286.899 416.992 286.506 418.918 286.506C420.159 286.506 421.362 286.721 422.528 287.152C423.693 287.557 424.656 288.14 425.416 288.9L424.162 291.598C423.452 290.914 422.654 290.407 421.768 290.078C420.881 289.723 420.02 289.546 419.184 289.546C417.36 289.546 415.928 290.129 414.89 291.294C413.851 292.459 413.332 294.144 413.332 296.348C413.332 298.577 413.851 300.287 414.89 301.478C415.928 302.669 417.36 303.264 419.184 303.264C419.994 303.264 420.843 303.112 421.73 302.808C422.616 302.479 423.427 301.959 424.162 301.25L425.416 303.948C424.63 304.708 423.642 305.303 422.452 305.734C421.286 306.139 420.108 306.342 418.918 306.342ZM438.166 306.342C435.075 306.342 432.643 305.468 430.87 303.72C429.096 301.972 428.21 299.553 428.21 296.462C428.21 294.461 428.59 292.713 429.35 291.218C430.135 289.723 431.212 288.571 432.58 287.76C433.973 286.924 435.582 286.506 437.406 286.506C439.204 286.506 440.712 286.886 441.928 287.646C443.144 288.406 444.068 289.483 444.702 290.876C445.335 292.244 445.652 293.865 445.652 295.74L445.652 296.956L431.212 296.956L431.212 294.752L443.03 294.752L442.384 295.246C442.384 293.346 441.953 291.877 441.092 290.838C440.256 289.774 439.04 289.242 437.444 289.242C435.67 289.242 434.302 289.863 433.34 291.104C432.377 292.32 431.896 294.005 431.896 296.158L431.896 296.538C431.896 298.793 432.44 300.49 433.53 301.63C434.644 302.77 436.215 303.34 438.242 303.34C439.356 303.34 440.395 303.188 441.358 302.884C442.346 302.555 443.283 302.023 444.17 301.288L445.424 303.91C444.537 304.695 443.46 305.303 442.194 305.734C440.927 306.139 439.584 306.342 438.166 306.342ZM247.733 306.14L247.733 303.062C247.733 301.922 247.923 300.858 248.303 299.87C248.709 298.882 249.393 297.907 250.355 296.944L252.065 298.274C251.305 299.034 250.786 299.743 250.507 300.402C250.254 301.061 250.127 301.745 250.127 302.454L249.063 301.618L252.255 301.618L252.255 306.14L247.733 306.14ZM120.818 359.586C120.818 356.774 121.312 354.342 122.3 352.29C123.288 350.238 124.719 348.655 126.594 347.54C128.494 346.425 130.749 345.868 133.358 345.868C135.942 345.868 138.171 346.425 140.046 347.54C141.921 348.655 143.365 350.238 144.378 352.29C145.417 354.342 145.936 356.761 145.936 359.548C145.936 362.36 145.417 364.805 144.378 366.882C143.365 368.934 141.908 370.53 140.008 371.67C138.133 372.785 135.917 373.342 133.358 373.342C130.749 373.342 128.507 372.785 126.632 371.67C124.757 370.53 123.313 368.934 122.3 366.882C121.312 364.805 120.818 362.373 120.818 359.586ZM124.96 359.586C124.96 362.829 125.669 365.362 127.088 367.186C128.507 369.01 130.597 369.922 133.358 369.922C136.043 369.922 138.121 369.023 139.59 367.224C141.059 365.4 141.794 362.854 141.794 359.586C141.794 356.318 141.059 353.785 139.59 351.986C138.146 350.187 136.069 349.288 133.358 349.288C130.597 349.288 128.507 350.187 127.088 351.986C125.669 353.785 124.96 356.318 124.96 359.586ZM151.125 373L151.125 358.598C151.125 357.813 151.1 357.027 151.049 356.242C151.024 355.431 150.973 354.633 150.897 353.848L154.621 353.848L155.039 358.788L154.431 358.788C154.685 357.597 155.115 356.609 155.723 355.824C156.331 355.039 157.066 354.456 157.927 354.076C158.814 353.696 159.739 353.506 160.701 353.506C161.107 353.506 161.449 353.531 161.727 353.582C162.006 353.607 162.285 353.658 162.563 353.734L162.525 357.154C162.095 356.977 161.715 356.875 161.385 356.85C161.081 356.799 160.701 356.774 160.245 356.774C159.131 356.774 158.181 357.027 157.395 357.534C156.61 358.015 156.015 358.674 155.609 359.51C155.204 360.346 155.001 361.245 155.001 362.208L155.001 373L151.125 373ZM188.444 373.342C185.708 373.342 183.378 372.785 181.452 371.67C179.527 370.555 178.045 368.972 177.006 366.92C175.993 364.843 175.486 362.398 175.486 359.586C175.486 356.774 175.993 354.342 177.006 352.29C178.045 350.238 179.527 348.655 181.452 347.54C183.378 346.425 185.708 345.868 188.444 345.868C190.344 345.868 192.042 346.147 193.536 346.704C195.031 347.261 196.336 348.072 197.45 349.136L196.082 352.29C194.866 351.251 193.676 350.504 192.51 350.048C191.37 349.592 190.04 349.364 188.52 349.364C185.632 349.364 183.428 350.251 181.908 352.024C180.388 353.797 179.628 356.318 179.628 359.586C179.628 362.854 180.388 365.387 181.908 367.186C183.428 368.959 185.632 369.846 188.52 369.846C190.04 369.846 191.37 369.618 192.51 369.162C193.676 368.706 194.866 367.946 196.082 366.882L197.45 370.036C196.336 371.1 195.031 371.923 193.536 372.506C192.042 373.063 190.344 373.342 188.444 373.342ZM209.142 373.342C207.242 373.342 205.595 372.949 204.202 372.164C202.809 371.353 201.732 370.213 200.972 368.744C200.212 367.249 199.832 365.476 199.832 363.424C199.832 361.372 200.212 359.611 200.972 358.142C201.732 356.647 202.809 355.507 204.202 354.722C205.595 353.911 207.242 353.506 209.142 353.506C211.042 353.506 212.689 353.911 214.082 354.722C215.501 355.507 216.59 356.647 217.35 358.142C218.135 359.611 218.528 361.372 218.528 363.424C218.528 365.476 218.135 367.249 217.35 368.744C216.59 370.213 215.501 371.353 214.082 372.164C212.689 372.949 211.042 373.342 209.142 373.342ZM209.142 370.34C210.814 370.34 212.144 369.757 213.132 368.592C214.12 367.427 214.614 365.704 214.614 363.424C214.614 361.144 214.12 359.434 213.132 358.294C212.144 357.129 210.814 356.546 209.142 356.546C207.495 356.546 206.178 357.129 205.19 358.294C204.202 359.434 203.708 361.144 203.708 363.424C203.708 365.704 204.189 367.427 205.152 368.592C206.14 369.757 207.47 370.34 209.142 370.34ZM223.214 373L223.214 358.446C223.214 357.711 223.176 356.964 223.1 356.204C223.049 355.419 222.986 354.633 222.91 353.848L226.634 353.848L226.976 357.876L226.52 357.876C227.103 356.457 228.002 355.381 229.218 354.646C230.434 353.886 231.84 353.506 233.436 353.506C235.691 353.506 237.388 354.127 238.528 355.368C239.693 356.609 240.276 358.535 240.276 361.144L240.276 373L236.438 373L236.438 361.372C236.438 359.675 236.096 358.459 235.412 357.724C234.753 356.964 233.74 356.584 232.372 356.584C230.751 356.584 229.459 357.091 228.496 358.104C227.533 359.092 227.052 360.435 227.052 362.132L227.052 373L223.214 373ZM253.388 373.342C251.31 373.342 249.74 372.785 248.676 371.67C247.612 370.53 247.08 368.833 247.08 366.578L247.08 356.812L243.356 356.812L243.356 353.848L247.08 353.848L247.08 348.794L250.918 347.768L250.918 353.848L256.238 353.848L256.238 356.812L250.918 356.812L250.918 366.236C250.918 367.655 251.171 368.668 251.678 369.276C252.184 369.884 252.919 370.188 253.882 370.188C254.363 370.188 254.781 370.15 255.136 370.074C255.516 369.973 255.858 369.859 256.162 369.732L256.162 372.848C255.782 373 255.338 373.114 254.832 373.19C254.325 373.291 253.844 373.342 253.388 373.342ZM267.278 373.342C265.581 373.342 264.099 372.949 262.832 372.164C261.566 371.379 260.578 370.239 259.868 368.744C259.184 367.249 258.842 365.476 258.842 363.424C258.842 361.347 259.184 359.573 259.868 358.104C260.578 356.635 261.566 355.507 262.832 354.722C264.099 353.911 265.581 353.506 267.278 353.506C268.95 353.506 270.407 353.924 271.648 354.76C272.89 355.596 273.713 356.736 274.118 358.18L273.7 358.18L274.08 353.848L277.804 353.848C277.728 354.633 277.652 355.419 277.576 356.204C277.526 356.964 277.5 357.711 277.5 358.446L277.5 373L273.662 373L273.662 368.744L274.08 368.744C273.675 370.163 272.839 371.29 271.572 372.126C270.331 372.937 268.9 373.342 267.278 373.342ZM268.228 370.34C269.875 370.34 271.192 369.757 272.18 368.592C273.194 367.427 273.7 365.704 273.7 363.424C273.7 361.144 273.194 359.434 272.18 358.294C271.192 357.129 269.875 356.546 268.228 356.546C266.556 356.546 265.214 357.129 264.2 358.294C263.212 359.434 262.718 361.144 262.718 363.424C262.718 365.704 263.212 367.427 264.2 368.592C265.188 369.757 266.531 370.34 268.228 370.34ZM291.698 373.342C289.773 373.342 288.088 372.949 286.644 372.164C285.226 371.353 284.124 370.201 283.338 368.706C282.578 367.186 282.198 365.387 282.198 363.31C282.198 361.258 282.591 359.497 283.376 358.028C284.162 356.559 285.264 355.444 286.682 354.684C288.101 353.899 289.773 353.506 291.698 353.506C292.94 353.506 294.143 353.721 295.308 354.152C296.474 354.557 297.436 355.14 298.196 355.9L296.942 358.598C296.233 357.914 295.435 357.407 294.548 357.078C293.662 356.723 292.8 356.546 291.964 356.546C290.14 356.546 288.709 357.129 287.67 358.294C286.632 359.459 286.112 361.144 286.112 363.348C286.112 365.577 286.632 367.287 287.67 368.478C288.709 369.669 290.14 370.264 291.964 370.264C292.775 370.264 293.624 370.112 294.51 369.808C295.397 369.479 296.208 368.959 296.942 368.25L298.196 370.948C297.411 371.708 296.423 372.303 295.232 372.734C294.067 373.139 292.889 373.342 291.698 373.342ZM309.948 373.342C307.871 373.342 306.3 372.785 305.236 371.67C304.172 370.53 303.64 368.833 303.64 366.578L303.64 356.812L299.916 356.812L299.916 353.848L303.64 353.848L303.64 348.794L307.478 347.768L307.478 353.848L312.798 353.848L312.798 356.812L307.478 356.812L307.478 366.236C307.478 367.655 307.732 368.668 308.238 369.276C308.745 369.884 309.48 370.188 310.442 370.188C310.924 370.188 311.342 370.15 311.696 370.074C312.076 369.973 312.418 369.859 312.722 369.732L312.722 372.848C312.342 373 311.899 373.114 311.392 373.19C310.886 373.291 310.404 373.342 309.948 373.342ZM338.046 373.342C334.322 373.342 331.548 372.405 329.724 370.53C327.925 368.655 327.026 365.881 327.026 362.208L327.026 346.21L330.978 346.21L330.978 362.132C330.978 364.716 331.535 366.667 332.65 367.984C333.79 369.276 335.589 369.922 338.046 369.922C340.377 369.922 342.137 369.276 343.328 367.984C344.519 366.667 345.114 364.716 345.114 362.132L345.114 346.21L348.99 346.21L348.99 362.208C348.99 365.881 348.065 368.655 346.216 370.53C344.367 372.405 341.643 373.342 338.046 373.342ZM361.553 373.342C359.957 373.342 358.488 373.139 357.145 372.734C355.803 372.329 354.688 371.759 353.801 371.024L354.979 368.402C355.917 369.111 356.955 369.643 358.095 369.998C359.235 370.353 360.401 370.53 361.591 370.53C362.985 370.53 364.036 370.289 364.745 369.808C365.455 369.301 365.809 368.617 365.809 367.756C365.809 367.097 365.581 366.565 365.125 366.16C364.695 365.755 363.973 365.451 362.959 365.248L359.311 364.526C357.69 364.171 356.461 363.563 355.625 362.702C354.789 361.841 354.371 360.739 354.371 359.396C354.371 358.256 354.675 357.243 355.283 356.356C355.917 355.469 356.803 354.773 357.943 354.266C359.109 353.759 360.464 353.506 362.009 353.506C363.428 353.506 364.745 353.709 365.961 354.114C367.177 354.519 368.191 355.102 369.001 355.862L367.785 358.408C367 357.749 366.113 357.243 365.125 356.888C364.137 356.508 363.137 356.318 362.123 356.318C360.705 356.318 359.653 356.584 358.969 357.116C358.285 357.648 357.943 358.345 357.943 359.206C357.943 359.865 358.146 360.409 358.551 360.84C358.982 361.245 359.653 361.562 360.565 361.79L364.213 362.512C365.936 362.867 367.228 363.449 368.089 364.26C368.951 365.071 369.381 366.16 369.381 367.528C369.381 368.719 369.052 369.757 368.393 370.644C367.735 371.531 366.823 372.202 365.657 372.658C364.492 373.114 363.124 373.342 361.553 373.342ZM184.574 422L184.574 395.21L193.846 395.21C196.86 395.21 199.406 395.729 201.484 396.768C203.586 397.807 205.17 399.327 206.234 401.328C207.323 403.304 207.868 405.723 207.868 408.586C207.868 411.423 207.323 413.843 206.234 415.844C205.17 417.845 203.586 419.378 201.484 420.442C199.406 421.481 196.86 422 193.846 422L184.574 422ZM188.526 418.694L193.618 418.694C197.063 418.694 199.622 417.858 201.294 416.186C202.991 414.514 203.84 411.981 203.84 408.586C203.84 405.191 202.991 402.671 201.294 401.024C199.622 399.352 197.063 398.516 193.618 398.516L188.526 398.516L188.526 418.694ZM213.08 422L213.08 402.848L216.918 402.848L216.918 422L213.08 422ZM212.776 398.858L212.776 394.868L217.222 394.868L217.222 398.858L212.776 398.858ZM222.667 422L222.667 407.598C222.667 406.813 222.642 406.027 222.591 405.242C222.566 404.431 222.515 403.633 222.439 402.848L226.163 402.848L226.581 407.788L225.973 407.788C226.226 406.597 226.657 405.609 227.265 404.824C227.873 404.039 228.608 403.456 229.469 403.076C230.356 402.696 231.28 402.506 232.243 402.506C232.648 402.506 232.99 402.531 233.269 402.582C233.548 402.607 233.826 402.658 234.105 402.734L234.067 406.154C233.636 405.977 233.256 405.875 232.927 405.85C232.623 405.799 232.243 405.774 231.787 405.774C230.672 405.774 229.722 406.027 228.937 406.534C228.152 407.015 227.556 407.674 227.151 408.51C226.746 409.346 226.543 410.245 226.543 411.208L226.543 422L222.667 422ZM245.861 422.342C242.771 422.342 240.339 421.468 238.565 419.72C236.792 417.972 235.905 415.553 235.905 412.462C235.905 410.461 236.285 408.713 237.045 407.218C237.831 405.723 238.907 404.571 240.275 403.76C241.669 402.924 243.277 402.506 245.101 402.506C246.9 402.506 248.407 402.886 249.623 403.646C250.839 404.406 251.764 405.483 252.397 406.876C253.031 408.244 253.347 409.865 253.347 411.74L253.347 412.956L238.907 412.956L238.907 410.752L250.725 410.752L250.079 411.246C250.079 409.346 249.649 407.877 248.787 406.838C247.951 405.774 246.735 405.242 245.139 405.242C243.366 405.242 241.998 405.863 241.035 407.104C240.073 408.32 239.591 410.005 239.591 412.158L239.591 412.538C239.591 414.793 240.136 416.49 241.225 417.63C242.34 418.77 243.911 419.34 245.937 419.34C247.052 419.34 248.091 419.188 249.053 418.884C250.041 418.555 250.979 418.023 251.865 417.288L253.119 419.91C252.233 420.695 251.156 421.303 249.889 421.734C248.623 422.139 247.28 422.342 245.861 422.342ZM266.35 422.342C264.424 422.342 262.74 421.949 261.296 421.164C259.877 420.353 258.775 419.201 257.99 417.706C257.23 416.186 256.85 414.387 256.85 412.31C256.85 410.258 257.242 408.497 258.028 407.028C258.813 405.559 259.915 404.444 261.334 403.684C262.752 402.899 264.424 402.506 266.35 402.506C267.591 402.506 268.794 402.721 269.96 403.152C271.125 403.557 272.088 404.14 272.848 404.9L271.594 407.598C270.884 406.914 270.086 406.407 269.2 406.078C268.313 405.723 267.452 405.546 266.616 405.546C264.792 405.546 263.36 406.129 262.322 407.294C261.283 408.459 260.764 410.144 260.764 412.348C260.764 414.577 261.283 416.287 262.322 417.478C263.36 418.669 264.792 419.264 266.616 419.264C267.426 419.264 268.275 419.112 269.162 418.808C270.048 418.479 270.859 417.959 271.594 417.25L272.848 419.948C272.062 420.708 271.074 421.303 269.884 421.734C268.718 422.139 267.54 422.342 266.35 422.342ZM284.6 422.342C282.522 422.342 280.952 421.785 279.888 420.67C278.824 419.53 278.292 417.833 278.292 415.578L278.292 405.812L274.568 405.812L274.568 402.848L278.292 402.848L278.292 397.794L282.13 396.768L282.13 402.848L287.45 402.848L287.45 405.812L282.13 405.812L282.13 415.236C282.13 416.655 282.383 417.668 282.89 418.276C283.396 418.884 284.131 419.188 285.094 419.188C285.575 419.188 285.993 419.15 286.348 419.074C286.728 418.973 287.07 418.859 287.374 418.732L287.374 421.848C286.994 422 286.55 422.114 286.044 422.19C285.537 422.291 285.056 422.342 284.6 422.342ZM291.156 422L291.156 394.032L294.994 394.032L294.994 422L291.156 422ZM300.249 430.626L299.337 427.51C300.528 427.257 301.516 426.953 302.301 426.598C303.112 426.243 303.783 425.775 304.315 425.192C304.847 424.635 305.303 423.913 305.683 423.026L306.633 420.784L306.557 422.342L298.235 402.848L302.339 402.848L308.799 418.808L307.773 418.808L314.233 402.848L318.185 402.848L309.407 423.368C308.85 424.635 308.255 425.699 307.621 426.56C306.988 427.421 306.304 428.118 305.569 428.65C304.835 429.182 304.024 429.6 303.137 429.904C302.251 430.208 301.288 430.449 300.249 430.626Z" fill="white"/>
</g>
<defs>
<linearGradient id="paint0_linear_312_2601" x1="40.7572" y1="635.298" x2="43.8606" y2="320.936" gradientUnits="userSpaceOnUse">
<stop stop-color="#4F9FC9"/>
<stop offset="1" stop-color="#110B79"/>
</linearGradient>
<linearGradient id="paint1_linear_312_2601" x1="15.1938" y1="465.758" x2="17.1036" y2="272.304" gradientUnits="userSpaceOnUse">
<stop stop-color="#4F9FC9"/>
<stop offset="1" stop-color="#110B79"/>
</linearGradient>
<linearGradient id="paint2_linear_312_2601" x1="119.721" y1="636.077" x2="125.988" y2="1.30827" gradientUnits="userSpaceOnUse">
<stop stop-color="#4F9FC9"/>
<stop offset="1" stop-color="#110B79"/>
</linearGradient>
<linearGradient id="paint3_linear_312_2601" x1="168.37" y1="636.558" x2="170.399" y2="431.014" gradientUnits="userSpaceOnUse">
<stop stop-color="#4F9FC9"/>
<stop offset="1" stop-color="#110B79"/>
</linearGradient>
<linearGradient id="paint4_linear_312_2601" x1="258.632" y1="637.449" x2="264.898" y2="2.68015" gradientUnits="userSpaceOnUse">
<stop stop-color="#4F9FC9"/>
<stop offset="1" stop-color="#110B79"/>
</linearGradient>
<linearGradient id="paint5_linear_312_2601" x1="218.963" y1="637.058" x2="222.484" y2="280.378" gradientUnits="userSpaceOnUse">
<stop stop-color="#4F9FC9"/>
<stop offset="1" stop-color="#110B79"/>
</linearGradient>
<linearGradient id="paint6_linear_312_2601" x1="52.7934" y1="321.025" x2="55.9564" y2="0.617614" gradientUnits="userSpaceOnUse">
<stop stop-color="#4F9FC9"/>
<stop offset="1" stop-color="#110B79"/>
</linearGradient>
<linearGradient id="paint7_linear_312_2601" x1="476.507" y1="639.6" x2="476.513" y2="638.928" gradientUnits="userSpaceOnUse">
<stop stop-color="#4F9FC9"/>
<stop offset="1" stop-color="#110B79"/>
</linearGradient>
<linearGradient id="paint8_linear_312_2601" x1="348.895" y1="638.34" x2="350.924" y2="432.795" gradientUnits="userSpaceOnUse">
<stop stop-color="#4F9FC9"/>
<stop offset="1" stop-color="#110B79"/>
</linearGradient>
<linearGradient id="paint9_linear_312_2601" x1="298.301" y1="637.841" x2="301.822" y2="281.161" gradientUnits="userSpaceOnUse">
<stop stop-color="#4F9FC9"/>
<stop offset="1" stop-color="#110B79"/>
</linearGradient>
<clipPath id="clip0_312_2601">
<rect width="634.8" height="516.762" fill="white" transform="translate(0.263672 634.898) rotate(-89.4344)"/>
</clipPath>
</defs>
</svg>
