<svg width="280" height="280" viewBox="0 0 280 280" fill="none" xmlns="http://www.w3.org/2000/svg">
<path d="M168.84 103.429V91.8704C168.84 84.2216 165.801 76.8862 160.393 71.4777C154.984 66.0692 147.649 63.0308 140 63.0308C132.351 63.0308 125.016 66.0692 119.607 71.4777C114.199 76.8862 111.16 84.2216 111.16 91.8704V103.466C108.481 103.676 105.98 104.888 104.155 106.86C102.329 108.832 101.314 111.419 101.311 114.106V151.02C101.336 153.837 102.47 156.531 104.467 158.518C106.464 160.505 109.164 161.626 111.981 161.638H168.019C170.848 161.634 173.56 160.509 175.56 158.509C177.561 156.508 178.686 153.796 178.689 150.967V114.069C178.685 111.382 177.67 108.795 175.844 106.823C174.019 104.852 171.518 103.639 168.84 103.429ZM144.921 133.242L144.223 133.79V143.222L144.227 143.282C144.26 144.029 144.084 144.77 143.72 145.423C143.355 146.076 142.817 146.615 142.164 146.979C141.486 147.336 140.728 147.513 139.962 147.495C139.196 147.476 138.447 147.261 137.788 146.871C137.169 146.496 136.658 145.967 136.304 145.336C135.949 144.706 135.764 143.994 135.765 143.271V133.817L135.549 133.637L135.098 133.268C133.762 132.209 132.825 130.729 132.439 129.069C132.053 127.409 132.24 125.667 132.971 124.127C133.669 122.543 134.883 121.242 136.414 120.434C137.945 119.627 139.705 119.361 141.406 119.68H141.414C143.176 120.014 144.769 120.942 145.928 122.311C147.086 123.68 147.738 125.405 147.775 127.198C147.804 128.358 147.562 129.509 147.066 130.559C146.57 131.609 145.836 132.527 144.921 133.242V133.242ZM158.356 103.436H121.644V91.8704C121.644 87.0021 123.578 82.3332 127.02 78.8908C130.463 75.4484 135.132 73.5145 140 73.5145C144.868 73.5145 149.537 75.4484 152.979 78.8908C156.422 82.3332 158.356 87.0021 158.356 91.8704V103.436Z" fill="#1D75B8"/>
<path d="M261.167 17.222H18.8326C14.4187 17.2221 10.1855 18.9755 7.06441 22.0966C3.94328 25.2178 2.18984 29.4509 2.18982 33.8649V201.194C2.19785 205.604 3.95442 209.831 7.0743 212.947C10.1942 216.064 14.4227 217.816 18.8326 217.82H101.874L86.3629 257.413C86.1294 258.009 86.045 258.653 86.1169 259.289C86.1889 259.925 86.415 260.534 86.7757 261.062C87.1364 261.591 87.6208 262.024 88.1867 262.323C88.7526 262.622 89.383 262.778 90.023 262.778H189.473C190.11 262.778 190.737 262.623 191.3 262.328C191.864 262.032 192.347 261.604 192.708 261.08C193.07 260.557 193.299 259.953 193.376 259.321C193.452 258.69 193.375 258.049 193.149 257.454L178.126 217.82H261.167C265.577 217.816 269.806 216.064 272.926 212.948C276.046 209.831 277.802 205.604 277.81 201.194V33.865C277.81 31.6794 277.38 29.5153 276.543 27.496C275.707 25.4768 274.481 23.6421 272.936 22.0967C271.39 20.5512 269.555 19.3253 267.536 18.4889C265.517 17.6525 263.353 17.222 261.167 17.222ZM259.938 188.76H20.0622V40.7057C19.9412 39.5742 20.2661 38.4402 20.9678 37.5444C21.6696 36.6487 22.693 36.0618 23.8205 35.9085H256.162C257.292 36.0607 258.317 36.6466 259.022 37.542C259.727 38.4375 260.055 39.5723 259.938 40.7057L259.938 188.76Z" fill="#2D3E50"/>
</svg>
