<svg width="200" height="200" viewBox="0 0 200 200" fill="none" xmlns="http://www.w3.org/2000/svg">
<path d="M148.688 51.0938C139.313 -4.25 60.6563 -4.1875 51.3751 51.0938C-7.43744 61.75 -2.43745 145.219 57.0313 149.031C55.2501 142.969 56.3126 115.438 56.0626 108.75C56.0607 106.665 56.7541 104.638 58.0333 102.991C59.3124 101.344 61.1041 100.171 63.1251 99.6563L97.6876 90.9063C99.2065 90.5316 100.794 90.5316 102.313 90.9063L136.875 99.6563C138.896 100.171 140.688 101.344 141.967 102.991C143.246 104.638 143.939 106.665 143.938 108.75C143.656 115.563 144.75 142.781 142.969 149.031C202.531 145.219 207.188 61.8438 148.688 51.0938Z" fill="white"/>
<path d="M148.688 51.0938C139.313 -4.25 60.6563 -4.1875 51.3751 51.0938C-7.43744 61.75 -2.43745 145.219 57.0313 149.031C55.2501 142.969 56.3126 115.438 56.0626 108.75C56.0607 106.665 56.7541 104.638 58.0333 102.991C59.3124 101.344 61.1041 100.171 63.1251 99.6563L97.6876 90.9063C99.2065 90.5316 100.794 90.5316 102.313 90.9063L136.875 99.6563C138.896 100.171 140.688 101.344 141.967 102.991C143.246 104.638 143.939 106.665 143.938 108.75C143.656 115.563 144.75 142.781 142.969 149.031C202.531 145.219 207.188 61.8438 148.688 51.0938Z" fill="#3D4966"/>
<path d="M135.344 105.719L100.781 96.875C100.268 96.7504 99.7322 96.7504 99.2188 96.875L64.6563 105.625C63.9688 105.802 63.362 106.208 62.936 106.776C62.51 107.344 62.2901 108.04 62.3126 108.75V140C62.325 145.083 63.3639 150.111 65.3668 154.783C67.3698 159.455 70.2956 163.674 73.9688 167.188L97.8438 189.844C98.425 190.398 99.1972 190.707 100 190.707C100.803 190.707 101.575 190.398 102.156 189.844L126.031 167.188C129.705 163.674 132.63 159.455 134.633 154.783C136.636 150.111 137.675 145.083 137.688 140V108.75C137.689 108.056 137.459 107.382 137.035 106.833C136.61 106.284 136.016 105.892 135.344 105.719Z" fill="white"/>
</svg>
