<svg width="200" height="200" viewBox="0 0 200 200" fill="none" xmlns="http://www.w3.org/2000/svg">
<path d="M193.087 176.203C192.795 175.829 192.422 175.526 191.995 175.317C191.568 175.109 191.1 175 190.625 175H112.5C111.671 175 110.876 175.329 110.29 175.915C109.704 176.501 109.375 177.296 109.375 178.125V181.25H90.625V178.125C90.625 177.296 90.2958 176.501 89.7097 175.915C89.1236 175.329 88.3288 175 87.5 175H9.37499C8.90031 175 8.4319 175.108 8.00531 175.317C7.57871 175.525 7.20515 175.827 6.91298 176.201C6.6208 176.576 6.41769 177.011 6.31906 177.476C6.22043 177.94 6.22887 178.421 6.34374 178.881L8.28437 186.653C8.79236 188.681 9.96354 190.481 11.6118 191.767C13.26 193.053 15.2908 193.751 17.3812 193.75H182.619C184.71 193.75 186.741 193.052 188.389 191.765C190.037 190.479 191.208 188.678 191.716 186.65L193.656 178.881C193.771 178.421 193.779 177.941 193.681 177.477C193.582 177.013 193.379 176.577 193.087 176.203ZM17.3812 187.5C16.6841 187.501 16.0067 187.268 15.4568 186.84C14.907 186.411 14.5163 185.811 14.3469 185.134L13.375 181.25H84.375V184.375C84.375 185.204 84.7042 185.999 85.2903 186.585C85.8763 187.171 86.6712 187.5 87.5 187.5H17.3812ZM185.653 185.131C185.484 185.808 185.094 186.409 184.544 186.838C183.994 187.268 183.316 187.501 182.619 187.5H112.5C113.329 187.5 114.124 187.171 114.71 186.585C115.296 185.999 115.625 185.204 115.625 184.375V181.25H186.625L185.653 185.131Z" fill="#3D4966"/>
<path d="M21.875 168.75H178.125C180.611 168.75 182.996 167.762 184.754 166.004C186.512 164.246 187.5 161.861 187.5 159.375V65.625C187.5 63.1386 186.512 60.754 184.754 58.9959C182.996 57.2377 180.611 56.25 178.125 56.25H168.459C163.819 41.7386 154.687 29.0772 142.382 20.0936C130.077 11.1099 115.235 6.26862 100 6.26862C84.7646 6.26862 69.9232 11.1099 57.6183 20.0936C45.3134 29.0772 36.1814 41.7386 31.5406 56.25H21.875C19.3886 56.25 17.004 57.2377 15.2459 58.9959C13.4877 60.754 12.5 63.1386 12.5 65.625V159.375C12.5 161.861 13.4877 164.246 15.2459 166.004C17.004 167.762 19.3886 168.75 21.875 168.75ZM60.25 81.25C60.4194 92.9674 62.3299 104.595 65.9188 115.75C61.4753 118.164 57.3018 121.045 53.4688 124.344C42.0266 112.828 35.2775 97.467 34.5344 81.25H60.25ZM73.925 118.8C81.1879 115.646 88.9651 113.842 96.875 113.478V143.438C87.7125 141.681 79.5031 132.356 73.925 118.8ZM103.125 143.438V113.478C111.034 113.839 118.812 115.639 126.075 118.791C120.497 132.356 112.287 141.681 103.125 143.438ZM103.125 107.238V81.25H133.459C133.25 92.0031 131.488 102.669 128.228 112.919C120.274 109.519 111.768 107.591 103.125 107.228V107.238ZM103.125 75V49.0219C111.768 48.6593 120.274 46.7312 128.228 43.3313C131.488 53.5806 133.25 64.2469 133.459 75H103.125ZM103.125 42.7719V12.8125C112.287 14.5594 120.497 23.8844 126.075 37.4406C118.813 40.5983 111.036 42.4049 103.125 42.7719ZM119.897 15.6031C127.935 18.1705 135.403 22.264 141.891 27.6594C138.776 30.274 135.423 32.5904 131.875 34.5781C129.109 27.5571 125.046 21.1198 119.897 15.6031ZM96.875 12.8125V42.7625C88.9657 42.4015 81.1885 40.6012 73.925 37.45C79.5031 23.8938 87.7125 14.5688 96.875 12.8125ZM68.125 34.5688C64.5831 32.5832 61.2351 30.2699 58.125 27.6594C64.613 22.264 72.0806 18.1705 80.1188 15.6031C74.9643 21.1185 70.8954 27.5559 68.125 34.5781V34.5688ZM96.875 49.0219V75H66.5406C66.7504 64.2469 68.5123 53.5806 71.7719 43.3313C79.7264 46.7312 88.2319 48.6593 96.875 49.0219ZM96.875 81.25V107.228C88.2319 107.591 79.7264 109.519 71.7719 112.919C68.5123 102.669 66.7504 92.0031 66.5406 81.25H96.875ZM68.125 121.672C70.8879 128.692 74.9483 135.129 80.0938 140.647C72.0644 138.077 64.6055 133.983 58.125 128.591C61.2347 125.977 64.5827 123.66 68.125 121.672ZM131.856 121.672C135.407 123.659 138.764 125.976 141.881 128.591C135.393 133.986 127.926 138.08 119.887 140.647C125.04 135.131 129.106 128.694 131.875 121.672H131.856ZM146.522 124.344C142.689 121.045 138.515 118.164 134.072 115.75C137.664 104.595 139.578 92.9679 139.75 81.25H165.466C164.723 97.467 157.973 112.828 146.531 124.344H146.522ZM165.466 75H139.75C139.581 63.2826 137.67 51.6555 134.081 40.5C138.525 38.0857 142.698 35.2049 146.531 31.9063C157.973 43.4223 164.723 58.783 165.466 75ZM53.4688 31.9063C57.3018 35.2049 61.4753 38.0857 65.9188 40.5C62.3299 51.6555 60.4194 63.2826 60.25 75H34.5344C35.2775 58.783 42.0266 43.4223 53.4688 31.9063ZM18.75 65.625C18.75 64.7962 19.0792 64.0014 19.6653 63.4153C20.2513 62.8293 21.0462 62.5 21.875 62.5H29.8562C27.5065 73.0113 27.5492 83.9163 29.9811 94.4088C32.413 104.901 37.1719 114.713 43.9062 123.119C50.6404 131.525 59.1777 138.31 68.887 142.972C78.5963 147.635 89.2293 150.055 100 150.055C110.771 150.055 121.404 147.635 131.113 142.972C140.822 138.31 149.36 131.525 156.094 123.119C162.828 114.713 167.587 104.901 170.019 94.4088C172.451 83.9163 172.493 73.0113 170.144 62.5H178.125C178.954 62.5 179.749 62.8293 180.335 63.4153C180.921 64.0014 181.25 64.7962 181.25 65.625V159.375C181.25 160.204 180.921 160.999 180.335 161.585C179.749 162.171 178.954 162.5 178.125 162.5H21.875C21.0462 162.5 20.2513 162.171 19.6653 161.585C19.0792 160.999 18.75 160.204 18.75 159.375V65.625Z" fill="#3D4966"/>
<path d="M31.25 150H25V156.25H31.25V150Z" fill="#3D4966"/>
<path d="M43.75 150H37.5V156.25H43.75V150Z" fill="#3D4966"/>
<path d="M56.25 150H50V156.25H56.25V150Z" fill="#3D4966"/>
<path d="M175 150H168.75V156.25H175V150Z" fill="#3D4966"/>
<path d="M162.5 150H156.25V156.25H162.5V150Z" fill="#3D4966"/>
<path d="M150 150H143.75V156.25H150V150Z" fill="#3D4966"/>
</svg>
